<svg xmlns="http://www.w3.org/2000/svg" xmlns:xlink="http://www.w3.org/1999/xlink" fill="none" version="1.1" width="14" height="14" viewBox="0 0 14 14"><defs><clipPath id="master_svg0_2_00943"><rect x="-0.5833333134651184" y="-0.5833333134651184" width="15.166666626930237" height="15.166666626930237" rx="0"/></clipPath></defs><g clip-path="url(#master_svg0_2_00943)"><path d="M11.08333331,5.8758815752790525Q11.08488297,5.854635754279053,11.08488297,5.833333492279053Q11.08488297,5.7757275512790525,11.07364464,5.719228502279052Q11.06240624,5.662729442279053,11.0403614,5.609508502279053Q11.01831657,5.556287552279053,10.98631239,5.508389952279053Q10.95430824,5.460492372279052,10.9135747,5.419758792279053Q10.87284112,5.379025252279053,10.82494354,5.347021102279053Q10.77704594,5.315016922279053,10.72382499,5.292972092279053Q10.67060405,5.270927252279053,10.61410499,5.259688912279053Q10.557605941,5.248450522279053,10.5,5.248450522279053Q10.442394059,5.248450522279053,10.38589501,5.259688852279052Q10.32939595,5.270927252279053,10.27617501,5.292972092279053Q10.22295406,5.315016922279053,10.17505646,5.347021102279053Q10.12715888,5.379025252279053,10.0864253,5.419758792279053Q10.04569176,5.460492372279052,10.01368761,5.508389952279053Q9.98168343,5.556287552279053,9.9596386,5.609508502279053Q9.93759376,5.662729442279053,9.92635542,5.719228502279052Q9.91511703,5.7757275512790525,9.91511703,5.833333492279053Q9.91511703,5.854635754279053,9.91666669,5.8758815752790525L9.91666669,11.624118292279054Q9.91511703,11.645364292279051,9.91511703,11.666666492279052Q9.91511703,11.724272292279053,9.92635536,11.780771292279052Q9.93759376,11.837269792279052,9.9596386,11.890490492279053Q9.98168343,11.943711792279053,10.01368761,11.991609092279052Q10.04569176,12.039506892279054,10.0864253,12.080240692279052Q10.12715888,12.120974092279052,10.17505646,12.152977992279052Q10.22295406,12.184981792279054,10.27617501,12.207026992279053Q10.32939595,12.229072092279052,10.38589501,12.240310692279053Q10.442394059,12.251549292279051,10.5,12.251549292279051Q10.557605941,12.251549292279051,10.61410499,12.240310692279053Q10.67060405,12.229072092279052,10.72382499,12.207026992279053Q10.77704594,12.184981792279054,10.82494354,12.152978392279053Q10.87284112,12.120974092279052,10.9135747,12.080240692279052Q10.95430824,12.039506892279054,10.98631239,11.991609592279053Q11.01831657,11.943711792279053,11.0403614,11.890490492279053Q11.06240624,11.837269792279052,11.07364458,11.780770792279053Q11.08488297,11.724272292279053,11.08488297,11.666666492279052Q11.08488297,11.645364292279051,11.08333331,11.624118292279054L11.08333331,5.8758815752790525Z" fill-rule="evenodd" fill="#3D6FE8" fill-opacity="1"/><path d="M7.58333331,2.3758815752790525Q7.58488297,2.3546357542790526,7.58488297,2.3333334922790527Q7.58488297,2.275727551279053,7.57364464,2.2192285022790528Q7.56240624,2.1627294422790526,7.5403614,2.109508502279053Q7.51831657,2.056287552279053,7.48631239,2.0083899522790527Q7.45430824,1.9604923722790528,7.4135747,1.9197587922790527Q7.37284112,1.8790252522790527,7.32494354,1.8470211022790528Q7.27704594,1.8150169222790526,7.22382499,1.7929720922790526Q7.17060405,1.7709272522790527,7.11410499,1.7596889122790529Q7.057605941,1.7484505222790527,7,1.7484505222790527Q6.942394059,1.7484505222790527,6.88589501,1.7596888522790528Q6.82939595,1.7709272522790527,6.77617501,1.7929720922790526Q6.72295406,1.8150169222790526,6.67505646,1.8470211022790528Q6.62715888,1.8790252522790527,6.5864253,1.9197587922790527Q6.54569176,1.9604923722790528,6.51368761,2.0083899522790527Q6.48168343,2.056287552279053,6.4596386,2.109508502279053Q6.43759376,2.1627294422790526,6.42635542,2.2192285022790528Q6.41511703,2.275727551279053,6.41511703,2.3333334922790527Q6.41511703,2.3546357542790526,6.41666669,2.3758815752790525L6.41666669,11.624118292279054Q6.41511703,11.645364292279053,6.41511703,11.666666492279052Q6.41511703,11.724271292279052,6.42635536,11.780770792279053Q6.43759376,11.837269292279053,6.4596386,11.890490092279054Q6.48168343,11.943711792279053,6.51368761,11.991609092279052Q6.54569176,12.039506392279053,6.5864253,12.080240692279054Q6.62715888,12.120974092279052,6.67505646,12.152978392279053Q6.72295406,12.184981792279054,6.77617501,12.207026992279053Q6.82939595,12.229072092279052,6.88589501,12.240310192279052Q6.942394059,12.251548292279052,7,12.251549292279053Q7.057605941,12.251548292279052,7.11410499,12.240310192279052Q7.17060405,12.229072092279052,7.22382499,12.207026992279053Q7.27704594,12.184981792279054,7.32494354,12.152977492279053Q7.37284112,12.120973092279053,7.4135747,12.080239792279052Q7.45430824,12.039506392279053,7.48631239,11.991609092279052Q7.51831657,11.943710792279052,7.5403614,11.890490092279054Q7.56240624,11.837269292279053,7.57364458,11.780770792279053Q7.58488297,11.724271292279052,7.58488297,11.666666492279052Q7.58488297,11.645364292279053,7.58333331,11.624118292279054L7.58333331,2.3758815752790525Z" fill-rule="evenodd" fill="#3D6FE8" fill-opacity="1"/><path d="M4.08333331,8.209215067558105Q4.08488297,8.187969246558106,4.08488297,8.166666984558105Q4.08488297,8.109061043558105,4.07364464,8.052561994558106Q4.06240624,7.996062934558106,4.0403614,7.942841994558106Q4.01831657,7.889621044558106,3.98631239,7.841723444558106Q3.95430824,7.793825864558105,3.9135747,7.753092284558106Q3.87284112,7.712358744558106,3.82494354,7.680354594558105Q3.77704594,7.648350414558106,3.72382499,7.626305584558105Q3.67060405,7.604260744558106,3.61410499,7.593022404558106Q3.557605941,7.581784014558106,3.5,7.581784014558106Q3.442394059,7.581784014558106,3.38589501,7.593022344558105Q3.32939595,7.604260744558106,3.27617501,7.626305584558105Q3.22295406,7.648350414558106,3.17505646,7.680354594558105Q3.12715888,7.712358744558106,3.0864253,7.753092284558106Q3.04569176,7.793825864558105,3.01368761,7.841723444558106Q2.98168343,7.889621044558106,2.9596386,7.942841994558106Q2.93759376,7.996062934558106,2.92635542,8.052561994558106Q2.91511703,8.109061043558105,2.91511703,8.166666984558105Q2.91511703,8.187969246558106,2.91666669,8.209215067558105L2.91666669,11.624118784558105Q2.91511703,11.645364784558105,2.91511703,11.666666984558105Q2.91511703,11.724272684558105,2.92635536,11.780771684558106Q2.93759376,11.837270784558106,2.9596386,11.890491484558105Q2.98168343,11.943712484558105,3.01368761,11.991610084558106Q3.04569176,12.039507884558105,3.0864253,12.080241184558105Q3.12715888,12.120974584558105,3.17505646,12.152978684558105Q3.22295406,12.184982784558105,3.27617501,12.207027884558105Q3.32939595,12.229072584558105,3.38589501,12.240311184558106Q3.442394059,12.251549684558105,3.5,12.251549684558105Q3.557605941,12.251549684558105,3.61410499,12.240310684558105Q3.67060405,12.229072584558105,3.72382499,12.207027884558105Q3.77704594,12.184982784558105,3.82494354,12.152978884558106Q3.87284112,12.120974784558106,3.9135747,12.080241484558105Q3.95430824,12.039507884558105,3.98631239,11.991610284558107Q4.01831657,11.943712484558105,4.0403614,11.890491484558105Q4.06240624,11.837270784558106,4.07364458,11.780771684558106Q4.08488297,11.724272684558105,4.08488297,11.666666984558105Q4.08488297,11.645364784558105,4.08333331,11.624118784558105L4.08333331,8.209215067558105Z" fill-rule="evenodd" fill="#3D6FE8" fill-opacity="1"/></g></svg>