<svg xmlns="http://www.w3.org/2000/svg" xmlns:xlink="http://www.w3.org/1999/xlink" fill="none" version="1.1" width="14" height="14" viewBox="0 0 14 14"><defs><clipPath id="master_svg0_2_00815"><rect x="-0.5833333134651184" y="-0.5833333134651184" width="15.166666626930237" height="15.166666626930237" rx="0"/></clipPath></defs><g clip-path="url(#master_svg0_2_00815)"><path d="M12.249999492279052,7.583332404911804L12.249999492279052,3.500000104911804Q12.249999492279052,3.0167506049118042,11.908292292279052,2.675042604911804Q11.566583192279053,2.3333335049118045,11.083333492279053,2.3333335049118045Q9.477192892279053,2.3333335049118045,7.822250892279053,0.8864920449118042Q7.467108292279053,0.5830712949118042,6.999999992279053,0.5830712949118042Q6.532890292279053,0.5830712949118042,6.172896192279053,0.8906841549118042Q5.450225592279052,1.5219829349118041,4.5548204922790525,1.9235833849118043Q3.641245292279053,2.3333335049118045,2.9166668022790527,2.3333335049118045Q2.4334176222790527,2.3333335049118045,2.0917094622790526,2.6750419049118044Q1.7500001822790527,3.016750404911804,1.7500001822790527,3.500000104911804L1.7499996422790527,7.583332404911804Q1.7499996422790527,11.666586604911805,6.611362892279053,13.347736604911804Q6.996468992279053,13.488488604911804,7.390332192279053,13.354998604911804Q12.249999492279052,11.661121604911804,12.249999492279052,7.583332404911804ZM8.970205292279053,2.9903965049118044Q10.108015492279053,3.500000104911804,11.083333492279053,3.500000104911804L11.083333492279053,7.583332404911804Q11.083333492279053,10.830374604911805,7.011084992279053,12.251680604911805Q7.004524192279053,12.249236604911804,6.997905692279053,12.246949604911805Q2.9166665122790527,10.837601504911804,2.916666272279053,7.583332404911804L2.9166665122790527,3.500000604911804Q3.890897792279053,3.500000104911804,5.032262592279053,2.988083404911804Q6.086591292279053,2.5152035049118044,6.940436392279053,1.7693154249118042Q6.963405592279052,1.7497379149118042,6.999999992279053,1.7497379149118042Q7.036593892279052,1.7497379149118042,7.064416392279052,1.7735081949118041Q7.916356092279052,2.5183976049118044,8.970205292279053,2.9903965049118044Z" fill-rule="evenodd" fill="#8B5CF6" fill-opacity="1"/></g></svg>