<svg xmlns="http://www.w3.org/2000/svg" xmlns:xlink="http://www.w3.org/1999/xlink" fill="none" version="1.1" width="134" height="117" viewBox="0 0 134 117"><defs><linearGradient x1="1" y1="0.04723912477493286" x2="0.1502252349658672" y2="1.154530558767714" id="master_svg0_2_3918"><stop offset="0%" stop-color="#2E60D5" stop-opacity="1"/><stop offset="99.99999403953552%" stop-color="#4978F1" stop-opacity="1"/></linearGradient></defs><path d="M67,0L50.25,0L50.25,16.714285L33.5,16.714285L33.5,33.42857L16.75,33.42857L16.75,50.142857L0,50.142857L0,66.85714L16.75,66.85714L16.75,50.142857L33.5,50.142857L33.5,66.85714L50.25,66.85714L50.25,50.142857L67,50.142857L67,66.85714L83.75,66.85714L83.75,83.571426L100.5,83.571426L100.5,66.85714L117.25,66.85714L117.25,83.571426L134,83.571426L134,66.85714L117.25,66.85714L117.25,50.142857L134,50.142857L134,33.42857L117.25,33.42857L117.25,17.440994L134,17.440994L134,0.72670805L117.25,0.72670805L117.25,16.714285L100.5,16.714285L100.5,0.72670805L83.75,0.72670805L83.75,16.714285L67,16.714285L67,0ZM67,33.42857L67,16.714285L50.25,16.714285L50.25,33.42857L33.5,33.42857L33.5,50.142857L50.25,50.142857L50.25,33.42857L67,33.42857ZM83.75,33.42857L67,33.42857L67,50.142857L83.75,50.142857L83.75,66.85714L100.5,66.85714L100.5,50.142857L117.25,50.142857L117.25,33.42857L100.5,33.42857L100.5,17.440994L83.75,17.440994L83.75,33.42857ZM83.75,33.42857L100.5,33.42857L100.5,50.142857L83.75,50.142857L83.75,33.42857ZM134,100.28571L117.25,100.28571L117.25,117L134,117L134,100.28571Z" fill-rule="evenodd" fill="url(#master_svg0_2_3918)" fill-opacity="0.5" style="mix-blend-mode:passthrough"/></svg>