<svg xmlns="http://www.w3.org/2000/svg" xmlns:xlink="http://www.w3.org/1999/xlink" fill="none" version="1.1" width="14.55" height="14.55" viewBox="0 0 14.545454025268555 14.545454025268555"><defs><clipPath id="master_svg0_2_01376"><rect x="-0.6060606241226196" y="-0.6060606241226196" width="15.757575273513794" height="15.757575273513794" rx="0"/></clipPath></defs><g clip-path="url(#master_svg0_2_01376)"><path d="M1.818115234375,13.939434643437501L12.727207234375,13.939434643437501L12.727207234375,13.9382530434375Q12.786781234375,13.9382530434375,12.845211234375,13.9266304934375Q12.903641234375,13.9150078334375,12.958682234375,13.8922093534375Q13.013722234375,13.8694108134375,13.063257234375,13.8363125334375Q13.112793234375,13.8032141934375,13.154920234375,13.7610880734375Q13.197046234375,13.7189618934375,13.230143234375,13.6694267734375Q13.263242234375,13.6198916434375,13.286040234375,13.5648511834375Q13.308840234375,13.5098107134375,13.320463234375,13.4513800634375Q13.332084234375,13.3929494024375,13.332085234375,13.3333740234375Q13.332084234375,13.2737986444375,13.320462234375,13.2153679834375Q13.308840234375,13.1569373334375,13.286040234375,13.1018968634375Q13.263241234375,13.0468564034375,13.230142234375,12.9973212734375Q13.197044234375,12.9477861534375,13.154918234375,12.9056599734375Q13.112792234375,12.8635338534375,13.063257234375,12.8304355734375Q13.013721234375,12.7973372934375,12.958682234375,12.7745387534375Q12.903641234375,12.7517402134375,12.845211234375,12.7401176134375Q12.786781234375,12.7284950034375,12.727206234375,12.7284950034375L12.727207234375,12.727313403437499L1.818115234375,12.727313403437499L1.818115234375,12.7284950034375Q1.758539855375,12.7284950034375,1.700109194375,12.7401175534375Q1.641678544375,12.7517402134375,1.586638074375,12.7745386934375Q1.531597614375,12.7973372334375,1.482062484375,12.8304355134375Q1.432527364375,12.8635338534375,1.390401184375,12.9056599734375Q1.348275064375,12.9477861534375,1.315176784375,12.9973212734375Q1.282078504375,13.0468564034375,1.2592799643750001,13.1018968634375Q1.236481424375,13.1569373334375,1.224858824375,13.2153679834375Q1.213236214375,13.2737986444375,1.213236214375,13.3333740234375Q1.213236214375,13.3929494024375,1.224858764375,13.4513800634375Q1.236481424375,13.5098107134375,1.259279904375,13.5648511834375Q1.282078444375,13.6198916434375,1.315176724375,13.6694267734375Q1.348275064375,13.7189618934375,1.390401184375,13.7610880734375Q1.432527364375,13.8032141934375,1.482062484375,13.8363124734375Q1.531597614375,13.8694107534375,1.586638074375,13.8922092934375Q1.641678544375,13.9150078334375,1.700109194375,13.9266304334375Q1.758539855375,13.9382530434375,1.818115234375,13.9382530434375L1.818115234375,13.939434643437501Z" fill-rule="evenodd" fill="#FFFFFF" fill-opacity="1"/><path d="M3.0315955893749997,6.6666259765625Q3.0315955893749997,6.6070505975625,3.043218139375,6.5486199365625Q3.054840799375,6.4901892865625,3.077639279375,6.4351488165625Q3.100437819375,6.3801083565625,3.133536099375,6.3305732265625Q3.166634439375,6.2810381065625,3.208760559375,6.2389119265625Q3.250886739375,6.1967858065625,3.300421859375,6.1636875265625Q3.349956989375,6.1305892465625,3.404997449375,6.1077907065625Q3.460037919375,6.0849921665625,3.518468569375,6.0733695665625Q3.576899230375,6.0617469565625,3.636474609375,6.0617469565625Q3.696049988375,6.0617469565625,3.754480649375,6.0733695065625Q3.812911299375,6.0849921665625,3.867951769375,6.1077906465625Q3.922992229375,6.1305891865625,3.972527359375,6.1636874665625Q4.022062479375,6.1967858065625,4.064188659375,6.2389119265625Q4.106314779375,6.2810381065625,4.139413059375,6.3305732265625Q4.172511339375,6.3801083565625,4.195309879375,6.4351488165625Q4.218108419375,6.4901892865625,4.229731019375,6.5486199365625Q4.241353629375,6.6070505975625,4.241353629375,6.6666259765625L4.242535229375,6.6666259765625L4.242535229375,10.9090499765625L4.241353629375,10.9090499765625Q4.241353629375,10.9686250765625,4.229731079375,11.0270557765625Q4.218108419375,11.0854863765625,4.195309939375,11.1405267765625Q4.172511399375,11.1955671765625,4.139413119375,11.2451023765625Q4.106314779375,11.2946376765625,4.064188659375,11.3367638765625Q4.022062479375,11.3788895765625,3.972527359375,11.411987776562501Q3.922992229375,11.4450854765625,3.867951769375,11.4678845765625Q3.812911299375,11.490683076562501,3.754480649375,11.5023059765625Q3.696049988375,11.5139283765625,3.636474609375,11.513928876562499Q3.576899230375,11.5139283765625,3.518468569375,11.5023059765625Q3.460037919375,11.4906835765625,3.404997449375,11.4678849765625Q3.349956989375,11.445085976562499,3.300421859375,11.411987776562501Q3.250886739375,11.3788895765625,3.208760559375,11.3367638765625Q3.166634439375,11.2946376765625,3.1335361593749997,11.2451023765625Q3.100437879375,11.1955671765625,3.077639339375,11.1405267765625Q3.054840799375,11.0854863765625,3.043218199375,11.0270557765625Q3.0315955893749997,10.9686250765625,3.0315955893749997,10.9090499765625L3.030413989375,10.9090499765625L3.030413989375,6.6666259765625L3.0315955893749997,6.6666259765625Z" fill-rule="evenodd" fill="#FFFFFF" fill-opacity="1"/><path d="M5.455667855,6.6666259765625Q5.455667855,6.6070505975625,5.467290405,6.5486199365625Q5.478913065,6.4901892865625,5.501711545,6.4351488165625Q5.524510085,6.3801083565625,5.557608365,6.3305732265625Q5.590706705,6.2810381065625,5.632832825,6.2389119265625Q5.674959005,6.1967858065625,5.724494125,6.1636875265625Q5.774029255,6.1305892465625,5.829069715,6.1077907065625Q5.884110185,6.0849921665625,5.942540835,6.0733695665625Q6.000971496,6.0617469565625,6.060546875,6.0617469565625Q6.120122254,6.0617469565625,6.178552915,6.0733695065625Q6.236983565,6.0849921665625,6.292024035,6.1077906465625Q6.347064495,6.1305891865625,6.396599625,6.1636874665625Q6.446134745,6.1967858065625,6.488260925,6.2389119265625Q6.530387045,6.2810381065625,6.563485325,6.3305732265625Q6.596583605,6.3801083565625,6.619382145,6.4351488165625Q6.642180685,6.4901892865625,6.653803285,6.5486199365625Q6.665425895,6.6070505975625,6.665425895,6.6666259765625L6.666607495,6.6666259765625L6.666607495,10.9090499765625L6.665425895,10.9090499765625Q6.665425895,10.9686250765625,6.653803345,11.0270557765625Q6.642180685,11.0854863765625,6.619382205,11.1405267765625Q6.596583665,11.1955671765625,6.563485385,11.2451023765625Q6.530387045,11.2946376765625,6.488260925,11.3367638765625Q6.446134745,11.3788895765625,6.396599625,11.411987776562501Q6.347064495,11.4450854765625,6.292024035,11.4678845765625Q6.236983565,11.490683076562501,6.178552915,11.5023059765625Q6.120122254,11.5139283765625,6.060546875,11.513928876562499Q6.000971496,11.5139283765625,5.942540835,11.5023059765625Q5.884110185,11.4906835765625,5.829069715,11.4678849765625Q5.774029255,11.445085976562499,5.724494125,11.411987776562501Q5.674959005,11.3788895765625,5.632832825,11.3367638765625Q5.590706705,11.2946376765625,5.557608425,11.2451023765625Q5.524510145,11.1955671765625,5.501711605,11.1405267765625Q5.478913065,11.0854863765625,5.467290465,11.0270557765625Q5.455667855,10.9686250765625,5.455667855,10.9090499765625L5.454486255,10.9090499765625L5.454486255,6.6666259765625L5.455667855,6.6666259765625Z" fill-rule="evenodd" fill="#FFFFFF" fill-opacity="1"/><path d="M7.87998426125,6.6666259765625Q7.87998426125,6.6070505975625,7.89160681125,6.5486199365625Q7.90322947125,6.4901892865625,7.92602795125,6.4351488165625Q7.94882649125,6.3801083565625,7.98192477125,6.3305732265625Q8.01502311125,6.2810381065625,8.05714923125,6.2389119265625Q8.09927541125,6.1967858065625,8.14881053125,6.1636875265625Q8.19834566125,6.1305892465625,8.25338612125,6.1077907065625Q8.30842659125,6.0849921665625,8.36685724125,6.0733695665625Q8.42528790225,6.0617469565625,8.48486328125,6.0617469565625Q8.54443866025,6.0617469565625,8.60286932125,6.0733695065625Q8.66129997125,6.0849921665625,8.71634044125,6.1077906465625Q8.77138090125,6.1305891865625,8.82091603125,6.1636874665625Q8.87045115125,6.1967858065625,8.91257733125,6.2389119265625Q8.95470345125,6.2810381065625,8.98780173125,6.3305732265625Q9.02090001125,6.3801083565625,9.04369855125,6.4351488165625Q9.06649709125,6.4901892865625,9.07811969125,6.5486199365625Q9.08974230125,6.6070505975625,9.08974230125,6.6666259765625L9.090923901250001,6.6666259765625L9.090923901250001,10.9090499765625L9.08974230125,10.9090499765625Q9.08974230125,10.9686250765625,9.07811975125,11.0270557765625Q9.06649709125,11.0854863765625,9.04369861125,11.1405267765625Q9.02090007125,11.1955671765625,8.98780179125,11.2451023765625Q8.95470345125,11.2946376765625,8.91257733125,11.3367638765625Q8.87045115125,11.3788895765625,8.82091603125,11.411987776562501Q8.77138090125,11.4450854765625,8.71634044125,11.4678845765625Q8.66129997125,11.490683076562501,8.60286932125,11.5023059765625Q8.54443866025,11.5139283765625,8.48486328125,11.513928876562499Q8.42528790225,11.5139283765625,8.36685724125,11.5023059765625Q8.30842659125,11.4906835765625,8.25338612125,11.4678849765625Q8.19834566125,11.445085976562499,8.14881053125,11.411987776562501Q8.09927541125,11.3788895765625,8.05714923125,11.3367638765625Q8.01502311125,11.2946376765625,7.98192483125,11.2451023765625Q7.94882655125,11.1955671765625,7.92602801125,11.1405267765625Q7.90322947125,11.0854863765625,7.89160687125,11.0270557765625Q7.87998426125,10.9686250765625,7.87998426125,10.9090499765625L7.87880266125,10.9090499765625L7.87880266125,6.6666259765625L7.87998426125,6.6666259765625Z" fill-rule="evenodd" fill="#FFFFFF" fill-opacity="1"/><path d="M10.304056526875,6.6666259765625Q10.304056526875,6.6070505975625,10.315679076875,6.5486199365625Q10.327301736875,6.4901892865625,10.350100216875,6.4351488165625Q10.372898756875,6.3801083565625,10.405997036875,6.3305732265625Q10.439095376875,6.2810381065625,10.481221496875,6.2389119265625Q10.523347676875,6.1967858065625,10.572882796875,6.1636875265625Q10.622417926875,6.1305892465625,10.677458386875,6.1077907065625Q10.732498856875,6.0849921665625,10.790929506875,6.0733695665625Q10.849360167875,6.0617469565625,10.908935546875,6.0617469565625Q10.968510925875,6.0617469565625,11.026941586875,6.0733695065625Q11.085372236875,6.0849921665625,11.140412706875,6.1077906465625Q11.195453166875,6.1305891865625,11.244988296875,6.1636874665625Q11.294523416875,6.1967858065625,11.336649596875,6.2389119265625Q11.378775716875,6.2810381065625,11.411873996875,6.3305732265625Q11.444972276875,6.3801083565625,11.467770816875,6.4351488165625Q11.490569356875,6.4901892865625,11.502191956875,6.5486199365625Q11.513814566875,6.6070505975625,11.513814566875,6.6666259765625L11.514996166875001,6.6666259765625L11.514996166875001,10.9090499765625L11.513814566875,10.9090499765625Q11.513814566875,10.9686250765625,11.502192016875,11.0270557765625Q11.490569356875,11.0854863765625,11.467770876875,11.1405267765625Q11.444972336875,11.1955671765625,11.411874056875,11.2451023765625Q11.378775716875,11.2946376765625,11.336649596875,11.3367638765625Q11.294523416875,11.3788895765625,11.244988296875,11.411987776562501Q11.195453166875,11.4450854765625,11.140412706875,11.4678845765625Q11.085372236875,11.490683076562501,11.026941586875,11.5023059765625Q10.968510925875,11.5139283765625,10.908935546875,11.513928876562499Q10.849360167875,11.5139283765625,10.790929506875,11.5023059765625Q10.732498856875,11.4906835765625,10.677458386875,11.4678849765625Q10.622417926875,11.445085976562499,10.572882796875,11.411987776562501Q10.523347676875,11.3788895765625,10.481221496875,11.3367638765625Q10.439095376875,11.2946376765625,10.405997096875,11.2451023765625Q10.372898816875,11.1955671765625,10.350100276875,11.1405267765625Q10.327301736875,11.0854863765625,10.315679136875,11.0270557765625Q10.304056526875,10.9686250765625,10.304056526875,10.9090499765625L10.302874926874999,10.9090499765625L10.302874926874999,6.6666259765625L10.304056526875,6.6666259765625Z" fill-rule="evenodd" fill="#FFFFFF" fill-opacity="1"/><path d="M6.951345965625,0.6980977028125L2.102860775625,3.7284007328125Q2.037485685625,3.7692601328125,1.984422025625,3.8251857328125Q1.931358335625,3.8811111328125,1.893985865625,3.9485402328125Q1.8566133956250002,4.0159692328125,1.837312455625,4.0906076328125Q1.818011645625,4.1652457328125,1.8180115856249999,4.2423391328125Q1.818011645625,4.3020305328125,1.829656895625,4.3605752328125Q1.8413022156249998,4.4191198328125,1.8641452756249999,4.4742679328125Q1.8869883456249998,4.5294158328125,1.920151295625,4.5790476328125Q1.9533142456250001,4.6286797328125004,1.995522675625,4.6708884328125Q2.037731145625,4.7130966328124995,2.087363005625,4.7462597328125Q2.136994895625,4.7794227328125,2.192142905625,4.8022656328124995Q2.247290905625,4.825109032812501,2.305835705625,4.8367543328125Q2.364380501625,4.8483996328125,2.424072265625,4.8483998328125L12.121043165625,4.8483998328125Q12.198137265625,4.8483998328125,12.272775665625,4.8290991328125Q12.347414065625,4.809798232812501,12.414842565625,4.772425632812499Q12.482271265625,4.7350530328125,12.538196265625,4.6819892328125Q12.594122265625,4.6289258328125005,12.634981265625,4.5635507328125Q12.698873265625,4.4613220328125,12.718782265625,4.3424244328125Q12.738690265625,4.2235264328125,12.711584265625,4.1060609328125Q12.684477265625,3.9885950328125,12.614480265625,3.8904445328125Q12.544483265625,3.7922935328125,12.442254265625,3.7284007328125L7.593769065625,0.6980977028125Q7.521527265625,0.6529467128125,7.439637665625,0.6294611128125Q7.357748065625,0.6059755128125,7.272557265625,0.6059755128125Q7.187366465625,0.6059755128125,7.105476865625,0.6294611128125Q7.023587265625,0.6529467128125,6.951345965625,0.6980977028125ZM4.537282665625,3.6362784328125L10.007832565625,3.6362784328125L7.272557765625,1.9267317628125L4.537282665625,3.6362784328125Z" fill-rule="evenodd" fill="#FFFFFF" fill-opacity="1"/></g></svg>