<svg xmlns="http://www.w3.org/2000/svg" xmlns:xlink="http://www.w3.org/1999/xlink" fill="none" version="1.1" width="14" height="14" viewBox="0 0 14 14"><defs><clipPath id="master_svg0_2_00471"><rect x="-0.5833333134651184" y="-0.5833333134651184" width="15.166666626930237" height="15.166666626930237" rx="0"/></clipPath></defs><g clip-path="url(#master_svg0_2_00471)"><path d="M3.5,13.4166259765625L10.499999500000001,13.4166259765625Q10.5574522,13.4166259765625,10.613802,13.4054169765625Q10.6701508,13.3942069765625,10.7232308,13.3722209765625Q10.7763109,13.3502349765625,10.8240814,13.3183159765625Q10.8718529,13.2863959765625,10.912478400000001,13.2457709765625Q10.953104,13.2051449765625,10.985023,13.1573729765625Q11.016942,13.1096039765625,11.0389285,13.0565229765625Q11.060915,13.0034429765625,11.0721235,12.9470939765625Q11.083333,12.8907449765625,11.083333,12.8332919765625L11.083333,2.3332924765625Q11.083333,1.6084188565625,10.5707698,1.0958556535625Q10.0582061,0.5832926665625,9.333333,0.5832926665625L4.6666665,0.5832926665625Q3.94179288,0.5832926065625,3.429229811,1.0958557055625Q2.91666669,1.6084187365625,2.91666669,2.3332925765625L2.91666669,12.8332919765625Q2.91666675,12.8907449765625,2.92787534,12.9470939765625Q2.93908393,13.0034429765625,2.96107036,13.0565219765625Q2.98305678,13.1096029765625,3.01497611,13.1573739765625Q3.04689544,13.2051449765625,3.08752108,13.2457709765625Q3.12814671,13.2863959765625,3.17591739,13.3183159765625Q3.22368807,13.3502349765625,3.27676803,13.3722219765625Q3.32984796,13.3942079765625,3.38619733,13.4054169765625Q3.442546688,13.4166259765625,3.5,13.4166259765625ZM9.9166665,12.2499589765625L9.9166665,2.3332924765625Q9.9166665,2.0916682465625,9.7458119,1.9208137365625Q9.574957399999999,1.7499592865625,9.333333,1.7499592865625L4.6666665,1.7499592865625Q4.42504197,1.7499592865625,4.25418764,1.9208136165625Q4.08333331,2.0916679465625,4.08333331,2.3332925765625L4.08333331,12.2499589765625L9.9166665,12.2499589765625Z" fill-rule="evenodd" fill="#56C08D" fill-opacity="1"/><path d="M3.50002031171875,7.58488297Q3.55762621171875,7.58488297,3.61412501171875,7.57364464Q3.67062421171875,7.56240624,3.72384501171875,7.5403614Q3.77706601171875,7.51831657,3.82496361171875,7.48631239Q3.87286111171875,7.45430824,3.91359471171875,7.4135747Q3.95432801171875,7.37284112,3.98633241171875,7.32494354Q4.018336511718751,7.27704594,4.04038141171875,7.22382499Q4.062426611718751,7.17060405,4.073664911718749,7.11410499Q4.08490321171875,7.057605941,4.08490321171875,7Q4.08490321171875,6.942394059,4.0736647117187506,6.88589501Q4.062426611718751,6.82939595,4.04038141171875,6.77617501Q4.018336511718751,6.72295406,3.98633241171875,6.67505646Q3.95432801171875,6.62715888,3.91359471171875,6.5864253Q3.87286111171875,6.54569176,3.82496361171875,6.51368761Q3.77706601171875,6.48168343,3.72384501171875,6.4596386Q3.67062421171875,6.43759376,3.61412501171875,6.42635542Q3.55762621171875,6.41511703,3.50002031171875,6.41511703Q3.47871801171875,6.41511703,3.45747211171875,6.41666669L2.33335361171875,6.41666669Q1.60848003171875,6.41666675,1.09591683771875,6.929229997Q0.58335370171875,7.44179302,0.58335370171875,8.1666666L0.58335370171875,11.6666665Q0.58335370171875,12.3915405,1.09591634571875,12.9041028Q1.60847914171875,13.4166665,2.33335361171875,13.4166665L3.45746491171875,13.4166665Q3.47871421171875,13.4182167,3.50002031171875,13.4182167Q3.55762621171875,13.4182167,3.61412501171875,13.406977699999999Q3.67062421171875,13.395739599999999,3.72384501171875,13.3736949Q3.77706601171875,13.3516498,3.82496361171875,13.319645900000001Q3.87286111171875,13.2876415,3.91359471171875,13.2469082Q3.95432801171875,13.2061744,3.98633241171875,13.1582766Q4.018336511718751,13.1103792,4.04038141171875,13.0571585Q4.062426611718751,13.0039377,4.073664911718749,12.9474382Q4.08490321171875,12.8909392,4.08490321171875,12.8333335Q4.08490321171875,12.7757273,4.0736647117187506,12.719227799999999Q4.062426611718751,12.662728300000001,4.04038141171875,12.6095076Q4.018336511718751,12.556286799999999,3.98633241171875,12.5083895Q3.95432801171875,12.4604917,3.91359471171875,12.4197583Q3.87286111171875,12.3790245,3.82496361171875,12.3470206Q3.77706601171875,12.3150163,3.72384501171875,12.292971099999999Q3.67062421171875,12.2709265,3.61412501171875,12.2596884Q3.55762621171875,12.2484503,3.50002031171875,12.2484503Q3.47871761171875,12.2484503,3.45747141171875,12.25L2.33335361171875,12.25Q2.09172910171875,12.25,1.9208748317187498,12.0791454Q1.75002026171875,11.9082909,1.75002026171875,11.6666665L1.75002032171875,8.1666666Q1.75002032171875,7.9250422700000005,1.92087465171875,7.75418794Q2.09172928171875,7.58333325,2.33335361171875,7.58333325L3.45747211171875,7.58333331Q3.47871801171875,7.58488297,3.50002031171875,7.58488297Z" fill-rule="evenodd" fill="#56C08D" fill-opacity="1"/><path d="M10.542548113,5.83333331Q10.521302277,5.83488297,10.5,5.83488297Q10.442394059,5.83488297,10.38589501,5.82364464Q10.32939595,5.81240624,10.27617501,5.7903614Q10.22295406,5.76831657,10.17505646,5.73631239Q10.12715888,5.70430824,10.0864253,5.6635747Q10.04569176,5.62284112,10.01368761,5.57494354Q9.98168343,5.52704594,9.9596386,5.47382499Q9.93759376,5.42060405,9.92635542,5.36410499Q9.91511703,5.307605941,9.91511703,5.25Q9.91511703,5.192394059,9.92635536,5.13589501Q9.93759376,5.07939595,9.9596386,5.02617501Q9.98168343,4.97295406,10.01368761,4.92505646Q10.04569176,4.87715888,10.0864253,4.8364253Q10.12715888,4.79569176,10.17505646,4.76368761Q10.22295406,4.73168343,10.27617501,4.7096386Q10.32939595,4.68759376,10.38589501,4.67635542Q10.442394059,4.66511703,10.5,4.66511703Q10.521302262,4.66511703,10.542548083,4.66666669L11.6666666,4.66666669Q12.3915397,4.66666669,12.9041023,5.179229617Q13.4166665,5.69179288,13.4166665,6.4166666L13.4166665,11.666667Q13.4166665,12.3915401,12.904103,12.9041033Q12.3915397,13.416666,11.6666666,13.416666L10.542561963,13.416666Q10.52130923,13.4182167,10.5,13.4182167Q10.442394059,13.4182167,10.38589501,13.4069767Q10.32939595,13.3957386,10.27617501,13.3736935Q10.22295406,13.3516483,10.17505646,13.3196449Q10.12715888,13.2876415,10.0864253,13.246907199999999Q10.04569176,13.2061739,10.01368761,13.1582761Q9.98168343,13.1103783,9.9596386,13.057157499999999Q9.93759376,13.0039368,9.92635542,12.9474382Q9.91511703,12.8909397,9.91511703,12.8333335Q9.91511703,12.7757273,9.92635536,12.719227799999999Q9.93759376,12.662728300000001,9.9596386,12.6095076Q9.98168343,12.5562863,10.01368761,12.508389000000001Q10.04569176,12.4604912,10.0864253,12.4197583Q10.12715888,12.3790245,10.17505646,12.3470206Q10.22295406,12.3150163,10.27617501,12.292971099999999Q10.32939595,12.2709265,10.38589501,12.2596889Q10.442394059,12.2484503,10.5,12.2484503Q10.521302668,12.2484503,10.542548891,12.25L11.6666666,12.25Q11.9082904,12.25,12.0791456,12.079145Q12.25,11.9082909,12.25,11.666667L12.25,6.4166666Q12.25,6.17504275,12.0791452,6.00418836Q11.9082905,5.83333325,11.6666666,5.83333325L10.542548113,5.83333331Z" fill-rule="evenodd" fill="#56C08D" fill-opacity="1"/><path d="M5.87586107128125,4.08333331Q5.85461525028125,4.08488297,5.83331298828125,4.08488297Q5.77570704728125,4.08488297,5.71920799828125,4.07364464Q5.66270893828125,4.06240624,5.60948799828125,4.0403614Q5.55626704828125,4.01831657,5.50836944828125,3.98631239Q5.46047186828125,3.95430824,5.41973828828125,3.9135747Q5.37900474828125,3.87284112,5.34700059828125,3.82494354Q5.31499641828125,3.77704594,5.29295158828125,3.72382499Q5.27090674828125,3.67060405,5.25966840828125,3.61410499Q5.24843001828125,3.557605941,5.24843001828125,3.5Q5.24843001828125,3.442394059,5.25966834828125,3.38589501Q5.27090674828125,3.32939595,5.29295158828125,3.27617501Q5.31499641828125,3.22295406,5.34700059828125,3.17505646Q5.37900474828125,3.12715888,5.41973828828125,3.0864253Q5.46047186828125,3.04569176,5.50836944828125,3.01368761Q5.55626704828125,2.98168343,5.60948799828125,2.9596386Q5.66270893828125,2.93759376,5.71920799828125,2.92635542Q5.77570704728125,2.91511703,5.83331298828125,2.91511703Q5.85461525028125,2.91511703,5.87586107128125,2.91666669L8.12409808828125,2.91666669Q8.145343988281251,2.91511703,8.16664628828125,2.91511703Q8.22425218828125,2.91511703,8.28075098828125,2.92635536Q8.33725018828125,2.93759376,8.39047098828125,2.9596386Q8.44369198828125,2.98168343,8.49158958828125,3.01368761Q8.53948708828125,3.04569176,8.58022068828125,3.0864253Q8.62095398828125,3.12715888,8.65295838828125,3.17505646Q8.68496248828125,3.22295406,8.70700738828125,3.27617501Q8.72905258828125,3.32939595,8.74029088828125,3.38589501Q8.75152918828125,3.442394059,8.75152918828125,3.5Q8.75152918828125,3.557605941,8.74029068828125,3.61410499Q8.72905258828125,3.67060405,8.70700738828125,3.72382499Q8.68496248828125,3.77704594,8.65295838828125,3.82494354Q8.62095398828125,3.87284112,8.58022068828125,3.9135747Q8.53948708828125,3.95430824,8.49158958828125,3.98631239Q8.44369198828125,4.01831657,8.39047098828125,4.0403614Q8.33725018828125,4.06240624,8.28075098828125,4.07364458Q8.22425218828125,4.08488297,8.16664628828125,4.08488297Q8.145343988281251,4.08488297,8.12409808828125,4.08333331L5.87586107128125,4.08333331Z" fill-rule="evenodd" fill="#56C08D" fill-opacity="1"/><path d="M5.87586107128125,6.4167073334375Q5.85461525028125,6.4182569934375,5.83331298828125,6.4182569934375Q5.77570704728125,6.4182569934375,5.71920799828125,6.4070186634375Q5.66270893828125,6.3957802634375,5.60948799828125,6.3737354234375Q5.55626704828125,6.3516905934375,5.50836944828125,6.3196864134375Q5.46047186828125,6.2876822634375,5.41973828828125,6.2469487234375Q5.37900474828125,6.2062151434375,5.34700059828125,6.1583175634375Q5.31499641828125,6.1104199634375,5.29295158828125,6.0571990134375Q5.27090674828125,6.0039780734375,5.25966840828125,5.9474790134375Q5.24843001828125,5.8909799644375,5.24843001828125,5.8333740234375Q5.24843001828125,5.7757680824375,5.25966834828125,5.7192690334375Q5.27090674828125,5.6627699734375,5.29295158828125,5.6095490334375Q5.31499641828125,5.5563280834375,5.34700059828125,5.5084304834375Q5.37900474828125,5.4605329034375,5.41973828828125,5.4197993234375Q5.46047186828125,5.3790657834375,5.50836944828125,5.3470616334375Q5.55626704828125,5.3150574534375,5.60948799828125,5.2930126234375Q5.66270893828125,5.2709677834375,5.71920799828125,5.2597294434375Q5.77570704728125,5.2484910534375,5.83331298828125,5.2484910534375Q5.85461525028125,5.2484910534375,5.87586107128125,5.2500407134375L8.12409808828125,5.2500407134375Q8.145343988281251,5.2484910534375,8.16664628828125,5.2484910534375Q8.22425218828125,5.2484910534375,8.28075098828125,5.2597293834375Q8.33725018828125,5.2709677834375,8.39047098828125,5.2930126234375Q8.44369198828125,5.3150574534375,8.49158958828125,5.3470616334375Q8.53948708828125,5.3790657834375,8.58022068828125,5.4197993234375Q8.62095398828125,5.4605329034375,8.65295838828125,5.5084304834375Q8.68496248828125,5.5563280834375,8.70700738828125,5.6095490334375Q8.72905258828125,5.6627699734375,8.74029088828125,5.7192690334375Q8.75152918828125,5.7757680824375,8.75152918828125,5.8333740234375Q8.75152918828125,5.8909799644375,8.74029068828125,5.9474790134375Q8.72905258828125,6.0039780734375,8.70700738828125,6.0571990134375Q8.68496248828125,6.1104199634375,8.65295838828125,6.1583175634375Q8.62095398828125,6.2062151434375,8.58022068828125,6.2469487234375Q8.53948708828125,6.2876822634375,8.49158958828125,6.3196864134375Q8.44369198828125,6.3516905934375,8.39047098828125,6.3737354234375Q8.33725018828125,6.3957802634375,8.28075098828125,6.4070186034375Q8.22425218828125,6.4182569934375,8.16664628828125,6.4182569934375Q8.145343988281251,6.4182569934375,8.12409808828125,6.4167073334375L5.87586107128125,6.4167073334375Z" fill-rule="evenodd" fill="#56C08D" fill-opacity="1"/><path d="M5.87586107128125,8.7499592865625Q5.85461525028125,8.7515089465625,5.83331298828125,8.7515089465625Q5.77570704728125,8.7515089465625,5.71920799828125,8.7402706165625Q5.66270893828125,8.7290322165625,5.60948799828125,8.7069873765625Q5.55626704828125,8.6849425465625,5.50836944828125,8.6529383665625Q5.46047186828125,8.6209342165625,5.41973828828125,8.5802006765625Q5.37900474828125,8.5394670965625,5.34700059828125,8.4915695165625Q5.31499641828125,8.4436719165625,5.29295158828125,8.3904509665625Q5.27090674828125,8.3372300265625,5.25966840828125,8.2807309665625Q5.24843001828125,8.2242319175625,5.24843001828125,8.1666259765625Q5.24843001828125,8.1090200355625,5.25966834828125,8.0525209865625Q5.27090674828125,7.9960219265625,5.29295158828125,7.9428009865625Q5.31499641828125,7.8895800365625,5.34700059828125,7.8416824365625Q5.37900474828125,7.7937848565625,5.41973828828125,7.7530512765625Q5.46047186828125,7.7123177365625,5.50836944828125,7.6803135865625Q5.55626704828125,7.6483094065625,5.60948799828125,7.6262645765625Q5.66270893828125,7.6042197365625,5.71920799828125,7.5929813965625Q5.77570704728125,7.5817430065625,5.83331298828125,7.5817430065625Q5.85461525028125,7.5817430065625,5.87586107128125,7.5832926665625L8.12409808828125,7.5832926665625Q8.145343988281251,7.5817430065625,8.16664628828125,7.5817430065625Q8.22425218828125,7.5817430065625,8.28075098828125,7.5929813365625Q8.33725018828125,7.6042197365625,8.39047098828125,7.6262645765625Q8.44369198828125,7.6483094065625,8.49158958828125,7.6803135865625Q8.53948708828125,7.7123177365625,8.58022068828125,7.7530512765625Q8.62095398828125,7.7937848565625,8.65295838828125,7.8416824365625Q8.68496248828125,7.8895800365625,8.70700738828125,7.9428009865625Q8.72905258828125,7.9960219265625,8.74029088828125,8.0525209865625Q8.75152918828125,8.1090200355625,8.75152918828125,8.1666259765625Q8.75152918828125,8.2242319175625,8.74029068828125,8.2807309665625Q8.72905258828125,8.3372300265625,8.70700738828125,8.3904509665625Q8.68496248828125,8.4436719165625,8.65295838828125,8.4915695165625Q8.62095398828125,8.5394670965625,8.58022068828125,8.5802006765625Q8.53948708828125,8.6209342165625,8.49158958828125,8.6529383665625Q8.44369198828125,8.6849425465625,8.39047098828125,8.7069873765625Q8.33725018828125,8.7290322165625,8.28075098828125,8.7402705565625Q8.22425218828125,8.7515089465625,8.16664628828125,8.7515089465625Q8.145343988281251,8.7515089465625,8.12409808828125,8.7499592865625L5.87586107128125,8.7499592865625Z" fill-rule="evenodd" fill="#56C08D" fill-opacity="1"/><path d="M5.87586107128125,11.08333331Q5.85461525028125,11.08488297,5.83331298828125,11.08488297Q5.77570704728125,11.08488297,5.71920799828125,11.07364464Q5.66270893828125,11.06240624,5.60948799828125,11.0403614Q5.55626704828125,11.01831657,5.50836944828125,10.98631239Q5.46047186828125,10.95430824,5.41973828828125,10.9135747Q5.37900474828125,10.87284112,5.34700059828125,10.82494354Q5.31499641828125,10.77704594,5.29295158828125,10.72382499Q5.27090674828125,10.67060405,5.25966840828125,10.61410499Q5.24843001828125,10.557605941,5.24843001828125,10.5Q5.24843001828125,10.442394059,5.25966834828125,10.38589501Q5.27090674828125,10.32939595,5.29295158828125,10.27617501Q5.31499641828125,10.22295406,5.34700059828125,10.17505646Q5.37900474828125,10.12715888,5.41973828828125,10.0864253Q5.46047186828125,10.04569176,5.50836944828125,10.01368761Q5.55626704828125,9.98168343,5.60948799828125,9.9596386Q5.66270893828125,9.93759376,5.71920799828125,9.92635542Q5.77570704728125,9.91511703,5.83331298828125,9.91511703Q5.85461525028125,9.91511703,5.87586107128125,9.91666669L8.12409808828125,9.91666669Q8.145343988281251,9.91511703,8.16664628828125,9.91511703Q8.22425218828125,9.91511703,8.28075098828125,9.92635536Q8.33725018828125,9.93759376,8.39047098828125,9.9596386Q8.44369198828125,9.98168343,8.49158958828125,10.01368761Q8.53948708828125,10.04569176,8.58022068828125,10.0864253Q8.62095398828125,10.12715888,8.65295838828125,10.17505646Q8.68496248828125,10.22295406,8.70700738828125,10.27617501Q8.72905258828125,10.32939595,8.74029088828125,10.38589501Q8.75152918828125,10.442394059,8.75152918828125,10.5Q8.75152918828125,10.557605941,8.74029068828125,10.61410499Q8.72905258828125,10.67060405,8.70700738828125,10.72382499Q8.68496248828125,10.77704594,8.65295838828125,10.82494354Q8.62095398828125,10.87284112,8.58022068828125,10.9135747Q8.53948708828125,10.95430824,8.49158958828125,10.98631239Q8.44369198828125,11.01831657,8.39047098828125,11.0403614Q8.33725018828125,11.06240624,8.28075098828125,11.07364458Q8.22425218828125,11.08488297,8.16664628828125,11.08488297Q8.145343988281251,11.08488297,8.12409808828125,11.08333331L5.87586107128125,11.08333331Z" fill-rule="evenodd" fill="#56C08D" fill-opacity="1"/></g></svg>