<svg xmlns="http://www.w3.org/2000/svg" xmlns:xlink="http://www.w3.org/1999/xlink" fill="none" version="1.1" width="100" height="44" viewBox="0 0 100 44"><g style="opacity:0.20000000298023224;"><rect x="7.5" y="6.5" width="86" height="31" rx="15.5" fill-opacity="0" stroke-opacity="0.20000000298023224" stroke="#1B1B1B" fill="none" stroke-width="1"/></g><g><path d="M81.166992046875,21.83349609375Q81.166992046875,22.05443379375,81.156151046875,22.27510549375Q81.145309046875,22.49577709375,81.123655046875,22.715651493750002Q81.101999046875,22.93552409375,81.069580046875,23.154071093749998Q81.03716304687501,23.37261609375,80.99405904687501,23.58930909375Q80.950954046875,23.806001093749998,80.897272046875,24.020317093750002Q80.843590046875,24.23463409375,80.779455046875,24.44605809375Q80.715321046875,24.657482093749998,80.640888046875,24.865504093749998Q80.566456046875,25.07352609375,80.481907046875,25.27764609375Q80.397358046875,25.48176609375,80.302895046875,25.681492093750002Q80.208431046875,25.88121709375,80.104284046875,26.076067093749998Q80.00013304687499,26.27091609375,79.886549046875,26.46042109375Q79.772964046875,26.64992509375,79.650217046875,26.83362809375Q79.527470046875,27.017330093749997,79.395859046875,27.19478909375Q79.264246046875,27.372248093750002,79.124086046875,27.54303509375Q78.983925046875,27.71382209375,78.835551046875,27.87752609375Q78.687179046875,28.041229093749998,78.530952046875,28.19745609375Q78.374725046875,28.353681093749998,78.211021046875,28.502055093750002Q78.047317046875,28.65042709375,77.876532046875,28.79058909375Q77.705744046875,28.93075009375,77.528285046875,29.06236309375Q77.350825046875,29.19397309375,77.167123046875,29.31672109375Q76.983419046875,29.43946809375,76.793915046875,29.55305109375Q76.604410046875,29.66663709375,76.409561046875,29.77078609375Q76.21471204687501,29.87493509375,76.014987046875,29.96939609375Q75.815261046875,30.06386009375,75.611141046875,30.14841109375Q75.407021046875,30.23296009375,75.198999046875,30.30739209375Q74.990977046875,30.38182409375,74.779553046875,30.44595909375Q74.568129046875,30.51009409375,74.353813046875,30.56377809375Q74.139496046875,30.61746009375,73.922804046875,30.66056409375Q73.706112046875,30.70366709375,73.487566046875,30.73608409375Q73.269020046875,30.76850309375,73.049146646875,30.79015909375Q72.829273246875,30.81181309375,72.60860154687501,30.82265509375Q72.387929946875,30.83349609375,72.166992146875,30.83349609375Q71.946054446875,30.83349609375,71.725382846875,30.82265509375Q71.504711146875,30.81181309375,71.284837746875,30.79015909375Q71.06496424687501,30.76850309375,70.846417946875,30.73608409375Q70.627871046875,30.70366709375,70.41117854687499,30.66056209375Q70.194486146875,30.61745809375,69.980169746875,30.56377609375Q69.765853446875,30.51009409375,69.554429546875,30.44595909375Q69.343005146875,30.38182409375,69.134982546875,30.30739209375Q68.926959946875,30.23296009375,68.722840346875,30.14841109375Q68.518720646875,30.06386009375,68.318995446875,29.96939609375Q68.119270346875,29.87493509375,67.924420846875,29.77078609375Q67.729571346875,29.66663709375,67.540066746875,29.55305109375Q67.350562046875,29.43946809375,67.166859646875,29.31672109375Q66.983156646875,29.19397309375,66.805698146875,29.06236109375Q66.628239346875,28.93075009375,66.457452546875,28.79058809375Q66.286665446875,28.65042709375,66.122961246875,28.50205409375Q65.959257346875,28.353681093749998,65.803030946875,28.19745609375Q65.646804346875,28.041229093749998,65.498431946875,27.87752609375Q65.350059246875,27.71382209375,65.209897946875,27.54303509375Q65.069736646875,27.372248093750002,64.938124146875,27.19478909375Q64.806511846875,27.017330093749997,64.683765446875,26.83362809375Q64.561019146875,26.64992509375,64.447434446875,26.46042109375Q64.333849946875,26.27091609375,64.229700646875,26.07606609375Q64.125551346875,25.881216093749998,64.031088406875,25.681491093749997Q63.936625416875,25.48176609375,63.852076296875,25.27764509375Q63.767527106875,25.07352509375,63.693095506875,24.86550309375Q63.618663906875,24.657482093749998,63.554529126875,24.44605809375Q63.490394356875,24.23463409375,63.436710896875,24.020317093750002Q63.383027436875,23.80600009375,63.339924646875,23.58930809375Q63.296821866875,23.37261609375,63.264403588875,23.15407009375Q63.231985315875,22.93552409375,63.210329647875,22.71565059375Q63.188673976875,22.49577709375,63.177833080875,22.27510549375Q63.166992187495,22.05443379375,63.166992187495,21.83349609375Q63.166992187495,21.61255839375,63.177833078875,21.39188769375Q63.188673970875,21.17121509375,63.210329636875,20.95134159375Q63.231985300875,20.731467693749998,63.264403566875,20.51292179375Q63.296821836875,20.294375393750002,63.339924616875,20.07768299375Q63.383027386875,19.860990493750002,63.436710836875,19.646674193750002Q63.490394296875,19.43235779375,63.554529066875,19.22093439375Q63.618663846875,19.00950999375,63.693095446875,18.80148749375Q63.767527106875,18.59346489375,63.852076236875,18.38934519375Q63.936625356875,18.18522549375,64.031088356875,17.98549989375Q64.125551286875,17.78577519375,64.229700546875,17.590925693750002Q64.333849946875,17.39607569375,64.447434446875,17.20657109375Q64.561019146875,17.01706649375,64.683765446875,16.83336349375Q64.806511846875,16.64966059375,64.938124146875,16.47220209375Q65.069736646875,16.29474329375,65.209897946875,16.12395619375Q65.350059246875,15.95316939375,65.498431946875,15.78946539375Q65.646804346875,15.62576149375,65.803030946875,15.46953489375Q65.959257346875,15.31330849375,66.122961246875,15.16493579375Q66.286665246875,15.01656339375,66.457452346875,14.87640209375Q66.628239146875,14.73624059375,66.805697946875,14.604628193749999Q66.983156646875,14.47301579375,67.166859646875,14.35026929375Q67.350562546875,14.22752309375,67.540067146875,14.11393849375Q67.729571846875,14.00035379375,67.924421346875,13.89620459375Q68.119270846875,13.79205531375,68.318995946875,13.69759225375Q68.518721146875,13.60312932375,68.722840746875,13.51858019375Q68.926960946875,13.43403101375,69.13498304687499,13.35959941375Q69.343005646875,13.28516781375,69.554430046875,13.22103303375Q69.765853846875,13.15689826375,69.980170246875,13.10321480375Q70.194486646875,13.049531343750001,70.411179046875,13.00642854375Q70.627871546875,12.96332575375,70.846417946875,12.93090748775Q71.06496424687501,12.89848922175,71.284837746875,12.87683355075Q71.504711146875,12.85517787975,71.725382846875,12.84433698675Q71.946054446875,12.83349609375,72.166992146875,12.83349609375Q72.387929946875,12.83349609375,72.608600646875,12.84433698675Q72.829273246875,12.85517787975,73.049146646875,12.87683355075Q73.269020046875,12.89848922175,73.487566046875,12.93090748775Q73.706112046875,12.96332575375,73.922804046875,13.00642854375Q74.139496046875,13.049531343750001,74.353813046875,13.10321480375Q74.568130046875,13.15689826375,74.779554046875,13.22103303375Q74.990978046875,13.28516781375,75.199000046875,13.35959947375Q75.407021046875,13.43403101375,75.611141046875,13.51858019375Q75.815261046875,13.60312932375,76.014986046875,13.69759231375Q76.21471204687501,13.79205536375,76.409561046875,13.89620469375Q76.604410046875,14.00035389375,76.793915046875,14.11393859375Q76.983419046875,14.22752309375,77.167123046875,14.35026939375Q77.350825046875,14.47301579375,77.528284046875,14.60462809375Q77.705744046875,14.73624049375,77.876532046875,14.87640189375Q78.047317046875,15.01656319375,78.211021046875,15.16493579375Q78.374725046875,15.31330849375,78.530952046875,15.46953489375Q78.687179046875,15.62576149375,78.835551046875,15.78946539375Q78.983925046875,15.95316939375,79.124086046875,16.12395619375Q79.264246046875,16.29474329375,79.395859046875,16.47220179375Q79.527470046875,16.64966059375,79.650217046875,16.83336349375Q79.772964046875,17.017065993750002,79.886547046875,17.20657059375Q80.00013304687499,17.396075293750002,80.104284046875,17.59092519375Q80.208431046875,17.78577419375,80.302895046875,17.98549939375Q80.397358046875,18.18522449375,80.481907046875,18.38934469375Q80.566456046875,18.59346439375,80.640888046875,18.80148699375Q80.715321046875,19.00950999375,80.779457046875,19.22093439375Q80.843590046875,19.43235779375,80.897274046875,19.646674193750002Q80.950956046875,19.860990493750002,80.994060046875,20.07768299375Q81.03716304687501,20.294375393750002,81.069580046875,20.51292179375Q81.101999046875,20.73146819375,81.123655046875,20.95134259375Q81.145309046875,21.17121599375,81.156151046875,21.39188769375Q81.166992046875,21.61255839375,81.166992046875,21.83349609375ZM80.166992046875,21.83349609375Q80.166992046875,21.63710689375,80.15735604687501,21.440954193750002Q80.14772004687501,21.24480249375,80.128471046875,21.04935929375Q80.109222046875,20.853915193749998,80.080406046875,20.65965179375Q80.051588046875,20.46538829375,80.013275046875,20.27277329375Q79.974960046875,20.08015779375,79.927242046875,19.88965459375Q79.879524046875,19.69915099375,79.822515046875,19.51121899375Q79.765505046875,19.32328609375,79.699345046875,19.13837719375Q79.63318204687499,18.95346829375,79.558027046875,18.77202799375Q79.482872046875,18.59058859375,79.398905046875,18.41305489375Q79.314938046875,18.23552179375,79.22236204687499,18.06232259375Q79.129785046875,17.88912299375,79.028820046875,17.72067399375Q78.92785604687501,17.552225593750002,78.818748046875,17.38893409375Q78.709640046875,17.22564269375,78.592651046875,17.06790159375Q78.475663046875,16.91016049375,78.351076046875,16.75834989375Q78.226488046875,16.60653929375,78.094601046875,16.46102449375Q77.962713046875,16.31550979375,77.823846046875,16.17664169375Q77.684977046875,16.03777359375,77.539462046875,15.90588709375Q77.393948046875,15.77400019375,77.242137046875,15.64941259375Q77.09032604687499,15.524824593750001,76.932585046875,15.40783569375Q76.774843046875,15.29084679375,76.611552046875,15.18173909375Q76.44826004687499,15.072631093750001,76.279812046875,14.97166709375Q76.111364046875,14.870702993750001,75.938165046875,14.77812589375Q75.764965046875,14.68554879375,75.587431046875,14.60158159375Q75.409897046875,14.51761449375,75.228458046875,14.44245969375Q75.047018046875,14.36730489375,74.862110046875,14.30114339375Q74.677200046875,14.23498199375,74.489269046875,14.17797339375Q74.30133604687501,14.12096479375,74.110832046875,14.07324599375Q73.920329046875,14.02552749375,73.72771404687501,13.987213893749999Q73.53509804687499,13.94890019375,73.340836046875,13.92008399375Q73.146572146875,13.89126779375,72.951128946875,13.87201829375Q72.755685846875,13.85276879375,72.559533146875,13.84313249375Q72.363380446875,13.83349609375,72.166992146875,13.83349609375Q71.970602946875,13.83349609375,71.774450346875,13.84313249375Q71.578298546875,13.85276879375,71.382855446875,13.87201829375Q71.187412246875,13.89126779375,70.993148346875,13.92008399375Q70.798884846875,13.94890019375,70.606269346875,13.987213893749999Q70.41365384687501,14.02552749375,70.223150246875,14.07324599375Q70.03264714687501,14.12096469375,69.844714646875,14.17797339375Q69.656781646875,14.23498199375,69.471872846875,14.30114329375Q69.286963446875,14.36730479375,69.105524046875,14.44245959375Q68.924084146875,14.51761439375,68.746551046875,14.60158159375Q68.569017446875,14.68554869375,68.395818246875,14.77812579375Q68.22261814687499,14.870702693750001,68.054169646875,14.97166709375Q67.885721246875,15.07263089375,67.722429746875,15.18173889375Q67.559138346875,15.29084679375,67.401397246875,15.40783549375Q67.243656646875,15.52482439375,67.091845946875,15.64941239375Q66.94003534687499,15.77400019375,66.794520646875,15.90588669375Q66.649005846875,16.03777359375,66.510137746875,16.17664149375Q66.371269746875,16.31550959375,66.239382746875,16.46102429375Q66.107496246875,16.60653899375,65.982908246875,16.75834989375Q65.858320446875,16.91016049375,65.741331546875,17.06790159375Q65.624342946875,17.22564269375,65.515234946875,17.38893409375Q65.406127246875,17.552225593750002,65.305163146875,17.72067399375Q65.204199046875,17.88912299375,65.111621846875,18.06232259375Q65.019044646875,18.23552179375,64.935077646875,18.41305489375Q64.851110446875,18.59058859375,64.775955646875,18.77202799375Q64.700800846875,18.95346829375,64.634639546875,19.13837719375Q64.568478146875,19.32328609375,64.511469346875,19.51121859375Q64.454460646875,19.69915099375,64.406742046875,19.88965419375Q64.359023346875,20.08015779375,64.320709846875,20.27277329375Q64.282396346875,20.46538829375,64.253580046875,20.65965179375Q64.224763846875,20.853915193749998,64.205514446875,21.04935929375Q64.186264846875,21.24480249375,64.176628546875,21.440954193750002Q64.166992146875,21.63710689375,64.166992146875,21.83349609375Q64.166992146875,22.02988429375,64.176628546875,22.226037993749998Q64.186264846875,22.42218969375,64.205514446875,22.617633793750002Q64.224763846875,22.813075993749997,64.253580046875,23.007339093749998Q64.282396346875,23.201602093749997,64.320709846875,23.39421709375Q64.359023346875,23.586833093750002,64.406742046875,23.77733609375Q64.454460646875,23.96784009375,64.511469346875,24.15577309375Q64.568478146875,24.34370409375,64.634639546875,24.52861309375Q64.700800846875,24.71352209375,64.775955646875,24.89496209375Q64.851110446875,25.076403093750002,64.935077546875,25.25393609375Q65.019044646875,25.43147009375,65.111621846875,25.604669093749997Q65.204199046875,25.77786909375,65.305163146875,25.94631809375Q65.406127246875,26.11476509375,65.515234946875,26.27805709375Q65.624342946875,26.44134909375,65.741331546875,26.59909009375Q65.858320246875,26.75683209375,65.982908246875,26.90864409375Q66.107495746875,27.06045309375,66.239382746875,27.20596909375Q66.371269246875,27.35148209375,66.510137546875,27.49035109375Q66.649005446875,27.629219093750002,66.794520346875,27.76110509375Q66.940034846875,27.89299209375,67.091845746875,28.01758109375Q67.243656146875,28.14216809375,67.401397746875,28.259157093749998Q67.559138346875,28.37614509375,67.722429746875,28.48525309375Q67.885721246875,28.594361093750003,68.054169646875,28.69532509375Q68.22261814687499,28.796289093749998,68.395818246875,28.88886609375Q68.569017446875,28.98144109375,68.746550546875,29.06541109375Q68.924084146875,29.14937609375,69.105524046875,29.22453109375Q69.286963446875,29.29968609375,69.471872346875,29.36584809375Q69.656781146875,29.43201109375,69.844714146875,29.48901909375Q70.032646646875,29.54602809375,70.223150246875,29.59374609375Q70.413653346875,29.64146409375,70.606268846875,29.67977909375Q70.798884346875,29.71809409375,70.993147846875,29.74691009375Q71.187412246875,29.77572609375,71.382855446875,29.79497509375Q71.578298546875,29.81422409375,71.774451246875,29.82386009375Q71.970602946875,29.83349609375,72.166992146875,29.83349609375Q72.363380446875,29.83349609375,72.559533146875,29.82386009375Q72.755685846875,29.81422409375,72.951128046875,29.79497509375Q73.146572146875,29.77572609375,73.340835046875,29.74691009375Q73.53509804687499,29.71809409375,73.72771404687501,29.67977909375Q73.920329046875,29.64146409375,74.110832046875,29.59374609375Q74.30133604687501,29.54602809375,74.489269046875,29.48901909375Q74.677200046875,29.43201109375,74.862109046875,29.36584809375Q75.047018046875,29.29968609375,75.228458046875,29.22453109375Q75.409897046875,29.14937609375,75.587431046875,29.06541109375Q75.764965046875,28.98144109375,75.938165046875,28.88886609375Q76.111364046875,28.796289093749998,76.279812046875,28.69532409375Q76.44826004687499,28.594360093749998,76.611552046875,28.48525209375Q76.774843046875,28.37614409375,76.932585046875,28.25915609375Q77.09032604687499,28.14216809375,77.242137046875,28.01758009375Q77.393948046875,27.89299209375,77.539462046875,27.76110409375Q77.684977046875,27.62921709375,77.823845046875,27.49035009375Q77.962713046875,27.35148109375,78.094600046875,27.205968093750002Q78.22648704687501,27.06045309375,78.351075046875,26.90864309375Q78.475662046875,26.75683109375,78.592651046875,26.59909009375Q78.709640046875,26.44134809375,78.818748046875,26.27805709375Q78.92785604687501,26.11476509375,79.028820046875,25.94631709375Q79.129785046875,25.77786809375,79.22236204687499,25.604669093749997Q79.314938046875,25.43146909375,79.398907046875,25.253935093750002Q79.482872046875,25.076402093749998,79.558027046875,24.89496209375Q79.63318204687499,24.71352209375,79.699343046875,24.52861309375Q79.765503046875,24.34370409375,79.822514046875,24.155772093750002Q79.879520046875,23.96783909375,79.927240046875,23.77733609375Q79.974958046875,23.586832093749997,80.013273046875,23.39421609375Q80.051586046875,23.20160109375,80.080404046875,23.00733809375Q80.109220046875,22.813075993749997,80.128471046875,22.61763289375Q80.14772004687501,22.42218969375,80.15735604687501,22.22603699375Q80.166992046875,22.02988429375,80.166992046875,21.83349609375ZM72.166992146875,24.83349609375Q72.314373046875,24.83349609375,72.461043346875,24.81905009375Q72.60771374687499,24.80460309375,72.752262146875,24.77585009375Q72.896811446875,24.747099093750002,73.037845646875,24.704316093750002Q73.178880046875,24.661533093750002,73.315041046875,24.60513309375Q73.451203046875,24.54873409375,73.581181046875,24.479258093749998Q73.711159046875,24.409784093749998,73.833701046875,24.32790409375Q73.956244046875,24.246024093750002,74.070171046875,24.152527093750003Q74.184099046875,24.05903009375,74.288312046875,23.95481609375Q74.392527046875,23.85060309375,74.486023046875,23.73667609375Q74.579521046875,23.622749093750002,74.661400046875,23.500206093750002Q74.743280046875,23.37766409375,74.812756046875,23.24768409375Q74.882230046875,23.11770609375,74.93862904687501,22.98154409375Q74.995030046875,22.84538309375,75.037813046875,22.70434949375Q75.080595046875,22.563314393749998,75.109347046875,22.41876599375Q75.138101046875,22.274217593750002,75.152546046875,22.12754729375Q75.166992046875,21.98087689375,75.166992046875,21.83349609375Q75.166992046875,21.68611529375,75.152546046875,21.539443993749998Q75.138100046875,21.39277359375,75.109346046875,21.24822429375Q75.080595046875,21.10367579375,75.037813046875,20.96264169375Q74.995030046875,20.82160759375,74.93862904687501,20.68544479375Q74.882230046875,20.54928349375,74.812756046875,20.41930579375Q74.743280046875,20.289327593750002,74.661400046875,20.16678479375Q74.579521046875,20.04424289375,74.486024046875,19.93031599375Q74.392527046875,19.81638909375,74.288312046875,19.71217539375Q74.184099046875,19.60796169375,74.070172046875,19.51446489375Q73.956245046875,19.42096709375,73.833702046875,19.33908649375Q73.711160046875,19.257206893750002,73.581181046875,19.18773169375Q73.451203046875,19.11825749375,73.315041046875,19.06185679375Q73.178880046875,19.00545689375,73.037845646875,18.962674593750002Q72.896811446875,18.91989279375,72.752262146875,18.891139993750002Q72.60771374687499,18.86238769375,72.461043346875,18.84794189375Q72.314373046875,18.83349609375,72.166992146875,18.83349609375Q72.019611346875,18.83349609375,71.872940046875,18.84794189375Q71.72626874687501,18.86238769375,71.581720346875,18.891139993750002Q71.437171946875,18.91989279375,71.296137846875,18.96267509375Q71.155102746875,19.00545689375,71.018940446875,19.06185679375Q70.882779146875,19.11825749375,70.752801446875,19.18773219375Q70.622823746875,19.257206893750002,70.500280346875,19.33908699375Q70.377738446875,19.42096759375,70.263811546875,19.51446489375Q70.149885146875,19.60796169375,70.045670946875,19.71217539375Q69.941457746875,19.81638909375,69.84796044687499,19.93031599375Q69.754463146875,20.04424239375,69.672582646875,20.16678429375Q69.590702546875,20.28932719375,69.52122784687501,20.41930529375Q69.451753146875,20.54928349375,69.395352846875,20.68544479375Q69.338953046875,20.82160759375,69.296171146875,20.96264169375Q69.253388846875,21.10367579375,69.224636046875,21.24822429375Q69.195883746875,21.39277359375,69.181437446875,21.53944489375Q69.166992146875,21.68611529375,69.166992146875,21.83349609375Q69.166992146875,21.98087689375,69.181437946875,22.127548193750002Q69.195883746875,22.274217593750002,69.224635646875,22.41876599375Q69.253388446875,22.563314393749998,69.296171146875,22.70434949375Q69.338953446875,22.84538309375,69.395353346875,22.98154409375Q69.451753646875,23.11770609375,69.521228346875,23.24768409375Q69.590703046875,23.37766309375,69.672582646875,23.50020509375Q69.754463146875,23.622749093750002,69.84796044687499,23.73667509375Q69.941458246875,23.85060309375,70.045671446875,23.95481609375Q70.149885646875,24.05903009375,70.263812546875,24.152527093750003Q70.377738946875,24.246024093750002,70.500280846875,24.32790409375Q70.622823746875,24.409784093749998,70.752801846875,24.479259093750002Q70.882779646875,24.54873409375,71.018940946875,24.60513309375Q71.155103246875,24.661533093750002,71.296136846875,24.70431709375Q71.437171946875,24.747099093750002,71.581720346875,24.77585109375Q71.72626874687501,24.80460409375,71.872940046875,24.81905009375Q72.019611346875,24.83349609375,72.166992146875,24.83349609375Z" fill-rule="evenodd" fill="#1B1B1B" fill-opacity="1"/></g><rect x="50.5" y="12.5" width="0.5" height="18.5" rx="0" fill="#1B1B1B" fill-opacity="1" style="opacity:0.20000000298023224;"/><g><path d="M24.5,22.5Q24.5,22.5982537,24.4903696,22.6960342Q24.4807389,22.7938147,24.461570299999998,22.8901803Q24.4424019,22.9865463,24.4138803,23.0805693Q24.3853588,23.174592,24.3477585,23.2653666Q24.3101587,23.3561411,24.2638421,23.4427931Q24.2175257,23.5294452,24.1629386,23.6111398Q24.1083522,23.6928351,24.0460205,23.7687864Q23.9836893,23.8447375,23.9142132,23.9142132Q23.8447375,23.9836893,23.7687864,24.0460205Q23.6928351,24.1083522,23.6111398,24.1629386Q23.5294452,24.2175257,23.4427934,24.2638423Q23.3561411,24.3101587,23.2653666,24.3477588Q23.174592,24.385359,23.0805693,24.4138806Q22.9865463,24.4424021,22.8901803,24.461570299999998Q22.7938147,24.4807389,22.6960344,24.4903696Q22.5982537,24.5,22.5,24.5Q22.4017464,24.5,22.3039658,24.4903696Q22.2061851,24.4807389,22.1098193,24.461570299999998Q22.0134535,24.4424019,21.9194306,24.4138803Q21.8254076,24.3853588,21.734633,24.3477585Q21.6438584,24.3101587,21.5572064,24.2638421Q21.47055447,24.2175257,21.388859449999998,24.1629386Q21.30716455,24.1083522,21.23121345,24.0460205Q21.15526235,23.9836893,21.0857864,23.9142132Q21.01631057,23.8447375,20.9539791,23.7687864Q20.89164761,23.6928351,20.83706075,23.6111398Q20.78247392,23.5294452,20.73615746,23.4427934Q20.68984097,23.3561411,20.65224092,23.2653666Q20.61464086,23.174592,20.586119324,23.0805693Q20.557597782,22.9865463,20.538429435,22.8901803Q20.519261092,22.7938147,20.509630546,22.6960344Q20.5,22.5982537,20.5,22.5Q20.5,22.4017464,20.509630546,22.3039658Q20.519261092,22.2061851,20.538429435,22.1098193Q20.557597782,22.0134535,20.586119324,21.9194306Q20.61464086,21.8254076,20.65224092,21.734633Q20.68984097,21.6438584,20.73615745,21.5572064Q20.78247392,21.47055447,20.83706075,21.388859449999998Q20.89164761,21.30716455,20.95397907,21.23121345Q21.01631057,21.15526235,21.0857864,21.0857864Q21.15526235,21.01631057,21.23121345,20.9539791Q21.30716461,20.89164761,21.38885951,20.83706075Q21.47055447,20.78247392,21.5572064,20.73615746Q21.6438584,20.68984097,21.734633,20.65224092Q21.8254076,20.61464086,21.9194306,20.586119324Q22.0134535,20.557597782,22.1098193,20.538429435Q22.2061851,20.519261092,22.3039658,20.509630546Q22.4017464,20.5,22.5,20.5Q22.5982537,20.5,22.6960342,20.509630546Q22.7938147,20.519261092,22.8901803,20.538429435Q22.9865463,20.557597782,23.0805693,20.586119324Q23.174592,20.61464086,23.2653666,20.65224092Q23.3561411,20.68984097,23.4427931,20.73615745Q23.5294452,20.78247392,23.6111398,20.83706075Q23.6928351,20.89164761,23.7687864,20.95397907Q23.8447375,21.01631057,23.9142132,21.0857864Q23.9836893,21.15526235,24.0460205,21.23121345Q24.1083522,21.30716461,24.1629386,21.38885951Q24.2175257,21.47055447,24.2638423,21.5572064Q24.3101587,21.6438584,24.3477588,21.734633Q24.385359,21.8254076,24.4138806,21.9194306Q24.4424021,22.0134535,24.461570299999998,22.1098193Q24.4807389,22.2061851,24.4903696,22.3039658Q24.5,22.4017464,24.5,22.5ZM32,22.5Q32.000001,22.5982537,31.99037,22.6960342Q31.98074,22.7938147,31.961571,22.8901803Q31.942403,22.9865463,31.913881,23.0805693Q31.88536,23.174592,31.847759,23.2653666Q31.81016,23.3561411,31.763844,23.4427931Q31.717527,23.5294452,31.662939,23.6111398Q31.608353,23.6928351,31.546021,23.7687864Q31.48369,23.8447375,31.414213,23.9142132Q31.344738,23.9836893,31.268786,24.0460205Q31.192835000000002,24.1083522,31.111139,24.1629386Q31.029446,24.2175257,30.942793,24.2638423Q30.856141,24.3101587,30.765366,24.3477588Q30.674592,24.385359,30.580569,24.4138806Q30.4865465,24.4424021,30.3901796,24.461570299999998Q30.293815600000002,24.4807389,30.1960354,24.4903696Q30.0982542,24.5,30,24.5Q29.9017467,24.5,29.8039665,24.4903696Q29.7061863,24.4807389,29.6098194,24.461570299999998Q29.5134535,24.4424019,29.4194307,24.4138803Q29.325407,24.3853588,29.2346325,24.3477585Q29.143858,24.3101587,29.0572052,24.2638421Q28.970554399999997,24.2175257,28.8888588,24.1629386Q28.807164200000003,24.1083522,28.7312126,24.0460205Q28.655262,23.9836893,28.585785899999998,23.9142132Q28.5163107,23.8447375,28.453979,23.7687864Q28.3916473,23.6928351,28.33706,23.6111398Q28.2824736,23.5294452,28.2361574,23.4427934Q28.1898403,23.3561411,28.1522398,23.2653666Q28.1146402,23.174592,28.0861192,23.0805693Q28.0575972,22.9865463,28.0384288,22.8901803Q28.0192614,22.7938147,28.0096307,22.6960344Q28,22.5982537,28,22.5Q28,22.4017464,28.0096307,22.3039658Q28.0192614,22.2061851,28.0384288,22.1098193Q28.0575972,22.0134535,28.0861187,21.9194306Q28.1146402,21.8254076,28.1522398,21.734633Q28.1898403,21.6438584,28.2361569,21.5572064Q28.2824736,21.47055447,28.33706,21.388859449999998Q28.3916473,21.30716455,28.453979,21.23121345Q28.5163107,21.15526235,28.585785899999998,21.0857864Q28.655262,21.01631057,28.7312126,20.9539791Q28.807164200000003,20.89164761,28.8888588,20.83706075Q28.970554399999997,20.78247392,29.0572062,20.73615746Q29.143858,20.68984097,29.2346325,20.65224092Q29.325407,20.61464086,29.4194298,20.586119324Q29.5134535,20.557597782,29.6098194,20.538429435Q29.7061863,20.519261092,29.8039665,20.509630546Q29.9017467,20.5,30,20.5Q30.0982542,20.5,30.196034400000002,20.509630546Q30.293815600000002,20.519261092,30.3901796,20.538429435Q30.4865465,20.557597782,30.580569,20.586119324Q30.674592,20.61464086,30.765366,20.65224092Q30.856141,20.68984097,30.942793,20.73615745Q31.029446,20.78247392,31.11114,20.83706075Q31.192836,20.89164761,31.268787,20.95397907Q31.344738,21.01631057,31.414213,21.0857864Q31.48369,21.15526235,31.546021,21.23121345Q31.608353,21.30716461,31.662939,21.38885951Q31.717527,21.47055447,31.763843,21.5572064Q31.81016,21.6438584,31.847758,21.734633Q31.885359,21.8254076,31.913881,21.9194306Q31.942403,22.0134535,31.961571,22.1098193Q31.98074,22.2061851,31.99037,22.3039658Q32.000001,22.4017464,32,22.5ZM39,22.5Q39,22.5982537,38.99037,22.6960342Q38.98074,22.7938147,38.961571,22.8901803Q38.942402,22.9865463,38.913879,23.0805693Q38.885359,23.174592,38.847757,23.2653666Q38.810158,23.3561411,38.763842,23.4427931Q38.717524999999995,23.5294452,38.662937,23.6111398Q38.608351,23.6928351,38.546020999999996,23.7687864Q38.483688,23.8447375,38.414211,23.9142132Q38.344734,23.9836893,38.268784,24.0460205Q38.192833,24.1083522,38.111137,24.1629386Q38.029446,24.2175257,37.942793,24.2638423Q37.856139999999996,24.3101587,37.765366,24.3477588Q37.674591,24.385359,37.58057,24.4138806Q37.486546000000004,24.4424021,37.390179,24.461570299999998Q37.293816,24.4807389,37.196034999999995,24.4903696Q37.098255,24.5,37,24.5Q36.901748999999995,24.5,36.803967,24.4903696Q36.706184,24.4807389,36.609818000000004,24.461570299999998Q36.513453,24.4424019,36.41943,24.4138803Q36.325407,24.3853588,36.234632,24.3477585Q36.143858,24.3101587,36.057207,24.2638421Q35.970554,24.2175257,35.88886,24.1629386Q35.807165,24.1083522,35.731215,24.0460205Q35.655264,23.9836893,35.585786999999996,23.9142132Q35.516312,23.8447375,35.45398,23.7687864Q35.391649,23.6928351,35.337061,23.6111398Q35.282475,23.5294452,35.236158,23.4427934Q35.189841,23.3561411,35.15224,23.2653666Q35.114641,23.174592,35.086119,23.0805693Q35.057598,22.9865463,35.038429,22.8901803Q35.019262,22.7938147,35.009631,22.6960344Q35.000001,22.5982537,35,22.5Q35.000001,22.4017464,35.009631,22.3039658Q35.019262,22.2061851,35.038429,22.1098193Q35.057598,22.0134535,35.08612,21.9194306Q35.114641,21.8254076,35.15224,21.734633Q35.189840000000004,21.6438584,35.236157,21.5572064Q35.282474,21.47055447,35.337058999999996,21.388859449999998Q35.391647,21.30716455,35.453979000000004,21.23121345Q35.516311,21.15526235,35.585786,21.0857864Q35.655262,21.01631057,35.731213,20.9539791Q35.807164,20.89164761,35.888859,20.83706075Q35.970554,20.78247392,36.057204999999996,20.73615746Q36.143858,20.68984097,36.234632,20.65224092Q36.325407,20.61464086,36.41943,20.586119324Q36.513453,20.557597782,36.609818000000004,20.538429435Q36.706184,20.519261092,36.803967,20.509630546Q36.901748999999995,20.5,37,20.5Q37.098255,20.5,37.196033,20.509630546Q37.293816,20.519261092,37.390179,20.538429435Q37.486546000000004,20.557597782,37.580568,20.586119324Q37.674591,20.61464086,37.765366,20.65224092Q37.856139999999996,20.68984097,37.942795000000004,20.73615745Q38.029446,20.78247392,38.111139,20.83706075Q38.192837,20.89164761,38.268787,20.95397907Q38.344738,21.01631057,38.414213000000004,21.0857864Q38.483689999999996,21.15526235,38.546020999999996,21.23121345Q38.608353,21.30716461,38.662937,21.38885951Q38.717524999999995,21.47055447,38.763844,21.5572064Q38.810158,21.6438584,38.847757,21.734633Q38.885359,21.8254076,38.913879,21.9194306Q38.942402,22.0134535,38.961569,22.1098193Q38.98074,22.2061851,38.99037,22.3039658Q39,22.4017464,39,22.5ZM33,22.25L29.75,22.25" fill="#1B1B1B" fill-opacity="1"/></g></svg>