<svg xmlns="http://www.w3.org/2000/svg" xmlns:xlink="http://www.w3.org/1999/xlink" fill="none" version="1.1" width="13" height="13" viewBox="0 0 13 13"><defs><clipPath id="master_svg0_2_00220"><rect x="-0.5416666865348816" y="-0.5416666865348816" width="14.083333373069763" height="14.083333373069763" rx="0"/></clipPath></defs><g clip-path="url(#master_svg0_2_00220)"><path d="M8.666666507720947,4.333333197720947L8.666666507720947,9.208333507720948L8.668441307720947,9.208333507720948Q8.668441307720947,9.261507507720946,8.678815407720947,9.313660107720947Q8.689188907720947,9.365813707720946,8.709538007720948,9.414940807720948Q8.729887007720947,9.464067907720947,8.759429407720948,9.508280707720948Q8.788971407720947,9.552494007720949,8.826571907720947,9.590094607720946Q8.864172007720947,9.627694607720947,8.908384807720946,9.657237007720948Q8.952598107720947,9.686779007720947,9.001725207720948,9.707128007720947Q9.050852307720948,9.727477507720948,9.103005407720946,9.737851607720948Q9.155158507720948,9.748225707720948,9.208333507720948,9.748225707720948Q9.261507507720946,9.748225707720948,9.313660107720947,9.737851607720948Q9.365813707720946,9.727477507720948,9.414940807720948,9.707128507720947Q9.464067907720947,9.686779507720948,9.508280707720948,9.657236607720947Q9.552494007720949,9.627694607720947,9.590094607720946,9.590094607720946Q9.627694607720947,9.552494007720949,9.657237007720948,9.508281207720948Q9.686779007720947,9.464067907720947,9.707128007720947,9.414940807720948Q9.727477507720948,9.365813707720946,9.737851607720948,9.313660607720948Q9.748225707720948,9.261507507720946,9.748225707720948,9.208333507720948L9.750000507720948,9.208333507720948L9.750000507720948,3.7916665077209473Q9.750000507720948,3.7383169977209474,9.739592107720947,3.685992587720947Q9.729184107720947,3.6336681877209474,9.708767907720947,3.584379677720947Q9.688352107720947,3.5350911577209474,9.658712907720947,3.4907326677209474Q9.629073607720947,3.4463741777209473,9.591349607720947,3.4086503377209474Q9.553625607720948,3.3709265577209475,9.509266807720948,3.3412871677209472Q9.464908107720948,3.3116477777209474,9.415619807720947,3.2912318077209473Q9.366331107720947,3.2708158477209475,9.314006807720947,3.2604078077209473Q9.261682507720948,3.2499998777209473,9.208333507720948,3.2499998177209473L3.7916665077209473,3.2499998177209473L3.7916665077209473,3.2517744877209473Q3.7384917927209473,3.2517745477209474,3.686338807720947,3.2621483777209472Q3.6341858377209473,3.272522327720947,3.585058807720947,3.2928713877209472Q3.5359317677209474,3.3132204977209474,3.4917186177209474,3.3427627677209473Q3.447505447720947,3.372305037720947,3.409905227720947,3.409905227720947Q3.372305037720947,3.447505447720947,3.3427627677209473,3.491718587720947Q3.3132204977209474,3.5359317677209474,3.2928713877209472,3.585058807720947Q3.272522327720947,3.6341858377209473,3.2621483777209472,3.686338807720947Q3.2517745477209474,3.7384917927209473,3.2517744877209473,3.7916665077209473Q3.2517745477209474,3.844841222720947,3.2621483777209472,3.8969942077209474Q3.272522327720947,3.9491471777209473,3.2928713877209472,3.9982742077209474Q3.3132204977209474,4.047401247720948,3.3427627677209473,4.091614397720948Q3.372305037720947,4.1358275677209475,3.409905227720947,4.173427787720947Q3.447505447720947,4.211027977720947,3.491718587720947,4.240570247720948Q3.5359317677209474,4.270112517720947,3.585058807720947,4.290461627720947Q3.6341858377209473,4.310810687720947,3.686338807720947,4.321184637720947Q3.7384917927209473,4.3315584677209475,3.7916665077209473,4.331558527720947L3.7916665077209473,4.333333197720947L8.666666507720947,4.333333197720947Z" fill-rule="evenodd" fill="#22C55E" fill-opacity="1"/><path d="M9.590095007720947,4.1734279077209475Q9.666032307720947,4.097490847720947,9.707129007720948,3.9982742977209473Q9.748225707720948,3.8990577377209474,9.748225707720948,3.7916665077209473Q9.748225707720948,3.7384917927209473,9.737851607720948,3.686338807720947Q9.727477507720948,3.6341858377209473,9.707128507720947,3.585058807720947Q9.686779507720948,3.5359317677209474,9.657236607720947,3.4917186177209474Q9.627694607720947,3.447505447720947,9.590094607720946,3.409905227720947Q9.552494007720949,3.372305037720947,9.508281207720948,3.3427627677209473Q9.464067907720947,3.3132204977209474,9.414940807720948,3.2928713877209472Q9.365813707720946,3.272522327720947,9.313660607720948,3.2621483777209472Q9.261507507720946,3.2517745477209474,9.208333507720948,3.2517744877209473Q9.100942107720947,3.2517745477209474,9.001725707720947,3.292871327720947Q8.902508707720948,3.333968137720947,8.826571907720947,3.4099051077209475L8.825317407720947,3.4086503377209474L3.4086503377209474,8.825317407720947L3.4099051077209475,8.826571907720947Q3.333968137720947,8.902508707720948,3.292871327720947,9.001725207720948Q3.2517745477209474,9.100942107720947,3.2517744877209473,9.208333507720948Q3.2517745477209474,9.261507507720946,3.2621483777209472,9.313660107720947Q3.272522327720947,9.365813707720946,3.2928713877209472,9.414940807720948Q3.3132204977209474,9.464067907720947,3.3427627677209473,9.508280707720948Q3.372305037720947,9.552494007720949,3.409905227720947,9.590094607720946Q3.447505447720947,9.627694607720947,3.491718587720947,9.657237007720948Q3.5359317677209474,9.686779007720947,3.585058807720947,9.707128007720947Q3.6341858377209473,9.727477507720948,3.686338807720947,9.737851607720948Q3.7384917927209473,9.748225707720948,3.7916665077209473,9.748225707720948Q3.8990577377209474,9.748225707720948,3.9982742977209473,9.707129007720948Q4.097490847720947,9.666032307720947,4.1734279077209475,9.590095007720947L4.174682677720948,9.591349607720947L9.591349607720947,4.174682677720948L9.590095007720947,4.1734279077209475Z" fill-rule="evenodd" fill="#22C55E" fill-opacity="1"/></g></svg>