<svg xmlns="http://www.w3.org/2000/svg" xmlns:xlink="http://www.w3.org/1999/xlink" fill="none" version="1.1" width="16" height="16" viewBox="0 0 16 16"><path d="M8,15C4.1340332,15,1,11.865967,1,8C1,4.1340332,4.1340332,1,8,1C11.865967,1,15,4.1340332,15,8C15,11.865967,11.865967,15,8,15ZM8,2C4.6862793,2,2,4.6862793,2,8C2,11.313721,4.6862793,14,8,14C11.313721,14,14,11.313721,14,8C14,4.6862793,11.313721,2,8,2ZM8.5998535,5.1999512L8.5998535,4L7.3999023,4L7.3999023,5.1999512L8.5998535,5.1999512ZM8.505615200000001,11.999756L7.5056152,11.999756L7.5056152,6.5L8.505615200000001,6.5L8.505615200000001,11.999756Z" fill-rule="evenodd" fill="#202020" fill-opacity="0.5"/></svg>