<svg xmlns="http://www.w3.org/2000/svg" xmlns:xlink="http://www.w3.org/1999/xlink" fill="none" version="1.1" width="13.31" height="12.76" viewBox="0 0 13.314208984375 12.762451171875"><g><path d="M6.6571002,12.7624Q6.8205228,12.7624,6.9837484,12.754713Q7.1469746,12.747026,7.3096104,12.731673Q7.4722462,12.716318,7.6338997,12.693333Q7.7955532,12.670347,7.9558363,12.639786Q8.1161184,12.609225,8.2746439,12.571162Q8.4331684,12.5331,8.5895548,12.487627Q8.7459412,12.442154,8.8998098,12.38938Q9.0536795,12.336606,9.2046623,12.276659Q9.3556452,12.216711,9.5033779,12.149735Q9.6511097,12.082759,9.7952366,12.008915Q9.9393616,11.93507,10.079535,11.854536Q10.219706,11.774002,10.355587,11.686973Q10.491467,11.599943,10.622729,11.506627Q10.753992,11.413311,10.88032,11.313934Q11.006647,11.214556,11.127735,11.109356Q11.248823,11.004156,11.364381,10.893389Q11.479938,10.78262,11.589685,10.666552Q11.699433,10.550482,11.803108,10.42939Q11.906782,10.308297,12.004133,10.182474Q12.101483,10.056652,12.192276,9.926403Q12.283069,9.7961531,12.367085,9.6617899Q12.451101,9.5274277,12.528138,9.3892746Q12.605175,9.2511215,12.675047,9.1095123Q12.744919,8.9679031,12.807458,8.8231783Q12.869997,8.6784525,12.925052,8.5309601Q12.980107,8.3834677,13.027547,8.2335634Q13.074986,8.0836592,13.114695,7.931704Q13.154402,7.7797489,13.186285,7.6261091Q13.218167,7.4724693,13.242146,7.3175159Q13.266127,7.1625619,13.282145,7.0066667Q13.298162,6.850771,13.306182,6.6943102Q13.3142,6.5378494,13.3142,6.3811998Q13.3142,6.2245502,13.306182,6.068089Q13.298162,5.9116282,13.282145,5.755733Q13.266127,5.5998373,13.242147,5.4448833Q13.218167,5.2899289,13.186285,5.1362891Q13.154402,4.9826498,13.114694,4.8306947Q13.074986,4.6787395,13.027547,4.5288353Q12.980107,4.3789306,12.925052,4.2314377Q12.869996,4.0839453,12.807457,3.9392202Q12.744919,3.7944949,12.675046,3.6528854Q12.605174,3.5112758,12.528137,3.3731232Q12.451099,3.2349703,12.367085,3.1006074Q12.283068,2.9662442,12.192275,2.835995Q12.101482,2.7057457,12.004133,2.5799234Q11.906782,2.4541013,11.803108,2.3330095Q11.699433,2.2119176,11.589685,2.0958478Q11.479938,1.9797781,11.364381,1.8690101Q11.248823,1.7582421,11.127735,1.6530426Q11.006647,1.5478432,10.880321,1.4484657Q10.753992,1.3490882,10.62273,1.2557721Q10.491467,1.1624559,10.355587,1.075426Q10.219706,0.98839605,10.079535,0.90786207Q9.9393616,0.82732809,9.7952366,0.75348401Q9.6511097,0.67963982,9.503377,0.61266345Q9.3556442,0.54568708,9.2046614,0.48573986Q9.0536785,0.42579263,8.8998089,0.37301895Q8.7459402,0.32024527,8.5895548,0.27477229Q8.4331684,0.22929929,8.2746429,0.19123653Q8.1161184,0.15317377,7.9558358,0.12261295Q7.7955532,0.092052117,7.6338997,0.069066845Q7.4722457,0.046081569,7.3096104,0.030727219Q7.1469746,0.015372868,6.9837489,0.0076864338Q6.8205228,0,6.6571002,0Q6.4936776,0,6.330452,0.0076864338Q6.1672258,0.015372868,6.00459,0.030727219Q5.8419542,0.046081569,5.6803002,0.069066837Q5.5186467,0.092052117,5.3583641,0.12261295Q5.198082,0.15317377,5.0395565,0.19123653Q4.8810315,0.22929929,4.7246456,0.27477229Q4.5682602,0.32024527,4.4143906,0.37301895Q4.2605209,0.42579263,4.1095381,0.48573986Q3.958555,0.54568708,3.810823,0.61266345Q3.6630905,0.67963982,3.5189648,0.75348395Q3.3748388,0.82732809,3.2346663,0.90786207Q3.0944941,0.98839605,2.9586132,1.075426Q2.8227322,1.1624559,2.6914701,1.255772Q2.5602078,1.3490882,2.4338803,1.4484657Q2.3075531,1.5478432,2.1864648,1.6530426Q2.0653768,1.7582421,1.9498194,1.8690101Q1.8342621,1.9797781,1.7245144,2.0958478Q1.6147664,2.2119176,1.5110922,2.3330095Q1.407418,2.4541013,1.3100672,2.5799234Q1.2127163,2.7057457,1.1219236,2.835995Q1.0311308,2.9662442,0.94711483,3.1006072Q0.86309874,3.2349701,0.78606194,3.3731229Q0.70902503,3.5112755,0.63915282,3.652885Q0.56928062,3.7944946,0.50674152,3.93922Q0.44420239,4.0839453,0.38914698,4.2314382Q0.33409154,4.3789306,0.28665248,4.5288353Q0.23921338,4.6787395,0.19950493,4.8306942Q0.15979646,4.9826498,0.12791429,5.1362891Q0.096032128,5.2899289,0.072053052,5.4448833Q0.04807397,5.5998373,0.032055754,5.755733Q0.016037535,5.9116282,0.0080187675,6.0680895Q0,6.2245502,0,6.3811998Q0,6.5378494,0.0080187675,6.6943102Q0.016037535,6.8507714,0.032055754,7.0066671Q0.04807397,7.1625624,0.072053045,7.3175159Q0.096032128,7.4724693,0.12791429,7.6261091Q0.15979646,7.7797489,0.19950491,7.9317045Q0.23921338,8.0836601,0.28665248,8.2335644Q0.33409154,8.3834686,0.38914698,8.5309601Q0.44420239,8.6784525,0.50674152,8.8231783Q0.56928062,8.9679031,0.63915288,9.1095123Q0.70902503,9.2511225,0.78606194,9.3892756Q0.86309886,9.5274277,0.94711483,9.6617908Q1.0311309,9.7961531,1.1219237,9.926403Q1.2127163,10.056652,1.3100672,10.182474Q1.407418,10.308297,1.5110922,10.42939Q1.6147664,10.550482,1.7245144,10.666551Q1.8342621,10.78262,1.9498194,10.893389Q2.0653768,11.004156,2.186465,11.109356Q2.3075533,11.214556,2.4338806,11.313934Q2.5602078,11.413311,2.6914701,11.506627Q2.8227324,11.599943,2.9586134,11.686973Q3.0944943,11.774002,3.2346668,11.854536Q3.3748388,11.93507,3.5189648,12.008915Q3.6630905,12.082759,3.810823,12.149735Q3.958555,12.216711,4.1095381,12.276659Q4.2605209,12.336606,4.4143906,12.38938Q4.5682602,12.442154,4.7246461,12.487627Q4.881032,12.5331,5.0395565,12.571163Q5.198082,12.609225,5.3583641,12.639786Q5.5186467,12.670347,5.6803007,12.693333Q5.8419542,12.716318,6.00459,12.731673Q6.1672258,12.747026,6.3304515,12.754713Q6.4936776,12.7624,6.6571002,12.7624ZM6.6570272,11.602279Q6.7907362,11.602278,6.924284,11.595989Q7.0578318,11.589701,7.190897,11.577139Q7.3239617,11.564575,7.4562235,11.545769Q7.5884848,11.526962,7.7196245,11.501958Q7.8507643,11.476954,7.9804659,11.445811Q8.1101685,11.414669,8.2381201,11.377464Q8.3660707,11.340259,8.4919634,11.29708Q8.617857,11.253901,8.7413883,11.204852Q8.8649197,11.155805,8.9857903,11.101006Q9.1066628,11.046207,9.2245836,10.98579Q9.3425045,10.925372,9.4571905,10.85948Q9.5718765,10.793589,9.6830511,10.722382Q9.7942257,10.651175,9.9016209,10.574825Q10.009018,10.498476,10.112377,10.417167Q10.215735,10.335857,10.314807,10.249784Q10.413879,10.163712,10.508426,10.073083Q10.602972,9.9824543,10.692765,9.8874874Q10.782559,9.7925205,10.867384,9.6934452Q10.952208,9.5943699,11.031858,9.4914236Q11.111507,9.3884783,11.185793,9.2819099Q11.260077,9.1753416,11.328817,9.0654087Q11.397558,8.9554749,11.460588,8.8424416Q11.523618,8.7294064,11.580786,8.6135435Q11.637953,8.4976807,11.689121,8.3792686Q11.74029,8.2608566,11.785335,8.1401806Q11.830379,8.0195045,11.869194,7.8968549Q11.908008,7.7742052,11.940496,7.649878Q11.972984,7.5255508,11.999069,7.3998446Q12.025155,7.2741389,12.044775,7.1473579Q12.064394,7.020577,12.077501,6.8930264Q12.090607,6.7654753,12.097166,6.6374612Q12.103727,6.5094471,12.103727,6.3812785Q12.103727,6.2531099,12.097166,6.1250958Q12.090607,5.9970822,12.077501,5.8695312Q12.064394,5.7419796,12.044775,5.6151981Q12.025156,5.4884171,11.99907,5.3627114Q11.972984,5.2370057,11.940496,5.1126785Q11.908008,4.9883513,11.869194,4.8657022Q11.830379,4.7430525,11.785336,4.6223764Q11.74029,4.5017004,11.689121,4.3832879Q11.637953,4.2648754,11.580785,4.149013Q11.523617,4.0331502,11.460588,3.9201157Q11.397557,3.8070812,11.328816,3.6971476Q11.260077,3.5872138,11.185792,3.4806457Q11.111507,3.3740776,11.031857,3.2711318Q10.952207,3.1681862,10.867383,3.0691109Q10.782558,2.9700353,10.692764,2.8750689Q10.602971,2.7801023,10.508425,2.6894736Q10.413877,2.598845,10.314806,2.5127726Q10.215734,2.4266999,10.112376,2.3453908Q10.009018,2.2640815,9.9016209,2.1877317Q9.7942247,2.111382,9.6830502,2.0401754Q9.5718756,1.9689689,9.4571896,1.9030771Q9.3425045,1.8371854,9.2245836,1.7767673Q9.1066628,1.7163491,8.9857912,1.6615502Q8.8649197,1.606751,8.7413883,1.5577031Q8.617857,1.5086552,8.4919634,1.4654766Q8.3660707,1.4222981,8.2381201,1.3850929Q8.1101685,1.3478875,7.9804659,1.3167453Q7.8507643,1.2856028,7.7196245,1.2605984Q7.5884848,1.235594,7.4562235,1.2167878Q7.3239617,1.1979816,7.190897,1.185419Q7.0578318,1.1728561,6.924284,1.1665672Q6.7907362,1.1602783,6.6570272,1.1602783Q6.5233183,1.1602783,6.3897705,1.1665672Q6.2562227,1.1728561,6.1231575,1.185419Q5.9900918,1.1979816,5.8578296,1.2167878Q5.7255678,1.235594,5.5944281,1.2605984Q5.4632883,1.2856028,5.3335862,1.3167452Q5.2038846,1.3478875,5.0759335,1.3850929Q4.9479818,1.4222981,4.8220887,1.4654766Q4.6961956,1.5086552,4.5726647,1.5577031Q4.4491339,1.606751,4.3282623,1.66155Q4.2073908,1.7163491,4.0894699,1.7767673Q3.971549,1.8371854,3.856863,1.9030771Q3.742177,1.9689687,3.6310022,2.0401752Q3.5198274,2.111382,3.4124315,2.1877317Q3.3050354,2.2640815,3.2016771,2.3453908Q3.0983186,2.4266999,2.9992466,2.5127726Q2.9001746,2.598845,2.8056283,2.6894736Q2.7110815,2.7801023,2.6212883,2.8750689Q2.5314949,2.9700353,2.446671,3.0691109Q2.3618469,3.1681862,2.2821963,3.271132Q2.2025459,3.3740778,2.1282611,3.4806459Q2.0539763,3.587214,1.9852363,3.6971474Q1.916496,3.8070812,1.8534663,3.9201159Q1.7904363,4.0331502,1.7332683,4.149013Q1.6761005,4.2648754,1.6249323,4.3832879Q1.5737641,4.5017004,1.5287188,4.6223764Q1.4836737,4.7430525,1.4448601,4.8657022Q1.4060464,4.9883513,1.3735578,5.1126785Q1.3410691,5.2370057,1.3149838,5.3627114Q1.2888985,5.4884171,1.2692795,5.6151986Q1.2496603,5.7419796,1.2365545,5.8695307Q1.2234488,5.9970818,1.216888,6.1250963Q1.2103271,6.2531099,1.2103271,6.3812785Q1.2103271,6.5094471,1.216888,6.6374607Q1.2234488,6.7654748,1.2365545,6.8930259Q1.2496603,7.0205765,1.2692794,7.1473579Q1.2888985,7.2741385,1.3149838,7.3998442Q1.3410691,7.5255499,1.3735577,7.6498771Q1.4060464,7.7742047,1.44486,7.8968544Q1.4836736,8.0195045,1.5287189,8.1401806Q1.5737641,8.2608566,1.6249323,8.3792677Q1.6761005,8.4976807,1.7332684,8.6135435Q1.7904364,8.7294064,1.8534665,8.8424416Q1.9164965,8.9554749,1.9852366,9.0654078Q2.0539768,9.1753416,2.1282616,9.2819099Q2.2025464,9.3884783,2.2821965,9.4914246Q2.3618469,9.5943699,2.446671,9.6934462Q2.5314951,9.7925205,2.6212885,9.8874874Q2.711082,9.9824543,2.8056285,10.073083Q2.9001751,10.163712,2.9992468,10.249784Q3.0983186,10.335857,3.2016771,10.417167Q3.3050356,10.498475,3.4124315,10.574825Q3.5198274,10.651175,3.6310024,10.722381Q3.7421772,10.793587,3.8568635,10.859479Q3.9715495,10.925371,4.0894704,10.985789Q4.2073908,11.046207,4.3282623,11.101007Q4.4491339,11.155806,4.5726647,11.204853Q4.6961956,11.253901,4.8220887,11.297081Q4.9479818,11.34026,5.0759335,11.377465Q5.2038846,11.41467,5.3335862,11.445812Q5.4632883,11.476954,5.5944281,11.501959Q5.7255678,11.526963,5.8578296,11.545769Q5.9900913,11.564575,6.123157,11.577138Q6.2562222,11.589701,6.3897705,11.595989Q6.5233183,11.602278,6.6570272,11.602279Z" fill-rule="evenodd" fill="#366FFF" fill-opacity="1"/></g></svg>