<svg xmlns="http://www.w3.org/2000/svg" xmlns:xlink="http://www.w3.org/1999/xlink" fill="none" version="1.1" width="9" height="9" viewBox="0 0 9 9"><defs><clipPath id="master_svg0_2_9183"><rect x="-0.375" y="-0.375" width="9.75" height="9.75" rx="0"/></clipPath></defs><g clip-path="url(#master_svg0_2_9183)"><path d="M2.62507498,0.75Q2.62507498,0.713073108,2.6322791,0.676855758Q2.6394831500000002,0.64063841,2.65361446,0.60652241Q2.66774577,0.57240641,2.68826127,0.54170284Q2.7087767400000002,0.51099925,2.73488799,0.48488799Q2.76099925,0.45877674,2.79170284,0.43826127Q2.82240641,0.41774577,2.85652241,0.40361446Q2.89063841,0.38948315,2.926855758,0.3822791Q2.963073108,0.37507498,3,0.37507498Q3.036926892,0.37507498,3.073144242,0.3822791Q3.10936159,0.38948315,3.14347759,0.40361446Q3.17759359,0.41774577,3.20829716,0.43826127Q3.23900075,0.45877674,3.26511201,0.48488799Q3.2912232599999998,0.51099925,3.31173873,0.54170284Q3.33225423,0.57240641,3.34638554,0.60652241Q3.3605168499999998,0.64063841,3.3677209,0.676855758Q3.37492502,0.713073108,3.37492502,0.75L3.375,0.75L3.375,2.25L3.37492502,2.25Q3.37492502,2.2869267,3.3677209,2.3231441Q3.3605168499999998,2.3593614,3.34638554,2.3934774Q3.33225423,2.4275935,3.31173873,2.458297Q3.2912232599999998,2.4890006,3.26511201,2.5151119Q3.23900075,2.541223,3.20829716,2.5617384999999997Q3.17759359,2.5822539,3.14347759,2.5963852000000003Q3.10936159,2.6105167,3.073144242,2.6177207Q3.036926892,2.6249249,3,2.624925Q2.963073108,2.6249249,2.926855758,2.6177208Q2.89063841,2.6105168,2.85652241,2.5963854Q2.82240641,2.5822541,2.79170284,2.5617384999999997Q2.76099925,2.541223,2.73488799,2.5151119Q2.7087767400000002,2.4890006,2.68826127,2.458297Q2.66774577,2.4275935,2.65361446,2.3934774Q2.6394831500000002,2.3593614,2.6322791,2.3231441Q2.62507498,2.2869267,2.62507498,2.25L2.625,2.25L2.625,0.75L2.62507498,0.75Z" fill-rule="evenodd" fill="#8898B4" fill-opacity="1"/><path d="M5.62507498,0.75Q5.62507498,0.713073108,5.6322791,0.676855758Q5.63948315,0.64063841,5.65361446,0.60652241Q5.66774577,0.57240641,5.68826127,0.54170284Q5.70877674,0.51099925,5.73488799,0.48488799Q5.76099925,0.45877674,5.79170284,0.43826127Q5.82240641,0.41774577,5.85652241,0.40361446Q5.89063841,0.38948315,5.926855758,0.3822791Q5.963073108,0.37507498,6,0.37507498Q6.036926892,0.37507498,6.073144242,0.3822791Q6.10936159,0.38948315,6.14347759,0.40361446Q6.17759359,0.41774577,6.20829716,0.43826127Q6.23900075,0.45877674,6.26511201,0.48488799Q6.29122326,0.51099925,6.31173873,0.54170284Q6.33225423,0.57240641,6.34638554,0.60652241Q6.36051685,0.64063841,6.3677209,0.676855758Q6.37492502,0.713073108,6.37492502,0.75L6.375,0.75L6.375,2.25L6.37492502,2.25Q6.37492502,2.2869267,6.3677209,2.3231441Q6.36051685,2.3593614,6.34638554,2.3934774Q6.33225423,2.4275935,6.31173873,2.458297Q6.29122326,2.4890006,6.26511201,2.5151119Q6.23900075,2.541223,6.20829716,2.5617384999999997Q6.17759359,2.5822539,6.14347759,2.5963852000000003Q6.10936159,2.6105167,6.073144242,2.6177207Q6.036926892,2.6249249,6,2.624925Q5.963073108,2.6249249,5.926855758,2.6177208Q5.89063841,2.6105168,5.85652241,2.5963854Q5.82240641,2.5822541,5.79170284,2.5617384999999997Q5.76099925,2.541223,5.73488799,2.5151119Q5.70877674,2.4890006,5.68826127,2.458297Q5.66774577,2.4275935,5.65361446,2.3934774Q5.63948315,2.3593614,5.6322791,2.3231441Q5.62507498,2.2869267,5.62507498,2.25L5.625,2.25L5.625,0.75L5.62507498,0.75Z" fill-rule="evenodd" fill="#8898B4" fill-opacity="1"/><path d="M1.079504848,1.454504848Q0.75,1.78400967,0.75,2.25L0.7500000600000001,7.5000014Q0.75000003,7.965991,1.079505075,8.295495500000001Q1.40901023,8.625,1.875,8.625L7.1250014,8.625Q7.5909905,8.625,7.9204955,8.295494999999999Q8.25,7.9659901,8.25,7.5L8.25,2.25Q8.25,1.7840094899999999,7.9204955,1.454504874Q7.5909905,1.125,7.125,1.125L1.87500006,1.12500006Q1.40900967,1.12500003,1.079504848,1.454504848ZM1.50000006,7.5000014L1.5,2.25Q1.5,2.09466988,1.60983494,1.98483494Q1.71966982,1.87500003,1.87499994,1.87500006L7.125,1.875Q7.5,1.875,7.5,2.25L7.5,7.5Q7.5,7.875,7.1250014,7.875L1.875,7.875Q1.71966976,7.875,1.60983473,7.7651649Q1.50000003,7.6553307,1.50000006,7.5000014Z" fill-rule="evenodd" fill="#8898B4" fill-opacity="1"/><path d="M1.125,4.125L7.875,4.125L7.875,4.12492502Q7.9119263,4.12492502,7.9481435,4.1177209Q7.9843607,4.11051685,8.0184765,4.09638554Q8.0525923,4.08225423,8.0832963,4.06173873Q8.1140003,4.04122326,8.1401114,4.01511201Q8.166222600000001,3.98900075,8.186738,3.95829716Q8.2072535,3.92759359,8.2213845,3.89347759Q8.2355161,3.85936159,8.2427201,3.823144242Q8.249924700000001,3.786926892,8.249925099999999,3.75Q8.249924700000001,3.713073108,8.2427206,3.676855758Q8.2355165,3.64063841,8.221385,3.60652241Q8.2072535,3.57240641,8.186738,3.54170284Q8.166222600000001,3.51099925,8.1401119,3.48488799Q8.1140003,3.4587767400000002,8.0832968,3.43826127Q8.0525932,3.41774577,8.018477,3.40361446Q7.9843607,3.3894831500000002,7.948144,3.3822791Q7.9119263,3.37507498,7.875,3.37507498L7.875,3.375L1.125,3.375L1.125,3.37507498Q1.088073108,3.37507498,1.051855758,3.3822791Q1.01563841,3.3894831500000002,0.98152241,3.40361446Q0.94740641,3.41774577,0.91670284,3.43826127Q0.88599925,3.4587767400000002,0.85988799,3.48488799Q0.83377674,3.51099925,0.8132612699999999,3.54170284Q0.79274577,3.57240641,0.77861446,3.60652241Q0.76448315,3.64063841,0.7572791,3.676855758Q0.75007498,3.713073108,0.75007498,3.75Q0.75007498,3.786926892,0.7572791,3.823144242Q0.76448315,3.85936159,0.77861446,3.89347759Q0.79274577,3.92759359,0.8132612699999999,3.95829716Q0.83377674,3.98900075,0.85988799,4.01511201Q0.88599925,4.04122326,0.91670284,4.06173873Q0.94740641,4.08225423,0.98152241,4.09638554Q1.01563841,4.11051685,1.051855758,4.1177209Q1.088073108,4.12492502,1.125,4.12492502L1.125,4.125Z" fill-rule="evenodd" fill="#8898B4" fill-opacity="1"/></g></svg>