<svg xmlns="http://www.w3.org/2000/svg" xmlns:xlink="http://www.w3.org/1999/xlink" fill="none" version="1.1" width="219" height="30" viewBox="0 0 219 30"><path d="M0,0C0,0,219,0,219,0C219,0,219,0,219,0C216.894,0.60268903,215.418,2.49525,215.345,4.6844602C215.345,4.6844602,215.317,5.5618,215.317,5.5618C215.317,5.5618,215.317,5.5618,215.317,5.5618C215.317,19.058701,204.375,30,190.87801,30C190.87801,30,28.1217,30,28.1217,30C14.6249,30,3.68349,19.058701,3.68349,5.5618C3.68349,5.5618,3.68349,5.5618,3.68349,5.5618C3.68349,5.5618,3.6545501,4.6844702,3.6545501,4.6844702C3.58233,2.49525,2.10586,0.60268903,0,0C0,0,0,0,0,0C0,0,0,0,0,0Z" fill="#1B1B1B" fill-opacity="1"/></svg>