<svg xmlns="http://www.w3.org/2000/svg" xmlns:xlink="http://www.w3.org/1999/xlink" fill="none" version="1.1" width="70" height="20" viewBox="0 0 70 20"><defs><clipPath id="master_svg0_2_04457/2_03817"><rect x="0" y="0" width="70" height="20" rx="0"/></clipPath></defs><g clip-path="url(#master_svg0_2_04457/2_03817)"><g style="opacity:0.3499999940395355;"><path d="M48.6694918,5.33349609375L65.330509,5.33349609375C66.80327,5.33349609375,68,6.52591999375,68,7.9986795937499995L68,14.00164599375C68,15.47440409375,66.80327,16.66683009375,65.330511,16.66683009375L48.6694911,16.66682909375C47.1967322,16.66683009375,46,15.47440409375,46,14.00164509375L46,7.99867939375C46,6.52591999375,47.1967322,5.33349609375,48.6694918,5.33349609375ZM48.6694918,6.33349619375Q47.978071,6.33349619375,47.4887785,6.82169829375Q47,7.3093872937499995,47,7.99867939375L47,14.00164319375Q47,14.69093699375,47.4887791,15.17862699375Q47.978071,15.66682909375,48.6694911,15.66682909375L57.000009,15.66682909375L65.33051499999999,15.66683009375Q66.021931,15.66683009375,66.511223,15.17862799375Q67,14.69093699375,67,14.00164599375L67,7.9986795937499995Q67,7.30938649375,66.511223,6.82169799375Q66.021931,6.33349609375,65.330509,6.33349609375L57.000001,6.33349609375L48.6694918,6.33349619375Z" fill-rule="evenodd" fill="#1B1B1B" fill-opacity="1"/></g><path d="M69,9C69,9,69,13,69,13C69.80473113,12.6612234,70.328038,11.8731332,70.328038,11C70.328038,10.1268667,69.80473113,9.33877653,69,9Z" fill="#1B1B1B" fill-opacity="1" style="opacity:0.4000000059604645;"/><path d="M49.0935001,7.33349609375C52.3065004,7.33349609375,61.693501,7.33349609375,64.9065,7.33349609375C65.514013,7.33349609375,66,7.82068693375,66,8.42820029375C66,9.81379199375,66,12.18653389375,66,13.57212539375C66,14.17963929375,65.514013,14.66683009375,64.9065,14.66683009375C61.6935,14.66682959375,52.3064995,14.66682959375,49.0934997,14.66682959375C48.48598659,14.66683009375,48,14.17963929375,48,13.57212589375C48,12.18653349375,48,9.81379179375,48,8.42819999375C48,7.82068693375,48.48598659,7.33349609375,49.0934999,7.33349609375" fill="#1B1B1B" fill-opacity="1"/><path d="M33.33045335625,7.6080155765625C35.54634665625,7.6081125765625,37.67750665625,8.4595503765625,39.28345365625,9.986349076562501C39.40438565625,10.104223776562499,39.59768165625,10.1027364765625,39.71678665625,9.9830155765625C39.71678665625,9.9830155765625,40.87278665625,8.8163490765625,40.87278665625,8.8163490765625C40.93309465625,8.7556268765625,40.96671865625,8.6733751765625,40.96621765625,8.5877947765625C40.96571765625,8.5022144765625,40.93113465625,8.4203617765625,40.87011965625,8.3603491765625C36.65502265625,4.3208017765625,30.00521805625,4.3208017765625,25.79012016225,8.3603491765625C25.72906156225,8.420317376562501,25.69441765628,8.5021452765625,25.6938546270312,8.5877256765625C25.69329159777,8.6733059765625,25.72685586325,8.7555827765625,25.78712015625,8.8163490765625C25.78712015625,8.8163490765625,26.94345355625,9.9830155765625,26.94345355625,9.9830155765625C27.06248195625,10.1029171765625,27.25592795625,10.1044053765625,27.37678685625,9.986349076562501C28.98293895625,8.4594502765625,31.11434315625,7.6080100765625005,33.33045335625,7.6080155765625ZM33.33045335625,11.403682276562499C34.54794315625,11.4036078765625,35.72198365625,11.8561401765625,36.62445265625,12.6733488765625C36.74651665625,12.789329576562501,36.93879765625,12.7868151765625,37.05778665625,12.6676826765625C37.05778665625,12.6676826765625,38.21245365625,11.5010156765625,38.21245365625,11.5010156765625C38.27326065625,11.439820776562499,38.30700065625,11.3568043765625,38.30612365625,11.2705392765625C38.30524665625,11.184274676562499,38.26982565625,11.1019615765625,38.20778665625,11.0420155765625C35.45958805625,8.4856333765625,31.20365235625,8.4856333765625,28.45545365625,11.0420155765625C28.39337585625,11.1019611765625,28.35795755625,11.1843151765625,28.35714295625,11.2706079765625C28.35632825625,11.3569006765625,28.39018535625,11.4399089765625,28.45112015625,11.5010156765625C28.45112015625,11.5010156765625,29.60545345625,12.6676826765625,29.60545345625,12.6676826765625C29.72444195625,12.7868151765625,29.91672375625,12.789329576562501,30.03878685625,12.6733488765625C30.94065905625,11.856679876562499,32.11376855625,11.4041862765625,33.33045335625,11.403682276562499ZM35.64344785625,13.9575004765625C35.64521505625,14.0440082765625,35.61120705625,14.1274099765625,35.54945375625,14.1880159765625C35.54945375625,14.1880159765625,33.55212025625,16.2036824765625,33.55212025625,16.2036824765625C33.49356985625,16.2629214765625,33.41374445625,16.2962604765625,33.33045385625,16.2962604765625C33.24716285625,16.2962604765625,33.16733745625,16.2629214765625,33.10878705625,16.2036824765625C33.10878705625,16.2036824765625,31.11112025625,14.1880159765625,31.11112025625,14.1880159765625C31.049408956249998,14.1273650765625,31.01546045625,14.0439357765625,31.01729015625,13.9574289765625C31.019120256249998,13.8709220765625,31.05656625625,13.7890033765625,31.12078715625,13.7310161765625C32.39635845625,12.6521320765625,34.26454825625,12.6521320765625,35.54012015625,13.7310161765625C35.60429665625,13.7890500765625,35.64168075625,13.8709935765625,35.64344785625,13.9575004765625Z" fill-rule="evenodd" fill="#1B1B1B" fill-opacity="1"/><path d="M19.666748046875,5.6666259765625C19.666748046875,5.6666259765625,18.666748046875,5.6666259765625,18.666748046875,5.6666259765625C18.114463046875002,5.6666259765625,17.666748046875,6.1143411965625,17.666748046875,6.6666259765625C17.666748046875,6.6666259765625,17.666748046875,15.3332929765625,17.666748046875,15.3332929765625C17.666748046875,15.8855779765625,18.114463046875002,16.3332929765625,18.666748046875,16.3332929765625C18.666748046875,16.3332929765625,19.666748046875,16.3332929765625,19.666748046875,16.3332929765625C20.219032046875,16.3332929765625,20.666748046875,15.8855779765625,20.666748046875,15.3332929765625C20.666748046875,15.3332929765625,20.666748046875,6.6666259765625,20.666748046875,6.6666259765625C20.666748046875,6.1143411965625,20.219032046875,5.6666259765625,19.666748046875,5.6666259765625ZM14.000081046875,7.9999592765625C14.000081046875,7.9999592765625,15.000081046875,7.9999592765625,15.000081046875,7.9999592765625C15.552366046875,7.9999592765625,16.000081046875,8.4476744765625,16.000081046875,8.9999592765625C16.000081046875,8.9999592765625,16.000081046875,15.3332929765625,16.000081046875,15.3332929765625C16.000081046875,15.8855769765625,15.552366046875,16.3332919765625,15.000081046875,16.3332919765625C15.000081046875,16.3332919765625,14.000081046875,16.3332919765625,14.000081046875,16.3332919765625C13.447795846875,16.3332919765625,13.000081046875,15.8855769765625,13.000081046875,15.3332929765625C13.000081046875,15.3332929765625,13.000081046875,8.9999592765625,13.000081046875,8.9999592765625C13.000081046875,8.4476744765625,13.447795846875,7.9999592765625,14.000081046875,7.9999592765625ZM10.333414546875,10.3332924765625C10.333414546875,10.3332924765625,9.333414546875,10.3332924765625,9.333414546875,10.3332924765625C8.781129846875,10.3332924765625,8.333414546875,10.7810077765625,8.333414546875,11.3332924765625C8.333414546875,11.3332924765625,8.333414546875,15.3332919765625,8.333414546875,15.3332919765625C8.333414546875,15.8855769765625,8.781129846875,16.3332919765625,9.333414546875,16.3332919765625C9.333414546875,16.3332919765625,10.333414546875,16.3332919765625,10.333414546875,16.3332919765625C10.885699246875,16.3332919765625,11.333414546875,15.8855769765625,11.333414546875,15.3332919765625C11.333414546875,15.3332919765625,11.333414546875,11.3332924765625,11.333414546875,11.3332924765625C11.333414546875,10.7810077765625,10.885699246875,10.3332924765625,10.333414546875,10.3332924765625ZM5.666748046875,12.3332924765625C5.666748046875,12.3332924765625,4.666748046875,12.3332924765625,4.666748046875,12.3332924765625C4.114463266875,12.3332924765625,3.666748046875,12.7810077765625,3.666748046875,13.3332924765625C3.666748046875,13.3332924765625,3.666748046875,15.3332919765625,3.666748046875,15.3332919765625C3.666748046875,15.8855769765625,4.114463266875,16.3332919765625,4.666748046875,16.3332919765625C4.666748046875,16.3332919765625,5.666748046875,16.3332919765625,5.666748046875,16.3332919765625C6.2190327468749995,16.3332919765625,6.666748046875,15.8855769765625,6.666748046875,15.3332919765625C6.666748046875,15.3332919765625,6.666748046875,13.3332924765625,6.666748046875,13.3332924765625C6.666748046875,12.7810077765625,6.2190327468749995,12.3332924765625,5.666748046875,12.3332924765625Z" fill-rule="evenodd" fill="#1B1B1B" fill-opacity="1"/></g></svg>