<svg xmlns="http://www.w3.org/2000/svg" xmlns:xlink="http://www.w3.org/1999/xlink" fill="none" version="1.1" width="253.47" height="84.77" viewBox="0 0 253.4718017578125 84.771484375"><path d="M0,4C0,2.9391341,0.4127517,1.9217181,1.1474531,1.1715727C1.8821545,0.42142719,2.8786228,1.7763568e-15,3.9176474,0C3.9176474,0,17.629414,0,17.629414,0C18.668438,1.7763568e-15,19.664909,0.42142719,20.399611,1.1715727C21.134312,1.9217181,21.54706,2.9391341,21.54706,4C21.54706,4,21.54706,84.771431,21.54706,84.771431C21.54706,84.771431,0,84.771431,0,84.771431C0,84.771431,0,4,0,4Z" fill="#22C55E" fill-opacity="1"/><path d="M57.98118591308594,5.75238137109375C57.98118591308594,4.69151547109375,58.39394137308594,3.67409847109375,59.12864281308594,2.92395307109375C59.86334411308594,2.17380756109375,60.85980871308594,1.7523803710937518,61.89883331308594,1.75238037109375C61.89883331308594,1.75238037109375,75.61059991308593,1.75238037109375,75.61059991308593,1.75238037109375C76.64962391308593,1.7523803710937518,77.64609491308593,2.17380756109375,78.38079691308593,2.92395307109375C79.11549791308593,3.67409847109375,79.52824591308594,4.69151547109375,79.52824591308594,5.75238137109375C79.52824591308594,5.75238137109375,79.52824591308594,84.77143137109375,79.52824591308594,84.77143137109375C79.52824591308594,84.77143137109375,57.98118591308594,84.77143137109375,57.98118591308594,84.77143137109375C57.98118591308594,84.77143137109375,57.98118591308594,5.75238137109375,57.98118591308594,5.75238137109375Z" fill="#22C55E" fill-opacity="1"/><path d="M115.96237182617188,7.504761695861816C115.96237182617188,6.443895795861817,116.37513473617187,5.426479795861816,117.10983612617187,4.676334395861817C117.84453752617188,3.9261888858618166,118.84099462617188,3.504761695861818,119.88001922617187,3.5047616958618164C119.88001922617187,3.5047616958618164,133.59178582617187,3.5047616958618164,133.59178582617187,3.5047616958618164C134.63080982617188,3.504761695861818,135.62728082617187,3.9261888858618166,136.36198282617187,4.676334395861817C137.09668382617187,5.426479795861816,137.50943182617186,6.443895795861817,137.50943182617186,7.504761695861816C137.50943182617186,7.504761695861816,137.50943182617186,84.77142469586181,137.50943182617186,84.77142469586181C137.50943182617186,84.77142469586181,115.96237182617188,84.77142469586181,115.96237182617188,84.77142469586181C115.96237182617188,84.77142469586181,115.96237182617188,7.504761695861816,115.96237182617188,7.504761695861816Z" fill="#22C55E" fill-opacity="1"/><path d="M173.94354248046875,17.800000190734863C173.94354248046875,16.739134290734864,174.35629046046876,15.721717390734863,175.09099188046875,14.971571890734863C175.82569318046876,14.221426430734864,176.82216528046874,13.80000019073486,177.86118988046874,13.800000190734863C177.86118988046874,13.800000190734863,191.57295648046875,13.800000190734863,191.57295648046875,13.800000190734863C192.61198048046876,13.800000190734863,193.60845148046874,14.221426430734864,194.34315348046874,14.971571890734863C195.07785448046874,15.721717390734863,195.49060248046874,16.739134290734864,195.49060248046874,17.800000190734863C195.49060248046874,17.800000190734863,195.49060248046874,84.77142819073487,195.49060248046874,84.77142819073487C195.49060248046874,84.77142819073487,173.94354248046875,84.77142819073487,173.94354248046875,84.77142819073487C173.94354248046875,84.77142819073487,173.94354248046875,17.800000190734863,173.94354248046875,17.800000190734863Z" fill="#F5A623" fill-opacity="1"/><path d="M231.92471313476562,34.885711669921875C231.92471313476562,33.82484576992187,232.33746111476563,32.80743076992187,233.07216253476562,32.05728526992188C233.80686383476564,31.307139809921875,234.8033359347656,30.885711669921882,235.84236053476562,30.885711669921875C235.84236053476562,30.885711669921875,249.55412713476562,30.885711669921875,249.55412713476562,30.885711669921875C250.59315113476563,30.885711669921875,251.58962213476562,31.307139809921875,252.32432413476562,32.05728526992188C253.05902513476562,32.80743076992187,253.4717731347656,33.82484576992187,253.4717731347656,34.885711669921875C253.4717731347656,34.885711669921875,253.4717731347656,84.77142666992188,253.4717731347656,84.77142666992188C253.4717731347656,84.77142666992188,231.92471313476562,84.77142666992188,231.92471313476562,84.77142666992188C231.92471313476562,84.77142666992188,231.92471313476562,34.885711669921875,231.92471313476562,34.885711669921875Z" fill="#F04050" fill-opacity="1"/></svg>