<svg xmlns="http://www.w3.org/2000/svg" xmlns:xlink="http://www.w3.org/1999/xlink" fill="none" version="1.1" width="24" height="24" viewBox="0 0 24 23.9998779296875"><path d="M13.2998523546875,8.1097052484375C13.2998523546875,8.1097052484375,14.6198520546875,10.7497053484375,14.6198520546875,10.7497053484375C14.7998520546875,11.1097054484375,15.2798520546875,11.4697055484375,15.6798520546875,11.5297050484375C15.6798520546875,11.5297050484375,18.0698520546875,11.929706048437499,18.0698520546875,11.929706048437499C19.5998530546875,12.1897058484375,19.9598540546875,13.2897057484375,18.8598540546875,14.3897056484375C18.8598540546875,14.3897056484375,16.9998520546875,16.259704548437497,16.9998520546875,16.259704548437497C16.6898520546875,16.5697050484375,16.5098530546875,17.1797051484375,16.6098540546875,17.6197051484375C16.6098540546875,17.6197051484375,17.139852054687502,19.9297051484375,17.139852054687502,19.9297051484375C17.5598520546875,21.7497041484375,16.5898510546875,22.4597051484375,14.9798520546875,21.5097041484375C14.9798520546875,21.5097041484375,12.7398519546875,20.1797051484375,12.7398519546875,20.1797051484375C12.3298516546875,19.9397051484375,11.6698522546875,19.9397051484375,11.2598519546875,20.1797051484375C11.2598519546875,20.1797051484375,9.0098519546875,21.4997041484375,9.0098519546875,21.4997041484375C7.3998517546875,22.449704148437498,6.4298517546875,21.7397041484375,6.8498516546875,19.9197041484375C6.8498516546875,19.9197041484375,7.3798518546875,17.6097051484375,7.3798518546875,17.6097051484375C7.479851954687501,17.1797051484375,7.2998516546875,16.5697050484375,6.9898514546875,16.2497053484375C6.9898514546875,16.2497053484375,5.1398513346875,14.399704948437499,5.1398513346875,14.399704948437499C4.0398511846875,13.299705048437499,4.3998513246875,12.1897053484375,5.9298515546875,11.9397053484375C5.9298515546875,11.9397053484375,8.3198513546875,11.5397057484375,8.3198513546875,11.5397057484375C8.7198514546875,11.4697055484375,9.1998519546875,11.119705648437499,9.3798518546875,10.7597055484375C9.3798518546875,10.7597055484375,10.6998519546875,8.1197054484375,10.6998519546875,8.1197054484375C11.4098520546875,6.6797055284375,12.5898523546875,6.6797053784375,13.2998523546875,8.1097052484375Z" fill="#22C55E" fill-opacity="1"/><path d="M6,9.750244140625C5.58999997,9.750244140625,5.25,9.410243940625,5.25,9.000244140625C5.25,9.000244140625,5.25,2.000244080625,5.25,2.000244080625C5.25,1.590244110625,5.58999997,1.250244140625,6,1.250244140625C6.41,1.250244140625,6.75,1.590244110625,6.75,2.000244080625C6.75,2.000244080625,6.75,9.000244140625,6.75,9.000244140625C6.75,9.410243940625,6.41,9.750244140625,6,9.750244140625Z" fill="#22C55E" fill-opacity="1"/><path d="M18,9.750244140625C17.58999997,9.750244140625,17.25,9.410243940625,17.25,9.000244140625C17.25,9.000244140625,17.25,2.000244080625,17.25,2.000244080625C17.25,1.590244110625,17.58999997,1.250244140625,18,1.250244140625C18.41,1.250244140625,18.75,1.590244110625,18.75,2.000244080625C18.75,2.000244080625,18.75,9.000244140625,18.75,9.000244140625C18.75,9.410243940625,18.41,9.750244140625,18,9.750244140625Z" fill="#22C55E" fill-opacity="1"/><path d="M12,4.750244340625001C11.58999997,4.750244340625001,11.25,4.410244440625,11.25,4.000244140625C11.25,4.000244140625,11.25,2.000244140625,11.25,2.000244140625C11.25,1.590244110625,11.58999997,1.250244140625,12,1.250244140625C12.41,1.250244140625,12.75,1.590244110625,12.75,2.000244140625C12.75,2.000244140625,12.75,4.000244140625,12.75,4.000244140625C12.75,4.410244440625,12.41,4.750244340625001,12,4.750244340625001Z" fill="#22C55E" fill-opacity="1"/></svg>