<svg xmlns="http://www.w3.org/2000/svg" xmlns:xlink="http://www.w3.org/1999/xlink" fill="none" version="1.1" width="9" height="9" viewBox="0 0 9 9"><defs><clipPath id="master_svg0_2_9190"><rect x="-0.375" y="-0.375" width="9.75" height="9.75" rx="0"/></clipPath></defs><g clip-path="url(#master_svg0_2_9190)"><path d="M2.25,8.625L6.75,8.625Q6.7869339,8.625,6.8231583,8.617794Q6.8593826,8.610588100000001,6.8935056,8.596454099999999Q6.9276285,8.5823197,6.9583378,8.5618Q6.989048,8.5412807,7.0151644,8.5151644Q7.0412807,8.489048,7.0618005,8.458337799999999Q7.0823202,8.427628,7.0964541,8.393505099999999Q7.1105881,8.3593826,7.117794,8.3231583Q7.125,8.286933900000001,7.125,8.25L7.125,1.5Q7.125,1.03401053,6.795495,0.704505026Q6.4659905,0.375,6,0.375L3,0.375Q2.53400967,0.37499994,2.204504807,0.704504739Q1.875,1.03400955,1.875,1.5L1.875,8.25Q1.875,8.286933900000001,1.8822055500000001,8.3231583Q1.88941106,8.3593826,1.9035452,8.393505600000001Q1.91767934,8.4276285,1.93819892,8.458337799999999Q1.95871851,8.489048,1.98483497,8.5151644Q2.01095146,8.5412807,2.04166119,8.5618005Q2.07237092,8.5823197,2.10649374,8.596454099999999Q2.14061656,8.610588100000001,2.17684114,8.617794Q2.213065729,8.625,2.25,8.625ZM6.375,7.8749995L6.375,1.5Q6.375,1.3446705300000001,6.2651644,1.23483476Q6.1553299,1.125,6,1.125L3,1.125Q2.84466982,1.125,2.73483497,1.23483479Q2.625,1.34466976,2.625,1.5L2.625,7.8749995L6.375,7.8749995Z" fill-rule="evenodd" fill="#8898B4" fill-opacity="1"/><path d="M1.5,8.625L2.25,8.625L2.25,8.624925099999999Q2.2869267,8.624924700000001,2.3231441,8.6177206Q2.3593614,8.6105165,2.3934774,8.596385Q2.4275935,8.5822535,2.458297,8.561738Q2.4890006,8.541222600000001,2.5151119,8.5151119Q2.541223,8.4890003,2.5617384999999997,8.4582968Q2.5822539,8.4275932,2.5963852000000003,8.3934772Q2.6105167,8.3593612,2.6177207,8.323144Q2.6249249,8.2869267,2.624925,8.25Q2.6249249,8.213072799999999,2.6177208,8.1768553Q2.6105168,8.1406379,2.5963854,8.1065216Q2.5822541,8.0724058,2.5617384999999997,8.0417023Q2.541223,8.0109987,2.5151119,7.9848876Q2.4890006,7.9587765,2.458297,7.9382608Q2.4275935,7.917745399999999,2.3934774,7.903614Q2.3593614,7.889483,2.3231441,7.8822789Q2.2869267,7.8750748999999995,2.25,7.8750748999999995L2.25,7.875L1.5,7.875Q1.34466994,7.875,1.23483485,7.7651649Q1.12499997,7.6553302,1.12499997,7.5L1.125,5.25Q1.125,5.09466994,1.23483491,4.98483512Q1.34467006,4.87499997,1.5,4.87499997L2.25,4.875L2.25,4.87492502Q2.2869267,4.87492502,2.3231441,4.8677209Q2.3593614,4.86051685,2.3934774,4.84638554Q2.4275935,4.83225423,2.458297,4.81173873Q2.4890006,4.79122326,2.5151119,4.76511201Q2.541223,4.73900075,2.5617384999999997,4.70829716Q2.5822539,4.67759359,2.5963852000000003,4.64347759Q2.6105167,4.60936159,2.6177207,4.573144242Q2.6249249,4.536926892,2.624925,4.5Q2.6249249,4.463073108,2.6177208,4.426855758Q2.6105168,4.39063841,2.5963854,4.35652241Q2.5822541,4.32240641,2.5617384999999997,4.29170284Q2.541223,4.26099925,2.5151119,4.23488799Q2.4890006,4.20877674,2.458297,4.18826127Q2.4275935,4.16774577,2.3934774,4.15361446Q2.3593614,4.13948315,2.3231441,4.1322791Q2.2869267,4.12507498,2.25,4.12507498L2.25,4.125L1.5,4.125Q1.0340097799999999,4.12500003,0.704504862,4.454504997Q0.375,4.78400975,0.375,5.25L0.375,7.5Q0.375,7.9659901,0.7045049290000001,8.295494999999999Q1.03401023,8.625,1.5,8.625Z" fill-rule="evenodd" fill="#8898B4" fill-opacity="1"/><path d="M7.5,7.875L6.75,7.875L6.75,7.8750749Q6.713073108,7.8750749,6.676855758,7.8822789Q6.64063841,7.889483,6.60652241,7.903614Q6.57240641,7.9177456,6.54170284,7.938261Q6.51099925,7.9587765,6.48488799,7.9848876Q6.45877674,8.0109987,6.43826127,8.0417023Q6.41774577,8.0724058,6.40361446,8.1065221Q6.38948315,8.1406384,6.3822791,8.176856Q6.37507498,8.2130733,6.37507498,8.25Q6.37507498,8.2869267,6.3822791,8.323144Q6.38948315,8.3593612,6.40361446,8.3934774Q6.41774577,8.4275932,6.43826127,8.4582968Q6.45877674,8.4890003,6.48488799,8.5151119Q6.51099925,8.541222600000001,6.54170284,8.561738Q6.57240641,8.5822535,6.60652241,8.596385Q6.64063841,8.6105165,6.676855758,8.6177206Q6.713073108,8.624924700000001,6.75,8.624925099999999L6.75,8.625L7.5,8.625Q7.9659896,8.625,8.2954949,8.295494999999999Q8.625,7.9659905,8.625,7.5L8.625,4.125Q8.625,3.65900981,8.2954949,3.329504929Q7.9659899,3.00000003,7.5,3L6.75,3L6.75,3.00007498Q6.713073108,3.00007498,6.676855758,3.0072791Q6.64063841,3.0144831500000002,6.60652241,3.02861446Q6.57240641,3.04274577,6.54170284,3.06326127Q6.51099925,3.0837767400000002,6.48488799,3.10988799Q6.45877674,3.13599925,6.43826127,3.16670284Q6.41774577,3.19740641,6.40361446,3.23152241Q6.38948315,3.26563841,6.3822791,3.301855758Q6.37507498,3.338073108,6.37507498,3.375Q6.37507498,3.411926892,6.3822791,3.448144242Q6.38948315,3.48436159,6.40361446,3.51847759Q6.41774577,3.55259359,6.43826127,3.58329716Q6.45877674,3.61400075,6.48488799,3.64011201Q6.51099925,3.6662232599999998,6.54170284,3.68673873Q6.57240641,3.70725423,6.60652241,3.72138554Q6.64063841,3.7355168499999998,6.676855758,3.7427209Q6.713073108,3.74992502,6.75,3.74992502L6.75,3.75L7.5,3.74999997Q7.65532976,3.74999997,7.765165,3.85983521Q7.875,3.96967018,7.875,4.125L7.875,7.5Q7.875,7.6553297,7.765165,7.7651649Q7.65532982,7.875,7.5,7.875Z" fill-rule="evenodd" fill="#8898B4" fill-opacity="1"/><path d="M3.75,2.625L5.25,2.625L5.25,2.62492502Q5.2869267,2.62492502,5.3231441,2.6177209Q5.3593614,2.6105168499999998,5.3934774,2.59638554Q5.4275935,2.58225423,5.458297,2.56173873Q5.4890006,2.5412232599999998,5.5151119,2.51511201Q5.5412230000000005,2.48900075,5.5617385,2.45829716Q5.5822538999999995,2.42759359,5.5963852,2.39347759Q5.6105167,2.35936159,5.6177207,2.323144242Q5.6249249,2.286926892,5.624925,2.25Q5.6249249,2.213073108,5.6177208,2.176855758Q5.6105168,2.14063841,5.5963854,2.10652241Q5.5822541,2.07240641,5.5617385,2.04170284Q5.5412230000000005,2.01099925,5.5151119,1.98488799Q5.4890006,1.95877674,5.458297,1.93826127Q5.4275935,1.91774577,5.3934774,1.90361446Q5.3593614,1.88948315,5.3231441,1.8822790999999999Q5.2869267,1.87507498,5.25,1.87507498L5.25,1.875L3.75,1.875L3.75,1.87507498Q3.713073108,1.87507498,3.676855758,1.8822790999999999Q3.64063841,1.88948315,3.60652241,1.90361446Q3.57240641,1.91774577,3.54170284,1.93826127Q3.51099925,1.95877674,3.48488799,1.98488799Q3.4587767400000002,2.01099925,3.43826127,2.04170284Q3.41774577,2.07240641,3.40361446,2.10652241Q3.3894831500000002,2.14063841,3.3822791,2.176855758Q3.37507498,2.213073108,3.37507498,2.25Q3.37507498,2.286926892,3.3822791,2.323144242Q3.3894831500000002,2.35936159,3.40361446,2.39347759Q3.41774577,2.42759359,3.43826127,2.45829716Q3.4587767400000002,2.48900075,3.48488799,2.51511201Q3.51099925,2.5412232599999998,3.54170284,2.56173873Q3.57240641,2.58225423,3.60652241,2.59638554Q3.64063841,2.6105168499999998,3.676855758,2.6177209Q3.713073108,2.62492502,3.75,2.62492502L3.75,2.625Z" fill-rule="evenodd" fill="#8898B4" fill-opacity="1"/><path d="M3.75,4.125L5.25,4.125L5.25,4.12492502Q5.2869267,4.12492502,5.3231441,4.1177209Q5.3593614,4.11051685,5.3934774,4.09638554Q5.4275935,4.08225423,5.458297,4.06173873Q5.4890006,4.04122326,5.5151119,4.01511201Q5.5412230000000005,3.98900075,5.5617385,3.95829716Q5.5822538999999995,3.92759359,5.5963852,3.89347759Q5.6105167,3.85936159,5.6177207,3.823144242Q5.6249249,3.786926892,5.624925,3.75Q5.6249249,3.713073108,5.6177208,3.676855758Q5.6105168,3.64063841,5.5963854,3.60652241Q5.5822541,3.57240641,5.5617385,3.54170284Q5.5412230000000005,3.51099925,5.5151119,3.48488799Q5.4890006,3.4587767400000002,5.458297,3.43826127Q5.4275935,3.41774577,5.3934774,3.40361446Q5.3593614,3.3894831500000002,5.3231441,3.3822791Q5.2869267,3.37507498,5.25,3.37507498L5.25,3.375L3.75,3.375L3.75,3.37507498Q3.713073108,3.37507498,3.676855758,3.3822791Q3.64063841,3.3894831500000002,3.60652241,3.40361446Q3.57240641,3.41774577,3.54170284,3.43826127Q3.51099925,3.4587767400000002,3.48488799,3.48488799Q3.4587767400000002,3.51099925,3.43826127,3.54170284Q3.41774577,3.57240641,3.40361446,3.60652241Q3.3894831500000002,3.64063841,3.3822791,3.676855758Q3.37507498,3.713073108,3.37507498,3.75Q3.37507498,3.786926892,3.3822791,3.823144242Q3.3894831500000002,3.85936159,3.40361446,3.89347759Q3.41774577,3.92759359,3.43826127,3.95829716Q3.4587767400000002,3.98900075,3.48488799,4.01511201Q3.51099925,4.04122326,3.54170284,4.06173873Q3.57240641,4.08225423,3.60652241,4.09638554Q3.64063841,4.11051685,3.676855758,4.1177209Q3.713073108,4.12492502,3.75,4.12492502L3.75,4.125Z" fill-rule="evenodd" fill="#8898B4" fill-opacity="1"/><path d="M3.75,5.625L5.25,5.625L5.25,5.62492502Q5.2869267,5.62492502,5.3231441,5.6177209Q5.3593614,5.61051685,5.3934774,5.59638554Q5.4275935,5.58225423,5.458297,5.56173873Q5.4890006,5.54122326,5.5151119,5.51511201Q5.5412230000000005,5.48900075,5.5617385,5.45829716Q5.5822538999999995,5.42759359,5.5963852,5.39347759Q5.6105167,5.35936159,5.6177207,5.323144242Q5.6249249,5.286926892,5.624925,5.25Q5.6249249,5.213073108,5.6177208,5.176855758Q5.6105168,5.14063841,5.5963854,5.10652241Q5.5822541,5.07240641,5.5617385,5.04170284Q5.5412230000000005,5.01099925,5.5151119,4.98488799Q5.4890006,4.95877674,5.458297,4.93826127Q5.4275935,4.91774577,5.3934774,4.90361446Q5.3593614,4.88948315,5.3231441,4.8822791Q5.2869267,4.87507498,5.25,4.87507498L5.25,4.875L3.75,4.875L3.75,4.87507498Q3.713073108,4.87507498,3.676855758,4.8822791Q3.64063841,4.88948315,3.60652241,4.90361446Q3.57240641,4.91774577,3.54170284,4.93826127Q3.51099925,4.95877674,3.48488799,4.98488799Q3.4587767400000002,5.01099925,3.43826127,5.04170284Q3.41774577,5.07240641,3.40361446,5.10652241Q3.3894831500000002,5.14063841,3.3822791,5.176855758Q3.37507498,5.213073108,3.37507498,5.25Q3.37507498,5.286926892,3.3822791,5.323144242Q3.3894831500000002,5.35936159,3.40361446,5.39347759Q3.41774577,5.42759359,3.43826127,5.45829716Q3.4587767400000002,5.48900075,3.48488799,5.51511201Q3.51099925,5.54122326,3.54170284,5.56173873Q3.57240641,5.58225423,3.60652241,5.59638554Q3.64063841,5.61051685,3.676855758,5.6177209Q3.713073108,5.62492502,3.75,5.62492502L3.75,5.625Z" fill-rule="evenodd" fill="#8898B4" fill-opacity="1"/><path d="M3.75,7.125L5.25,7.125L5.25,7.12492502Q5.2869267,7.12492502,5.3231441,7.1177209Q5.3593614,7.11051685,5.3934774,7.09638554Q5.4275935,7.08225423,5.458297,7.06173873Q5.4890006,7.04122326,5.5151119,7.01511201Q5.5412230000000005,6.98900075,5.5617385,6.95829716Q5.5822538999999995,6.92759359,5.5963852,6.89347759Q5.6105167,6.85936159,5.6177207,6.823144242Q5.6249249,6.786926892,5.624925,6.75Q5.6249249,6.713073108,5.6177208,6.676855758Q5.6105168,6.64063841,5.5963854,6.60652241Q5.5822541,6.57240641,5.5617385,6.54170284Q5.5412230000000005,6.51099925,5.5151119,6.48488799Q5.4890006,6.45877674,5.458297,6.43826127Q5.4275935,6.41774577,5.3934774,6.40361446Q5.3593614,6.38948315,5.3231441,6.3822791Q5.2869267,6.37507498,5.25,6.37507498L5.25,6.375L3.75,6.375L3.75,6.37507498Q3.713073108,6.37507498,3.676855758,6.3822791Q3.64063841,6.38948315,3.60652241,6.40361446Q3.57240641,6.41774577,3.54170284,6.43826127Q3.51099925,6.45877674,3.48488799,6.48488799Q3.4587767400000002,6.51099925,3.43826127,6.54170284Q3.41774577,6.57240641,3.40361446,6.60652241Q3.3894831500000002,6.64063841,3.3822791,6.676855758Q3.37507498,6.713073108,3.37507498,6.75Q3.37507498,6.786926892,3.3822791,6.823144242Q3.3894831500000002,6.85936159,3.40361446,6.89347759Q3.41774577,6.92759359,3.43826127,6.95829716Q3.4587767400000002,6.98900075,3.48488799,7.01511201Q3.51099925,7.04122326,3.54170284,7.06173873Q3.57240641,7.08225423,3.60652241,7.09638554Q3.64063841,7.11051685,3.676855758,7.1177209Q3.713073108,7.12492502,3.75,7.12492502L3.75,7.125Z" fill-rule="evenodd" fill="#8898B4" fill-opacity="1"/></g></svg>