<svg xmlns="http://www.w3.org/2000/svg" xmlns:xlink="http://www.w3.org/1999/xlink" fill="none" version="1.1" width="14" height="14" viewBox="0 0 14 14"><defs><clipPath id="master_svg0_2_00893"><rect x="-0.5833333134651184" y="-0.5833333134651184" width="15.166666626930237" height="15.166666626930237" rx="0"/></clipPath></defs><g clip-path="url(#master_svg0_2_00893)"><path d="M2.333333613003845,8.749999862162781L6.416666893003845,8.749999862162781L6.418565193003845,8.749997462162781Q6.413576993003845,8.76334226216278,6.409247793003845,8.77691736216278L5.289248393003845,12.28858366216278Q5.285675193003845,12.299788662162781,5.282556193003845,12.311126662162781Q5.201247093003845,12.606731662162781,5.322218493003845,12.88844066216278Q5.443190493003845,13.17014866216278,5.713528293003845,13.314746662162781Q5.983872793003846,13.45934866216278,6.285332993003845,13.40359666216278Q6.5768407930038455,13.349691662162781,6.774173093003845,13.13125466216278L12.540254993003845,7.19044386216278Q12.558327993003845,7.1718233621627805,12.574680993003845,7.15166796216278Q12.787601993003845,6.889204362162781,12.827260993003845,6.553569662162781Q12.866920993003845,6.21793406216278,12.721033993003845,5.913067262162781Q12.575148993003845,5.608206662162781,12.288899993003845,5.428530562162781Q12.002647993003846,5.248851162162781,11.666665393003845,5.249999862162781L7.581435093003845,5.250002262162781Q7.5864227930038455,5.236657962162781,7.590751993003845,5.223082862162781L8.710751393003846,1.7114166621627809Q8.714325293003846,1.7002124821627809,8.717443793003845,1.6888734121627809Q8.798754093003845,1.3932672421627808,8.677781893003846,1.1115586271627809Q8.556810693003845,0.8298524621627807,8.286475093003844,0.6852544221627808Q8.016135093003845,0.5406525121627808,7.714663893003845,0.5964034821627807Q7.423158093003845,0.6503108121627807,7.225826193003845,0.8687453821627807L1.4597449330038452,6.80955636216278Q1.4416716430038452,6.828177362162781,1.4253232230038453,6.848329462162781Q1.2123991830038452,7.110793962162781,1.1727387330038452,7.446430562162781Q1.1330784530038454,7.782067162162781,1.278963833003845,8.08692916216278Q1.4248489130038453,8.39179216216278,1.7110992410038453,8.571469162162781Q1.9973511430038453,8.751149062162781,2.333333613003845,8.749999862162781ZM6.416666893003845,7.583331962162781L6.415770393003845,7.583333862162781L2.334558723003845,7.583333862162781L7.218180493003845,2.551723462162781L6.4828899930038455,4.857165962162781Q6.389040393003845,5.1189943621627805,6.423920493003846,5.3958400621627804Q6.459833993003845,5.680888562162781,6.624003793003845,5.916662562162781Q6.788173093003845,6.152437062162781,7.043053493003845,6.2850173621627805Q7.297932993003845,6.417599062162781,7.585232593003846,6.4166630621627805L11.665441893003845,6.416666362162781L6.7818201930038455,11.44827566216278L7.517103993003845,9.142852662162781Q7.610960793003845,8.881016562162781,7.576079693003845,8.60416206216278Q7.540164793003846,8.319109762162782,7.3759964930038455,8.08333766216278Q7.211827593003846,7.847563162162781,6.956945793003845,7.714982362162781Q6.702910793003845,7.582839862162781,6.416666893003845,7.583331962162781Z" fill-rule="evenodd" fill="#F97316" fill-opacity="1"/></g></svg>