<svg xmlns="http://www.w3.org/2000/svg" xmlns:xlink="http://www.w3.org/1999/xlink" fill="none" version="1.1" width="289.91" height="92" viewBox="0 0 289.9058837890625 93"><path d="M0,93L1.46639,93L1.46639,92L0,92L0,93ZM4.492877,93L7.5274253,93L7.5274253,92L4.492877,92L4.492877,93ZM10.533527,93L13.553284,93L13.553284,92L10.533527,92L10.533527,93ZM16.577894,93L19.609497,93L19.609497,92L16.577894,92L16.577894,93ZM22.645254,93L25.64201,93L25.64201,92L22.645254,92L22.645254,93ZM28.656536,93L31.692627,93L31.692627,92L28.656536,92L28.656536,93ZM34.710213,93L37.668499,93L37.668499,92L34.710213,92L34.710213,93ZM40.655941,93L43.729614,93L43.729614,92L40.655941,92L40.655941,93ZM46.758327,93L49.729858,93L49.729858,92L46.758327,92L46.758327,93ZM52.766628,93L55.866234,93L55.866234,92L52.766628,92L52.766628,93ZM58.819344,93L61.82119,93L61.82119,92L58.819344,92L58.819344,93ZM64.871689,93L67.930038,93L67.930038,92L64.871689,92L64.871689,93ZM70.903259,93L73.914856,93L73.914856,92L70.903259,92L70.903259,93ZM76.96312,93L80.011215,93L80.011215,92L76.96312,92L76.96312,93ZM82.994507,93L86.006859,93L86.006859,92L82.994507,92L82.994507,93ZM89.046707,93L92.100021,93L92.100021,92L89.046707,92L89.046707,93ZM95.088562,93L98.098755,93L98.098755,92L95.088562,92L95.088562,93ZM101.12924,93L104.17861,93L104.17861,92L101.12924,92L101.12924,93ZM107.18335,93L110.19198,93L110.19198,92L107.18335,92L107.18335,93ZM113.21478,93L116.25061,93L116.25061,92L113.21478,92L113.21478,93ZM119.27095,93L122.26869,93L122.26869,92L119.27095,92L119.27095,93ZM125.27529,93L128.28964,93L128.28964,92L125.27529,92L125.27529,93ZM131.31042,93L134.33658,93L134.33658,92L131.31042,92L131.31042,93ZM137.36688,93L140.40015,93L140.40015,92L137.36688,92L137.36688,93ZM144.88077,93L146.47076,93L146.47076,92L143.43515,92L143.43515,93L144.88077,93ZM149.50577,93L152.53903,93L152.53903,92L149.50577,92L149.50577,93ZM155.56932,93L158.59547,93L158.59547,92L155.56932,92L155.56932,93ZM161.61627,93L164.63062,93L164.63062,92L161.61627,92L161.61627,93ZM167.63722,93L170.63498,93L170.63498,92L167.63722,92L167.63722,93ZM173.65532,93L176.69113,93L176.69113,92L173.65532,92L173.65532,93ZM179.71393,93L182.72253,93L182.72253,92L179.71393,92L179.71393,93ZM185.72729,93L188.7767,93L188.7767,92L185.72729,92L185.72729,93ZM191.80716,93L194.81735,93L194.81735,92L191.80716,92L191.80716,93ZM197.80588,93L200.85918,93L200.85918,92L197.80588,92L197.80588,93ZM203.89908,93L206.91138,93L206.91138,92L203.89908,92L203.89908,93ZM209.89468,93L212.94275,93L212.94275,92L209.89468,92L209.89468,93ZM215.99106,93L219.00267,93L219.00267,92L215.99106,92L215.99106,93ZM221.97589,93L225.03423,93L225.03423,92L221.97589,92L221.97589,93ZM228.08476,93L231.08658,93L231.08658,92L228.08476,92L228.08476,93ZM234.03972,93L237.13931,93L237.13931,92L234.03972,92L234.03972,93ZM240.17607,93L243.14758,93L243.14758,92L240.17607,92L240.17607,93ZM246.1763,93L249.24997,93L249.24997,92L246.1763,92L246.1763,93ZM252.23741,93L255.19571,93L255.19571,92L252.23741,92L252.23741,93ZM258.21329,93L261.24939,93L261.24939,92L258.21329,92L258.21329,93ZM264.26392,93L267.26068,93L267.26068,92L264.26392,92L264.26392,93ZM270.29642,93L273.328,93L273.328,92L270.29642,92L270.29642,93ZM276.35263,93L279.37238,93L279.37238,92L276.35263,92L276.35263,93ZM282.37851,93L285.41302,93L285.41302,92L282.37851,92L282.37851,93ZM288.43948,93L289.90588,93L289.90588,92L288.43948,92L288.43948,93Z" fill-rule="evenodd" fill="#F0F4FC" fill-opacity="1"/><path d="M0,60.14285659790039L1.46639,60.14285659790039L1.46639,59.14285659790039L0,59.14285659790039L0,60.14285659790039ZM4.492877,60.14285659790039L7.5274253,60.14285659790039L7.5274253,59.14285659790039L4.492877,59.14285659790039L4.492877,60.14285659790039ZM10.533527,60.14285659790039L13.553284,60.14285659790039L13.553284,59.14285659790039L10.533527,59.14285659790039L10.533527,60.14285659790039ZM16.577894,60.14285659790039L19.609497,60.14285659790039L19.609497,59.14285659790039L16.577894,59.14285659790039L16.577894,60.14285659790039ZM22.645254,60.14285659790039L25.64201,60.14285659790039L25.64201,59.14285659790039L22.645254,59.14285659790039L22.645254,60.14285659790039ZM28.656536,60.14285659790039L31.692627,60.14285659790039L31.692627,59.14285659790039L28.656536,59.14285659790039L28.656536,60.14285659790039ZM34.710213,60.14285659790039L37.668499,60.14285659790039L37.668499,59.14285659790039L34.710213,59.14285659790039L34.710213,60.14285659790039ZM40.655941,60.14285659790039L43.729614,60.14285659790039L43.729614,59.14285659790039L40.655941,59.14285659790039L40.655941,60.14285659790039ZM46.758327,60.14285659790039L49.729858,60.14285659790039L49.729858,59.14285659790039L46.758327,59.14285659790039L46.758327,60.14285659790039ZM52.766628,60.14285659790039L55.866234,60.14285659790039L55.866234,59.14285659790039L52.766628,59.14285659790039L52.766628,60.14285659790039ZM58.819344,60.14285659790039L61.82119,60.14285659790039L61.82119,59.14285659790039L58.819344,59.14285659790039L58.819344,60.14285659790039ZM64.871689,60.14285659790039L67.930038,60.14285659790039L67.930038,59.14285659790039L64.871689,59.14285659790039L64.871689,60.14285659790039ZM70.903259,60.14285659790039L73.914856,60.14285659790039L73.914856,59.14285659790039L70.903259,59.14285659790039L70.903259,60.14285659790039ZM76.96312,60.14285659790039L80.011215,60.14285659790039L80.011215,59.14285659790039L76.96312,59.14285659790039L76.96312,60.14285659790039ZM82.994507,60.14285659790039L86.006859,60.14285659790039L86.006859,59.14285659790039L82.994507,59.14285659790039L82.994507,60.14285659790039ZM89.046707,60.14285659790039L92.100021,60.14285659790039L92.100021,59.14285659790039L89.046707,59.14285659790039L89.046707,60.14285659790039ZM95.088562,60.14285659790039L98.098755,60.14285659790039L98.098755,59.14285659790039L95.088562,59.14285659790039L95.088562,60.14285659790039ZM101.12924,60.14285659790039L104.17861,60.14285659790039L104.17861,59.14285659790039L101.12924,59.14285659790039L101.12924,60.14285659790039ZM107.18335,60.14285659790039L110.19198,60.14285659790039L110.19198,59.14285659790039L107.18335,59.14285659790039L107.18335,60.14285659790039ZM113.21478,60.14285659790039L116.25061,60.14285659790039L116.25061,59.14285659790039L113.21478,59.14285659790039L113.21478,60.14285659790039ZM119.27095,60.14285659790039L122.26869,60.14285659790039L122.26869,59.14285659790039L119.27095,59.14285659790039L119.27095,60.14285659790039ZM125.27529,60.14285659790039L128.28964,60.14285659790039L128.28964,59.14285659790039L125.27529,59.14285659790039L125.27529,60.14285659790039ZM131.31042,60.14285659790039L134.33658,60.14285659790039L134.33658,59.14285659790039L131.31042,59.14285659790039L131.31042,60.14285659790039ZM137.36688,60.14285659790039L140.40015,60.14285659790039L140.40015,59.14285659790039L137.36688,59.14285659790039L137.36688,60.14285659790039ZM144.88077,60.14285659790039L146.47076,60.14285659790039L146.47076,59.14285659790039L143.43515,59.14285659790039L143.43515,60.14285659790039L144.88077,60.14285659790039ZM149.50577,60.14285659790039L152.53903,60.14285659790039L152.53903,59.14285659790039L149.50577,59.14285659790039L149.50577,60.14285659790039ZM155.56932,60.14285659790039L158.59547,60.14285659790039L158.59547,59.14285659790039L155.56932,59.14285659790039L155.56932,60.14285659790039ZM161.61627,60.14285659790039L164.63062,60.14285659790039L164.63062,59.14285659790039L161.61627,59.14285659790039L161.61627,60.14285659790039ZM167.63722,60.14285659790039L170.63498,60.14285659790039L170.63498,59.14285659790039L167.63722,59.14285659790039L167.63722,60.14285659790039ZM173.65532,60.14285659790039L176.69113,60.14285659790039L176.69113,59.14285659790039L173.65532,59.14285659790039L173.65532,60.14285659790039ZM179.71393,60.14285659790039L182.72253,60.14285659790039L182.72253,59.14285659790039L179.71393,59.14285659790039L179.71393,60.14285659790039ZM185.72729,60.14285659790039L188.7767,60.14285659790039L188.7767,59.14285659790039L185.72729,59.14285659790039L185.72729,60.14285659790039ZM191.80716,60.14285659790039L194.81735,60.14285659790039L194.81735,59.14285659790039L191.80716,59.14285659790039L191.80716,60.14285659790039ZM197.80588,60.14285659790039L200.85918,60.14285659790039L200.85918,59.14285659790039L197.80588,59.14285659790039L197.80588,60.14285659790039ZM203.89908,60.14285659790039L206.91138,60.14285659790039L206.91138,59.14285659790039L203.89908,59.14285659790039L203.89908,60.14285659790039ZM209.89468,60.14285659790039L212.94275,60.14285659790039L212.94275,59.14285659790039L209.89468,59.14285659790039L209.89468,60.14285659790039ZM215.99106,60.14285659790039L219.00267,60.14285659790039L219.00267,59.14285659790039L215.99106,59.14285659790039L215.99106,60.14285659790039ZM221.97589,60.14285659790039L225.03423,60.14285659790039L225.03423,59.14285659790039L221.97589,59.14285659790039L221.97589,60.14285659790039ZM228.08476,60.14285659790039L231.08658,60.14285659790039L231.08658,59.14285659790039L228.08476,59.14285659790039L228.08476,60.14285659790039ZM234.03972,60.14285659790039L237.13931,60.14285659790039L237.13931,59.14285659790039L234.03972,59.14285659790039L234.03972,60.14285659790039ZM240.17607,60.14285659790039L243.14758,60.14285659790039L243.14758,59.14285659790039L240.17607,59.14285659790039L240.17607,60.14285659790039ZM246.1763,60.14285659790039L249.24997,60.14285659790039L249.24997,59.14285659790039L246.1763,59.14285659790039L246.1763,60.14285659790039ZM252.23741,60.14285659790039L255.19571,60.14285659790039L255.19571,59.14285659790039L252.23741,59.14285659790039L252.23741,60.14285659790039ZM258.21329,60.14285659790039L261.24939,60.14285659790039L261.24939,59.14285659790039L258.21329,59.14285659790039L258.21329,60.14285659790039ZM264.26392,60.14285659790039L267.26068,60.14285659790039L267.26068,59.14285659790039L264.26392,59.14285659790039L264.26392,60.14285659790039ZM270.29642,60.14285659790039L273.328,60.14285659790039L273.328,59.14285659790039L270.29642,59.14285659790039L270.29642,60.14285659790039ZM276.35263,60.14285659790039L279.37238,60.14285659790039L279.37238,59.14285659790039L276.35263,59.14285659790039L276.35263,60.14285659790039ZM282.37851,60.14285659790039L285.41302,60.14285659790039L285.41302,59.14285659790039L282.37851,59.14285659790039L282.37851,60.14285659790039ZM288.43948,60.14285659790039L289.90588,60.14285659790039L289.90588,59.14285659790039L288.43948,59.14285659790039L288.43948,60.14285659790039Z" fill-rule="evenodd" fill="#F0F4FC" fill-opacity="1"/><path d="M0,1L1.46639,1L1.46639,0L0,0L0,1ZM4.492877,1L7.5274253,1L7.5274253,0L4.492877,0L4.492877,1ZM10.533527,1L13.553284,1L13.553284,0L10.533527,0L10.533527,1ZM16.577894,1L19.609497,1L19.609497,0L16.577894,0L16.577894,1ZM22.645254,1L25.64201,1L25.64201,0L22.645254,0L22.645254,1ZM28.656536,1L31.692627,1L31.692627,0L28.656536,0L28.656536,1ZM34.710213,1L37.668499,1L37.668499,0L34.710213,0L34.710213,1ZM40.655941,1L43.729614,1L43.729614,0L40.655941,0L40.655941,1ZM46.758327,1L49.729858,1L49.729858,0L46.758327,0L46.758327,1ZM52.766628,1L55.866234,1L55.866234,0L52.766628,0L52.766628,1ZM58.819344,1L61.82119,1L61.82119,0L58.819344,0L58.819344,1ZM64.871689,1L67.930038,1L67.930038,0L64.871689,0L64.871689,1ZM70.903259,1L73.914856,1L73.914856,0L70.903259,0L70.903259,1ZM76.96312,1L80.011215,1L80.011215,0L76.96312,0L76.96312,1ZM82.994507,1L86.006859,1L86.006859,0L82.994507,0L82.994507,1ZM89.046707,1L92.100021,1L92.100021,0L89.046707,0L89.046707,1ZM95.088562,1L98.098755,1L98.098755,0L95.088562,0L95.088562,1ZM101.12924,1L104.17861,1L104.17861,0L101.12924,0L101.12924,1ZM107.18335,1L110.19198,1L110.19198,0L107.18335,0L107.18335,1ZM113.21478,1L116.25061,1L116.25061,0L113.21478,0L113.21478,1ZM119.27095,1L122.26869,1L122.26869,0L119.27095,0L119.27095,1ZM125.27529,1L128.28964,1L128.28964,0L125.27529,0L125.27529,1ZM131.31042,1L134.33658,1L134.33658,0L131.31042,0L131.31042,1ZM137.36688,1L140.40015,1L140.40015,0L137.36688,0L137.36688,1ZM144.88077,1L146.47076,1L146.47076,0L143.43515,0L143.43515,1L144.88077,1ZM149.50577,1L152.53903,1L152.53903,0L149.50577,0L149.50577,1ZM155.56932,1L158.59547,1L158.59547,0L155.56932,0L155.56932,1ZM161.61627,1L164.63062,1L164.63062,0L161.61627,0L161.61627,1ZM167.63722,1L170.63498,1L170.63498,0L167.63722,0L167.63722,1ZM173.65532,1L176.69113,1L176.69113,0L173.65532,0L173.65532,1ZM179.71393,1L182.72253,1L182.72253,0L179.71393,0L179.71393,1ZM185.72729,1L188.7767,1L188.7767,0L185.72729,0L185.72729,1ZM191.80716,1L194.81735,1L194.81735,0L191.80716,0L191.80716,1ZM197.80588,1L200.85918,1L200.85918,0L197.80588,0L197.80588,1ZM203.89908,1L206.91138,1L206.91138,0L203.89908,0L203.89908,1ZM209.89468,1L212.94275,1L212.94275,0L209.89468,0L209.89468,1ZM215.99106,1L219.00267,1L219.00267,0L215.99106,0L215.99106,1ZM221.97589,1L225.03423,1L225.03423,0L221.97589,0L221.97589,1ZM228.08476,1L231.08658,1L231.08658,0L228.08476,0L228.08476,1ZM234.03972,1L237.13931,1L237.13931,0L234.03972,0L234.03972,1ZM240.17607,1L243.14758,1L243.14758,0L240.17607,0L240.17607,1ZM246.1763,1L249.24997,1L249.24997,0L246.1763,0L246.1763,1ZM252.23741,1L255.19571,1L255.19571,0L252.23741,0L252.23741,1ZM258.21329,1L261.24939,1L261.24939,0L258.21329,0L258.21329,1ZM264.26392,1L267.26068,1L267.26068,0L264.26392,0L264.26392,1ZM270.29642,1L273.328,1L273.328,0L270.29642,0L270.29642,1ZM276.35263,1L279.37238,1L279.37238,0L276.35263,0L276.35263,1ZM282.37851,1L285.41302,1L285.41302,0L282.37851,0L282.37851,1ZM288.43948,1L289.90588,1L289.90588,0L288.43948,0L288.43948,1Z" fill-rule="evenodd" fill="#F0F4FC" fill-opacity="1"/></svg>