<svg xmlns="http://www.w3.org/2000/svg" xmlns:xlink="http://www.w3.org/1999/xlink" fill="none" version="1.1" width="109" height="146.77" viewBox="0 0 176.3653106689453 167.685791015625"><defs><filter id="master_svg0_2_00254" filterUnits="objectBoundingBox" color-interpolation-filters="sRGB" x="-0.14101575410377878" y="-0.12003315124569011" width="1.2820315082075575" height="1.3000828781142253"><feFlood flood-opacity="0" result="BackgroundImageFix"/><feColorMatrix in="SourceAlpha" type="matrix" values="0 0 0 0 0 0 0 0 0 0 0 0 0 0 0 0 0 0 127 0"/><feOffset dy="4" dx="0"/><feGaussianBlur stdDeviation="5"/><feColorMatrix type="matrix" values="0 0 0 0 0 0 0 0 0 0 0 0 0 0 0 0 0 0 0.30000001192092896 0"/><feBlend mode="normal" in2="BackgroundImageFix" result="effect1_dropShadow"/><feBlend mode="normal" in="SourceGraphic" in2="effect1_dropShadow" result="shape"/></filter></defs><g filter="url(#master_svg0_2_00254)"><path d="M16.999996960163116,135.59680296875C16.999996960163116,135.59680296875,16.999996960163116,53.59680196875,16.999996960163116,53.59680196875C16.999996960163116,53.59680196875,86.82812196016312,13.30029296875,86.82812196016312,13.30029296875C86.82812196016312,13.30029296875,158.82811696016313,53.59680196875,158.82811696016313,53.59680196875C158.82811696016313,53.59680196875,130.82811696016313,120.09680296875,130.82811696016313,120.09680296875Q130.82811696016313,120.09680296875,86.82812196016312,146.59680296875Q16.999996960163116,135.59680296875,16.999996960163116,135.59680296875Z" fill="#08C08F" fill-opacity="0.4000000059604645"/><path d="M14.999996960163116,52.44183396875L14.999996960163116,135.59680296875L14.999996760163116,137.30641296875L87.23620296016311,148.68576296875L132.4184169601631,121.47374296875L161.3653069601631,52.72486896875L86.81299296016311,10.99989386875L14.999996960163116,52.44183396875ZM16.999996960163116,135.59680296875L16.999996960163116,53.59680196875L86.82812196016312,13.30029296875L158.82811696016313,53.59680196875L130.82811696016313,120.09680296875L86.82812196016312,146.59680296875L16.999996960163116,135.59680296875Z" fill-rule="evenodd" fill="#08C08F" fill-opacity="1"/></g></svg>