<svg xmlns="http://www.w3.org/2000/svg" xmlns:xlink="http://www.w3.org/1999/xlink" fill="none" version="1.1" width="16" height="18" viewBox="0 0 16 18"><defs><clipPath id="master_svg0_2_00178"><rect x="-0.6009615063667297" y="-0.6009615063667297" width="17.20192301273346" height="19.20192301273346" rx="0"/></clipPath></defs><g clip-path="url(#master_svg0_2_00178)"><rect x="0" y="0" width="16" height="16" rx="0" fill="#FFFFFF" fill-opacity="0.009999999776482582" style="mix-blend-mode:passthrough"/><path d="M3.33203145,12.667318375L3.33203145,6.000651375C3.33203145,3.423317675,5.42136475,1.333984375,7.99869825,1.333984375C10.57603265,1.333984375,12.66536625,3.423317675,12.66536625,6.000651375L12.66536625,12.667318375" fill="#3662EC" fill-opacity="1"/><path d="M13.26632725,12.066356375L14.66536525,12.066356375L14.66536525,12.067438375Q14.72444725,12.067438375,14.78239425,12.078964375Q14.84034125,12.090490375,14.89492825,12.113101375Q14.94951325,12.135710375,14.99864025,12.168536375Q15.04776525,12.201360375,15.08954425,12.243139375Q15.13132225,12.284917375,15.16414625,12.334042375Q15.19697225,12.383168375,15.21958125,12.437753375Q15.24219125,12.492339375,15.25371825,12.550287375Q15.26524425,12.608234375,15.26524525,12.667318375Q15.26524425,12.726400375,15.25371725,12.784347375Q15.24219125,12.842294375,15.21958125,12.896881375Q15.19697225,12.951467375,15.16414625,13.000593375Q15.13132225,13.049718375,15.08954425,13.091497375Q15.04776525,13.133274375,14.99864025,13.166098375Q14.94951425,13.198924375,14.89492925,13.221534375Q14.84034225,13.244144375,14.78239425,13.255670375Q14.72444725,13.267197375,14.66536525,13.267198375L14.66536525,13.268280375L1.33203125,13.268280375L1.33203125,13.267198375Q1.272948228,13.267197375,1.21500048,13.255670375Q1.15705273,13.244144375,1.10246713,13.221534375Q1.0478815400000001,13.198924375,0.99875581,13.166099375Q0.9496300799999999,13.133274375,0.90785205,13.091497375Q0.86607403,13.049718375,0.83324927,13.000593375Q0.80042446,12.951467375,0.77781439,12.896882375Q0.75520432,12.842295375,0.74367774,12.784347375Q0.73215127,12.726400375,0.73215121,12.667318375Q0.73215127,12.608234375,0.74367779,12.550287375Q0.75520432,12.492338375,0.77781445,12.437752375Q0.80042452,12.383167375,0.83324927,12.334041375Q0.86607403,12.284916375,0.90785205,12.243138375Q0.9496300799999999,12.201360375,0.99875581,12.168535375Q1.0478815400000001,12.135709375,1.10246713,12.113100375Q1.15705273,12.090490375,1.21500048,12.078964375Q1.272948228,12.067438375,1.33203125,12.067438375L1.33203125,12.066356375L2.73106985,12.066356375L2.7310690500000003,6.000650875Q2.73106985,3.818724375,4.27392075,2.275873725Q5.81677155,0.733022865,7.99869585,0.733023165Q10.18062405,0.733023345,11.72347525,2.2758736649999998Q13.26632725,3.818723875,13.26632725,6.000651375L13.26632725,12.066356375ZM3.93299295,12.066356375L12.06440325,12.066356375L12.06440325,6.000651375Q12.06440325,4.316577675,10.87358765,3.1257618750000002Q9.68277075,1.9349461749999999,7.99869585,1.9349461749999999Q6.31462435,1.9349458849999999,5.12380835,3.125761775Q3.93299295,4.316576975,3.93299225,6.000651375L3.93299295,12.066356375Z" fill-rule="evenodd" fill="#3662EC" fill-opacity="1" style="mix-blend-mode:passthrough"/><path d="M8,14.80859375C9.1045599,14.80859375,10,14.06239315,10,13.14192709L10,12.80859375L6,12.80859375L6,13.14192709C6,14.06239315,6.89543998,14.80859375,8,14.80859375Z" fill="#3662EC" fill-opacity="1"/><path d="M5.39903849,12.80859375L5.39903849,13.14192709Q5.39903849,13.62478864,5.62128568,14.06266055Q5.82913515,14.47216615,6.20106378,14.78210665Q6.95400202,15.40955515,8,15.40955515Q9.0459979,15.40955515,9.7989361,14.78210655Q10.1708655,14.472165350000001,10.3787146,14.06266055Q10.6009617,13.6247887,10.6009617,13.141927L10.6009617,12.80859375Q10.6009617,12.749404211,10.589414099999999,12.69135199Q10.5778666,12.63329977,10.5552158,12.57861577Q10.5325651,12.52393177,10.499680999999999,12.47471744Q10.4667969,12.42550313,10.424943899999999,12.38364983Q10.3830905,12.34179652,10.333876100000001,12.30891261Q10.2846618,12.27602863,10.2299776,12.253377799999999Q10.1752939,12.23072696,10.1172419,12.21917963Q10.0591893,12.2076323,10,12.20763224L6,12.20763224Q5.940810461,12.2076323,5.88275824,12.21917963Q5.82470602,12.23072696,5.77002202,12.253377799999999Q5.71533802,12.27602863,5.66612369,12.30891258Q5.61690938,12.34179652,5.57505608,12.38364983Q5.53320277,12.42550313,5.50031886,12.47471747Q5.46743488,12.52393177,5.44478405,12.57861577Q5.42213321,12.63329977,5.41058588,12.69135199Q5.39903855,12.749404211,5.39903849,12.80859375ZM6.64410549,13.40955526Q6.72723132,13.65602648,6.9705162000000005,13.85876395Q7.3891582,14.20763235,8,14.20763235Q8.6108413,14.20763235,9.029483599999999,13.85876385Q9.2727687,13.65602618,9.3558946,13.40955526L6.64410549,13.40955526Z" fill-rule="evenodd" fill="#3662EC" fill-opacity="1" style="mix-blend-mode:passthrough"/></g></svg>