<svg xmlns="http://www.w3.org/2000/svg" xmlns:xlink="http://www.w3.org/1999/xlink" fill="none" version="1.1" width="184.76" height="66" viewBox="0 0 184.760009765625 66"><path d="M0,0C0,0,180.75999,0,180.75999,0C181.82086,4.4408921e-16,182.83827,0.42142719,183.58842,1.1715727C184.33858,1.9217181,184.75999,2.9391341,184.75999,4C184.75999,4,184.75999,8,184.75999,8C184.75999,9.0608664,184.33858,10.078281,183.58842,10.828427C182.83827,11.578573,181.82086,12,180.75999,12C180.75999,12,0,12,0,12C0,12,0,0,0,0Z" fill="#3D6FE8" fill-opacity="1"/><path d="M0,18C0,18,85.279999,18,85.279999,18C86.340866,18,87.358284,18.42142814,88.108429,19.1715736C88.858574,19.9217191,89.279999,20.9391341,89.279999,22C89.279999,22,89.279999,26,89.279999,26C89.279999,27.060866400000002,88.858574,28.07828,88.108429,28.828426C87.358284,29.578572,86.340866,30,85.279999,30C85.279999,30,0,30,0,30C0,30,0,18,0,18Z" fill="#0EA5E9" fill-opacity="1"/><path d="M0,36C0,36,62.339996,36,62.339996,36C63.400864,36,64.418282,36.42142814,65.168427,37.1715736C65.918571,37.9217191,66.339996,38.9391341,66.339996,40C66.339996,40,66.339996,44,66.339996,44C66.339996,45.0608664,65.918571,46.07828,65.168427,46.828426C64.418282,47.578572,63.400864,48,62.339996,48C62.339996,48,0,48,0,48C0,48,0,36,0,36Z" fill="#10B981" fill-opacity="1"/><path d="M0,54C0,54,40.019997,54,40.019997,54C41.080864,54,42.098282,54.42142814,42.848427,55.1715736C43.598572,55.9217191,44.019997,56.9391341,44.019997,58C44.019997,58,44.019997,62,44.019997,62C44.019997,63.0608664,43.598572,64.078284,42.848427,64.82843C42.098282,65.578576,41.080864,66,40.019997,66C40.019997,66,0,66,0,66C0,66,0,54,0,54Z" fill="#8B5CF6" fill-opacity="1"/></svg>