<svg xmlns="http://www.w3.org/2000/svg" xmlns:xlink="http://www.w3.org/1999/xlink" fill="none" version="1.1" width="109" height="146.77" viewBox="0 0 176.3653106689453 167.6858673095703"><defs><filter id="master_svg0_2_4752" filterUnits="objectBoundingBox" color-interpolation-filters="sRGB" x="-0.14101575410377878" y="-0.12003315124569011" width="1.2820315082075575" height="1.3000828781142253"><feFlood flood-opacity="0" result="BackgroundImageFix"/><feColorMatrix in="SourceAlpha" type="matrix" values="0 0 0 0 0 0 0 0 0 0 0 0 0 0 0 0 0 0 127 0"/><feOffset dy="4" dx="0"/><feGaussianBlur stdDeviation="5"/><feColorMatrix in="SourceAlpha" type="matrix" values="0 0 0 0 0 0 0 0 0 0 0 0 0 0 0 0 0 0 0.18000000715255737 0"/><feBlend mode="normal" in2="BackgroundImageFix" result="effect1_dropShadow"/><feBlend mode="normal" in="SourceGraphic" in2="effect1_dropShadow" result="shape"/></filter></defs><g filter="url(#master_svg0_2_4752)"><path d="M16.999996960163116,135.59690978027345C16.999996960163116,135.59690978027345,16.999996960163116,53.59690878027344,16.999996960163116,53.59690878027344C16.999996960163116,53.59690878027344,86.82812196016312,13.300399780273438,86.82812196016312,13.300399780273438C86.82812196016312,13.300399780273438,158.82811696016313,53.59690878027344,158.82811696016313,53.59690878027344C158.82811696016313,53.59690878027344,130.82811696016313,120.09690978027344,130.82811696016313,120.09690978027344Q130.82811696016313,120.09690978027344,86.82812196016312,146.59690978027345Q16.999996960163116,135.59690978027345,16.999996960163116,135.59690978027345Z" fill="#08C08F" fill-opacity="0.2500000035762787"/><path d="M14.999996960163116,52.441940780273434L14.999996960163116,135.59690978027345L14.999996760163116,137.30651978027345L87.23620296016311,148.68586978027345L132.4184169601631,121.47384978027344L161.3653069601631,52.724975780273434L86.81299296016311,11.000000680273438L14.999996960163116,52.441940780273434ZM16.999996960163116,135.59690978027345L16.999996960163116,53.59690878027344L86.82812196016312,13.300399780273438L158.82811696016313,53.59690978027344L130.82811696016313,120.09690978027344L86.82812196016312,146.59690978027345L16.999996960163116,135.59690978027345Z" fill-rule="evenodd" fill="#08C08F" fill-opacity="1"/></g></svg>
