<svg xmlns="http://www.w3.org/2000/svg" xmlns:xlink="http://www.w3.org/1999/xlink" fill="none" version="1.1" width="19" height="19" viewBox="0 0 19 19"><defs><clipPath id="master_svg0_2_9943"><rect x="-0.7916666865348816" y="-0.7916666865348816" width="20.583333373069763" height="20.583333373069763" rx="0"/></clipPath></defs><g clip-path="url(#master_svg0_2_9943)"><path d="M6.005413915441895,1.2554140346511842Q5.541666325441895,1.7191616146511841,5.541666325441895,2.374999824651184L5.541666205441895,3.958332434651184Q5.541666325441895,4.6141709346511846,6.005413625441895,5.0779186346511835Q6.469161155441895,5.541666634651184,7.124999705441894,5.541666634651184L11.874998115441894,5.541666634651184Q12.530837515441895,5.541666634651184,12.994585515441894,5.077919334651185Q13.458333015441895,4.614172334651184,13.458333015441895,3.958333134651184L13.458333015441895,2.374999824651184Q13.458333015441895,1.719161954651184,12.994585515441894,1.2554140346511842Q12.530837515441895,0.7916664446511841,11.875000015441895,0.7916664446511841L7.124999585441895,0.791666324651184Q6.469161515441894,0.7916664446511841,6.005413915441895,1.2554140346511842ZM7.124999585441895,3.958332434651184L7.124999705441894,2.374999824651184L11.875000015441895,2.374999824651184L11.874998115441894,3.958333134651184L7.124999585441895,3.958332434651184Z" fill-rule="evenodd" fill="#3D6FE8" fill-opacity="1"/><path d="M4.749999907720947,3.9583331977209473L6.333333207720948,3.9583331977209473L6.333333207720948,3.956508577720947Q6.411125707720947,3.9565085177209474,6.487423407720947,3.941331927720947Q6.563721207720947,3.9261553277209473,6.635592207720947,3.8963853677209475Q6.707463307720947,3.866615417720947,6.7721453077209475,3.8233961477209473Q6.836827707720947,3.7801768777209475,6.891835707720947,3.7251691777209475Q6.946843407720947,3.6701614877209474,6.990062507720947,3.6054792377209472Q7.033281807720947,3.540796997720947,7.063051907720947,3.4689259577209475Q7.092822107720947,3.397054907720947,7.107998607720948,3.3207570277209473Q7.123175107720947,3.2444591527209474,7.1231754077209475,3.1666665077209473Q7.123175107720947,3.088873862720947,7.107998607720948,3.0125759877209473Q7.092822107720947,2.9362781077209474,7.063051907720947,2.864407057720947Q7.033281807720947,2.7925360177209475,6.990062707720947,2.7278537777209473Q6.946843607720947,2.663171527720947,6.891835907720948,2.608163837720947Q6.836828007720947,2.553156137720947,6.772145707720947,2.5099369277209473Q6.707463307720947,2.4667175977209475,6.635592507720947,2.436947707720947Q6.563721407720948,2.407177687720947,6.487423707720947,2.3920010877209474Q6.411125707720947,2.376824497720947,6.333333207720948,2.3768244377209475L6.333333207720948,2.3749998177209473L4.749999907720947,2.3749998177209473Q3.766242507720947,2.3749998177209473,3.0706211177209473,3.0706211177209473Q2.3749998777209473,3.7662423277209474,2.3749998177209473,4.749999907720947L2.3749998177209473,15.833333507720948Q2.3749998177209473,16.817091507720946,3.070621400720947,17.512711507720947Q3.766246377720947,18.208333507720948,4.749999907720947,18.208333507720948L14.250000507720948,18.208333507720948Q15.233754507720947,18.208333507720948,15.929378507720948,17.512713507720946Q16.625000507720948,16.817088507720946,16.625000507720948,15.833333507720948L16.625000507720948,4.749999907720947Q16.625000507720948,3.7662445877209474,15.929378507720948,3.0706213117209473Q15.233757507720947,2.3749998177209473,14.250000507720948,2.3749998177209473L12.666666507720947,2.3749998177209473L12.666666507720947,2.3768244377209475Q12.588873407720948,2.376824497720947,12.512575607720947,2.3920010877209474Q12.436276907720947,2.407177687720947,12.364406107720948,2.436947647720947Q12.292534307720947,2.4667175977209475,12.227853307720947,2.5099368677209473Q12.163171307720948,2.553156137720947,12.108164307720948,2.608163837720947Q12.053156407720948,2.663171527720947,12.009936807720948,2.7278537777209473Q11.966717207720947,2.7925360177209475,11.936947307720947,2.864407057720947Q11.907177407720948,2.9362781077209474,11.892000707720948,3.0125759877209473Q11.876823907720947,3.088873862720947,11.876824807720947,3.1666665077209473Q11.876823907720947,3.2444591527209474,11.892000707720948,3.3207570277209473Q11.907177407720948,3.397054907720947,11.936947307720947,3.4689259577209475Q11.966717207720947,3.540796997720947,12.009936807720948,3.6054792377209472Q12.053156407720948,3.6701614877209474,12.108164307720948,3.7251691777209475Q12.163171307720948,3.7801768777209475,12.227852307720948,3.823396087720947Q12.292534307720947,3.866615417720947,12.364406107720948,3.8963853077209474Q12.436276907720947,3.9261553277209473,12.512575607720947,3.941331927720947Q12.588873407720948,3.9565085177209474,12.666666507720947,3.956508577720947L12.666666507720947,3.9583331977209473L14.250000507720948,3.958333137720947Q14.577919507720948,3.958333137720947,14.809790507720948,4.190206507720947Q15.041666507720947,4.422083007720947,15.041666507720947,4.749999907720947L15.041666507720947,15.833333507720948Q15.041666507720947,16.161252507720945,14.809793507720947,16.393124507720948Q14.577916507720948,16.625000507720948,14.250000507720948,16.625000507720948L4.749999907720947,16.625000507720948Q4.4220828077209475,16.625000507720948,4.190206607720947,16.393125507720946Q3.9583331977209473,16.161252507720945,3.9583331977209473,15.833333507720948L3.958333137720947,4.749999907720947Q3.958333137720947,4.422080707720947,4.190206807720948,4.1902070077209475Q4.422080507720947,3.9583331977209473,4.749999907720947,3.9583331977209473Z" fill-rule="evenodd" fill="#3D6FE8" fill-opacity="1"/><path d="M9.5,9.499999705441894L12.6666667,9.499999705441894L12.6666667,9.498175085441895Q12.7444592,9.498175025441894,12.8207569,9.482998435441894Q12.8970547,9.467821835441894,12.9689257,9.438051875441895Q13.040796799999999,9.408281925441894,13.1054788,9.365062655441895Q13.170161199999999,9.321843385441895,13.2251692,9.266835685441894Q13.2801769,9.211827995441894,13.323395999999999,9.147145745441895Q13.3666153,9.082463505441895,13.3963854,9.010592465441894Q13.4261556,8.938721415441895,13.4413321,8.862423535441895Q13.4565086,8.786125660441895,13.4565089,8.708333015441895Q13.4565086,8.630540370441894,13.4413321,8.554242495441894Q13.4261556,8.477944615441894,13.3963854,8.406073565441895Q13.3666153,8.334202525441894,13.3233962,8.269520285441894Q13.2801771,8.204838035441895,13.2251694,8.149830345441895Q13.170161499999999,8.094822645441894,13.1054792,8.051603435441894Q13.040796799999999,8.008384105441895,12.968926,7.978614215441895Q12.8970549,7.948844195441895,12.8207572,7.933667595441895Q12.7444592,7.918491005441894,12.6666667,7.918490945441895L12.6666667,7.916666325441895L9.5,7.916666325441895L9.5,7.918490945441895Q9.422207355,7.918491005441894,9.34590948,7.933667595441895Q9.2696116,7.948844195441895,9.19774055,7.978614155441894Q9.12586951,8.008384105441895,9.06118727,8.051603375441895Q8.99650502,8.094822645441894,8.94149733,8.149830345441895Q8.88648963,8.204838035441895,8.84327042,8.269520285441894Q8.80005109,8.334202525441894,8.7702812,8.406073565441895Q8.74051118,8.477944615441894,8.72533458,8.554242495441894Q8.71015799,8.630540370441894,8.71015793,8.708333015441895Q8.71015799,8.786125660441895,8.72533458,8.862423535441895Q8.74051118,8.938721415441895,8.77028114,9.010592465441894Q8.80005109,9.082463505441895,8.84327036,9.147145745441895Q8.88648963,9.211827995441894,8.94149733,9.266835685441894Q8.99650502,9.321843385441895,9.06118727,9.365062595441895Q9.12586951,9.408281925441894,9.19774055,9.438051815441895Q9.2696116,9.467821835441894,9.34590948,9.482998435441894Q9.422207355,9.498175025441894,9.5,9.498175085441895L9.5,9.499999705441894Z" fill-rule="evenodd" fill="#3D6FE8" fill-opacity="1"/><path d="M9.5,13.458333674558105L12.6666667,13.458333674558105L12.6666667,13.456509054558106Q12.7444592,13.456508994558105,12.8207569,13.441332404558105Q12.8970547,13.426155804558105,12.9689257,13.396385844558106Q13.040796799999999,13.366615894558105,13.1054788,13.323396624558105Q13.170161199999999,13.280177354558106,13.2251692,13.225169654558105Q13.2801769,13.170161964558105,13.323395999999999,13.105479714558106Q13.3666153,13.040797474558106,13.3963854,12.968926434558105Q13.4261556,12.897055384558106,13.4413321,12.820757504558106Q13.4565086,12.744459629558106,13.4565089,12.666666984558105Q13.4565086,12.588874339558105,13.4413321,12.512576464558105Q13.4261556,12.436278584558105,13.3963854,12.364407534558106Q13.3666153,12.292536494558105,13.3233962,12.227854254558105Q13.2801771,12.163172004558106,13.2251694,12.108164314558106Q13.170161499999999,12.053156614558105,13.1054792,12.009937404558105Q13.040796799999999,11.966718074558106,12.968926,11.936948184558105Q12.8970549,11.907178164558106,12.8207572,11.892001564558106Q12.7444592,11.876824974558106,12.6666667,11.876824914558105L12.6666667,11.875000294558106L9.5,11.875000294558106L9.5,11.876824914558105Q9.422207355,11.876824974558106,9.34590948,11.892001564558106Q9.2696116,11.907178164558106,9.19774055,11.936948124558105Q9.12586951,11.966718074558106,9.06118727,12.009937344558105Q8.99650502,12.053156614558105,8.94149733,12.108164314558106Q8.88648963,12.163172004558106,8.84327042,12.227854254558105Q8.80005109,12.292536494558105,8.7702812,12.364407534558106Q8.74051118,12.436278584558105,8.72533458,12.512576464558105Q8.71015799,12.588874339558105,8.71015793,12.666666984558105Q8.71015799,12.744459629558106,8.72533458,12.820757504558106Q8.74051118,12.897055384558106,8.77028114,12.968926434558105Q8.80005109,13.040797474558106,8.84327036,13.105479714558106Q8.88648963,13.170161964558105,8.94149733,13.225169654558105Q8.99650502,13.280177354558106,9.06118727,13.323396564558106Q9.12586951,13.366615894558105,9.19774055,13.396385784558106Q9.2696116,13.426155804558105,9.34590948,13.441332404558105Q9.422207355,13.456508994558105,9.5,13.456509054558106L9.5,13.458333674558105Z" fill-rule="evenodd" fill="#3D6FE8" fill-opacity="1"/><path d="M6.3333330154418945,9.498175085441895L6.3333330154418945,9.499999705441894L6.341249863641894,9.499999705441894L6.341249863641894,9.498175085441895Q6.419042512441894,9.498175025441894,6.495340375441894,9.482998435441894Q6.571638255441894,9.467821835441894,6.643509295441895,9.438051875441895Q6.7153803154418945,9.408281925441894,6.780062555441894,9.365062655441895Q6.844744805441895,9.321843385441895,6.899752495441895,9.266835685441894Q6.954760195441894,9.211827995441894,6.997979465441895,9.147145745441895Q7.041198735441895,9.082463505441895,7.070968685441894,9.010592465441894Q7.100738645441894,8.938721415441895,7.115915295441894,8.862423535441895Q7.131091955441894,8.786125660441895,7.131091955441894,8.708333015441895Q7.131091955441894,8.630540370441894,7.115915355441895,8.554242495441894Q7.100738705441895,8.477944615441894,7.070968745441895,8.406073565441895Q7.041198785441894,8.334202525441894,6.997979525441894,8.269520285441894Q6.954760255441895,8.204838035441895,6.899752555441895,8.149830345441895Q6.8447448654418945,8.094822645441894,6.780062615441895,8.051603435441894Q6.715380375441894,8.008384105441895,6.643509325441895,7.978614215441895Q6.571638285441894,7.948844195441895,6.495340405441895,7.933667595441895Q6.4190425354418945,7.918491005441894,6.341249883141894,7.918490945441895L6.341249863641894,7.916666325441895L6.3333330154418945,7.916666325441895L6.3333330154418945,7.918490945441895Q6.255540370441895,7.918491005441894,6.179242495441894,7.933667595441895Q6.102944615441895,7.948844195441895,6.031073565441894,7.978614155441894Q5.959202525441895,8.008384105441895,5.894520285441894,8.051603375441895Q5.829838035441894,8.094822645441894,5.774830345441894,8.149830345441895Q5.719822645441894,8.204838035441895,5.676603435441894,8.269520285441894Q5.633384105441895,8.334202525441894,5.603614215441895,8.406073565441895Q5.573844195441895,8.477944615441894,5.558667595441895,8.554242495441894Q5.543491005441894,8.630540370441894,5.543490945441895,8.708333015441895Q5.543491005441894,8.786125660441895,5.558667595441895,8.862423535441895Q5.573844195441895,8.938721415441895,5.603614155441894,9.010592465441894Q5.633384105441895,9.082463505441895,5.6766033754418945,9.147145745441895Q5.719822645441894,9.211827995441894,5.774830345441894,9.266835685441894Q5.829838035441894,9.321843385441895,5.894520285441894,9.365062595441895Q5.959202525441895,9.408281925441894,6.031073565441894,9.438051815441895Q6.102944615441895,9.467821835441894,6.179242495441894,9.482998435441894Q6.255540370441895,9.498175025441894,6.3333330154418945,9.498175085441895Z" fill-rule="evenodd" fill="#3D6FE8" fill-opacity="1"/><path d="M6.3333330154418945,13.456509054558106L6.3333330154418945,13.458333674558105L6.341249863641894,13.458333674558105L6.341249863641894,13.456509054558106Q6.419042512441894,13.456508994558105,6.495340375441894,13.441332404558105Q6.571638255441894,13.426155804558105,6.643509295441895,13.396385844558106Q6.7153803154418945,13.366615894558105,6.780062555441894,13.323396624558105Q6.844744805441895,13.280177354558106,6.899752495441895,13.225169654558105Q6.954760195441894,13.170161964558105,6.997979465441895,13.105479714558106Q7.041198735441895,13.040797474558106,7.070968685441894,12.968926434558105Q7.100738645441894,12.897055384558106,7.115915295441894,12.820757504558106Q7.131091955441894,12.744459629558106,7.131091955441894,12.666666984558105Q7.131091955441894,12.588874339558105,7.115915355441895,12.512576464558105Q7.100738705441895,12.436278584558105,7.070968745441895,12.364407534558106Q7.041198785441894,12.292536494558105,6.997979525441894,12.227854254558105Q6.954760255441895,12.163172004558106,6.899752555441895,12.108164314558106Q6.8447448654418945,12.053156614558105,6.780062615441895,12.009937404558105Q6.715380375441894,11.966718074558106,6.643509325441895,11.936948184558105Q6.571638285441894,11.907178164558106,6.495340405441895,11.892001564558106Q6.4190425354418945,11.876824974558106,6.341249883141894,11.876824914558105L6.341249863641894,11.875000294558106L6.3333330154418945,11.875000294558106L6.3333330154418945,11.876824914558105Q6.255540370441895,11.876824974558106,6.179242495441894,11.892001564558106Q6.102944615441895,11.907178164558106,6.031073565441894,11.936948124558105Q5.959202525441895,11.966718074558106,5.894520285441894,12.009937344558105Q5.829838035441894,12.053156614558105,5.774830345441894,12.108164314558106Q5.719822645441894,12.163172004558106,5.676603435441894,12.227854254558105Q5.633384105441895,12.292536494558105,5.603614215441895,12.364407534558106Q5.573844195441895,12.436278584558105,5.558667595441895,12.512576464558105Q5.543491005441894,12.588874339558105,5.543490945441895,12.666666984558105Q5.543491005441894,12.744459629558106,5.558667595441895,12.820757504558106Q5.573844195441895,12.897055384558106,5.603614155441894,12.968926434558105Q5.633384105441895,13.040797474558106,5.6766033754418945,13.105479714558106Q5.719822645441894,13.170161964558105,5.774830345441894,13.225169654558105Q5.829838035441894,13.280177354558106,5.894520285441894,13.323396564558106Q5.959202525441895,13.366615894558105,6.031073565441894,13.396385784558106Q6.102944615441895,13.426155804558105,6.179242495441894,13.441332404558105Q6.255540370441895,13.456508994558105,6.3333330154418945,13.456509054558106Z" fill-rule="evenodd" fill="#3D6FE8" fill-opacity="1"/></g></svg>