<svg xmlns="http://www.w3.org/2000/svg" xmlns:xlink="http://www.w3.org/1999/xlink" fill="none" version="1.1" width="14" height="14" viewBox="0 0 14 14"><defs><clipPath id="master_svg0_2_00489"><rect x="-0.5833333134651184" y="-0.5833333134651184" width="15.166666626930237" height="15.166666626930237" rx="0"/></clipPath></defs><g clip-path="url(#master_svg0_2_00489)"><path d="M3.5,13.4166259765625L10.499999500000001,13.4166259765625Q10.5574522,13.4166259765625,10.613802,13.4054169765625Q10.6701508,13.3942069765625,10.7232308,13.3722209765625Q10.7763109,13.3502349765625,10.8240814,13.3183159765625Q10.8718529,13.2863959765625,10.912478400000001,13.2457709765625Q10.953104,13.2051449765625,10.985023,13.1573729765625Q11.016942,13.1096039765625,11.0389285,13.0565229765625Q11.060915,13.0034429765625,11.0721235,12.9470939765625Q11.083333,12.8907449765625,11.083333,12.8332919765625L11.083333,2.3332924765625Q11.083333,1.6084188565625,10.5707698,1.0958556535625Q10.0582061,0.5832926665625,9.333333,0.5832926665625L4.6666665,0.5832926665625Q3.94179288,0.5832926065625,3.429229811,1.0958557055625Q2.91666669,1.6084187365625,2.91666669,2.3332925765625L2.91666669,12.8332919765625Q2.91666675,12.8907449765625,2.92787534,12.9470939765625Q2.93908393,13.0034429765625,2.96107036,13.0565219765625Q2.98305678,13.1096029765625,3.01497611,13.1573739765625Q3.04689544,13.2051449765625,3.08752108,13.2457709765625Q3.12814671,13.2863959765625,3.17591739,13.3183159765625Q3.22368807,13.3502349765625,3.27676803,13.3722219765625Q3.32984796,13.3942079765625,3.38619733,13.4054169765625Q3.442546688,13.4166259765625,3.5,13.4166259765625ZM9.9166665,12.2499589765625L9.9166665,2.3332924765625Q9.9166665,2.0916682465625,9.7458119,1.9208137365625Q9.574957399999999,1.7499592865625,9.333333,1.7499592865625L4.6666665,1.7499592865625Q4.42504197,1.7499592865625,4.25418764,1.9208136165625Q4.08333331,2.0916679465625,4.08333331,2.3332925765625L4.08333331,12.2499589765625L9.9166665,12.2499589765625Z" fill-rule="evenodd" fill="#56C08D" fill-opacity="1"/><path d="M3.4999592765625,7.58488297Q3.5575651765625,7.58488297,3.6140639765625,7.57364464Q3.6705631765625,7.56240624,3.7237839765625,7.5403614Q3.7770049765625,7.51831657,3.8249025765625,7.48631239Q3.8728000765625,7.45430824,3.9135336765625,7.4135747Q3.9542669765625,7.37284112,3.9862713765625,7.32494354Q4.018275476562501,7.27704594,4.0403203765625,7.22382499Q4.062365576562501,7.17060405,4.073603876562499,7.11410499Q4.0848421765625,7.057605941,4.0848421765625,7Q4.0848421765625,6.942394059,4.0736036765625006,6.88589501Q4.062365576562501,6.82939595,4.0403203765625,6.77617501Q4.018275476562501,6.72295406,3.9862713765625,6.67505646Q3.9542669765625,6.62715888,3.9135336765625,6.5864253Q3.8728000765625,6.54569176,3.8249025765625,6.51368761Q3.7770049765625,6.48168343,3.7237839765625,6.4596386Q3.6705631765625,6.43759376,3.6140639765625,6.42635542Q3.5575651765625,6.41511703,3.4999592765625,6.41511703Q3.4786569765625,6.41511703,3.4574110765625,6.41666669L2.3332925765625,6.41666669Q1.6084189965625,6.41666675,1.0958558025625,6.929229997Q0.5832926665625,7.44179302,0.5832926665625,8.1666666L0.5832926665625,11.6666665Q0.5832926665625,12.3915405,1.0958553105625,12.9041028Q1.6084181065625,13.4166665,2.3332925765625,13.4166665L3.4574038765625,13.4166665Q3.4786531765625,13.4182167,3.4999592765625,13.4182167Q3.5575651765625,13.4182167,3.6140639765625,13.406977699999999Q3.6705631765625,13.395739599999999,3.7237839765625,13.3736949Q3.7770049765625,13.3516498,3.8249025765625,13.319645900000001Q3.8728000765625,13.2876415,3.9135336765625,13.2469082Q3.9542669765625,13.2061744,3.9862713765625,13.1582766Q4.018275476562501,13.1103792,4.0403203765625,13.0571585Q4.062365576562501,13.0039377,4.073603876562499,12.9474382Q4.0848421765625,12.8909392,4.0848421765625,12.8333335Q4.0848421765625,12.7757273,4.0736036765625006,12.719227799999999Q4.062365576562501,12.662728300000001,4.0403203765625,12.6095076Q4.018275476562501,12.556286799999999,3.9862713765625,12.5083895Q3.9542669765625,12.4604917,3.9135336765625,12.4197583Q3.8728000765625,12.3790245,3.8249025765625,12.3470206Q3.7770049765625,12.3150163,3.7237839765625,12.292971099999999Q3.6705631765625,12.2709265,3.6140639765625,12.2596884Q3.5575651765625,12.2484503,3.4999592765625,12.2484503Q3.4786565765625,12.2484503,3.4574103765625,12.25L2.3332925765625,12.25Q2.0916680665625,12.25,1.9208137965624998,12.0791454Q1.7499592265625,11.9082909,1.7499592265625,11.6666665L1.7499592865625,8.1666666Q1.7499592865625,7.9250422700000005,1.9208136165625,7.75418794Q2.0916682465625,7.58333325,2.3332925765625,7.58333325L3.4574110765625,7.58333331Q3.4786569765625,7.58488297,3.4999592765625,7.58488297Z" fill-rule="evenodd" fill="#56C08D" fill-opacity="1"/><path d="M10.542548113,5.83333331Q10.521302277,5.83488297,10.5,5.83488297Q10.442394059,5.83488297,10.38589501,5.82364464Q10.32939595,5.81240624,10.27617501,5.7903614Q10.22295406,5.76831657,10.17505646,5.73631239Q10.12715888,5.70430824,10.0864253,5.6635747Q10.04569176,5.62284112,10.01368761,5.57494354Q9.98168343,5.52704594,9.9596386,5.47382499Q9.93759376,5.42060405,9.92635542,5.36410499Q9.91511703,5.307605941,9.91511703,5.25Q9.91511703,5.192394059,9.92635536,5.13589501Q9.93759376,5.07939595,9.9596386,5.02617501Q9.98168343,4.97295406,10.01368761,4.92505646Q10.04569176,4.87715888,10.0864253,4.8364253Q10.12715888,4.79569176,10.17505646,4.76368761Q10.22295406,4.73168343,10.27617501,4.7096386Q10.32939595,4.68759376,10.38589501,4.67635542Q10.442394059,4.66511703,10.5,4.66511703Q10.521302262,4.66511703,10.542548083,4.66666669L11.6666666,4.66666669Q12.3915397,4.66666669,12.9041023,5.179229617Q13.4166665,5.69179288,13.4166665,6.4166666L13.4166665,11.666667Q13.4166665,12.3915401,12.904103,12.9041033Q12.3915397,13.416666,11.6666666,13.416666L10.542561963,13.416666Q10.52130923,13.4182167,10.5,13.4182167Q10.442394059,13.4182167,10.38589501,13.4069767Q10.32939595,13.3957386,10.27617501,13.3736935Q10.22295406,13.3516483,10.17505646,13.3196449Q10.12715888,13.2876415,10.0864253,13.246907199999999Q10.04569176,13.2061739,10.01368761,13.1582761Q9.98168343,13.1103783,9.9596386,13.057157499999999Q9.93759376,13.0039368,9.92635542,12.9474382Q9.91511703,12.8909397,9.91511703,12.8333335Q9.91511703,12.7757273,9.92635536,12.719227799999999Q9.93759376,12.662728300000001,9.9596386,12.6095076Q9.98168343,12.5562863,10.01368761,12.508389000000001Q10.04569176,12.4604912,10.0864253,12.4197583Q10.12715888,12.3790245,10.17505646,12.3470206Q10.22295406,12.3150163,10.27617501,12.292971099999999Q10.32939595,12.2709265,10.38589501,12.2596889Q10.442394059,12.2484503,10.5,12.2484503Q10.521302668,12.2484503,10.542548891,12.25L11.6666666,12.25Q11.9082904,12.25,12.0791456,12.079145Q12.25,11.9082909,12.25,11.666667L12.25,6.4166666Q12.25,6.17504275,12.0791452,6.00418836Q11.9082905,5.83333325,11.6666666,5.83333325L10.542548113,5.83333331Z" fill-rule="evenodd" fill="#56C08D" fill-opacity="1"/><path d="M5.8759221064375,4.08333331Q5.8546762854375,4.08488297,5.8333740234375,4.08488297Q5.7757680824375,4.08488297,5.7192690334375,4.07364464Q5.6627699734375,4.06240624,5.6095490334375,4.0403614Q5.5563280834375,4.01831657,5.5084304834375,3.98631239Q5.4605329034375,3.95430824,5.4197993234375,3.9135747Q5.3790657834375,3.87284112,5.3470616334375,3.82494354Q5.3150574534375,3.77704594,5.2930126234375,3.72382499Q5.2709677834375,3.67060405,5.2597294434375,3.61410499Q5.2484910534375,3.557605941,5.2484910534375,3.5Q5.2484910534375,3.442394059,5.2597293834375,3.38589501Q5.2709677834375,3.32939595,5.2930126234375,3.27617501Q5.3150574534375,3.22295406,5.3470616334375,3.17505646Q5.3790657834375,3.12715888,5.4197993234375,3.0864253Q5.4605329034375,3.04569176,5.5084304834375,3.01368761Q5.5563280834375,2.98168343,5.6095490334375,2.9596386Q5.6627699734375,2.93759376,5.7192690334375,2.92635542Q5.7757680824375,2.91511703,5.8333740234375,2.91511703Q5.8546762854375,2.91511703,5.8759221064375,2.91666669L8.1241591234375,2.91666669Q8.145405023437501,2.91511703,8.1667073234375,2.91511703Q8.2243132234375,2.91511703,8.2808120234375,2.92635536Q8.3373112234375,2.93759376,8.3905320234375,2.9596386Q8.4437530234375,2.98168343,8.4916506234375,3.01368761Q8.5395481234375,3.04569176,8.5802817234375,3.0864253Q8.6210150234375,3.12715888,8.6530194234375,3.17505646Q8.6850235234375,3.22295406,8.7070684234375,3.27617501Q8.7291136234375,3.32939595,8.7403519234375,3.38589501Q8.7515902234375,3.442394059,8.7515902234375,3.5Q8.7515902234375,3.557605941,8.7403517234375,3.61410499Q8.7291136234375,3.67060405,8.7070684234375,3.72382499Q8.6850235234375,3.77704594,8.6530194234375,3.82494354Q8.6210150234375,3.87284112,8.5802817234375,3.9135747Q8.5395481234375,3.95430824,8.4916506234375,3.98631239Q8.4437530234375,4.01831657,8.3905320234375,4.0403614Q8.3373112234375,4.06240624,8.2808120234375,4.07364458Q8.2243132234375,4.08488297,8.1667073234375,4.08488297Q8.145405023437501,4.08488297,8.1241591234375,4.08333331L5.8759221064375,4.08333331Z" fill-rule="evenodd" fill="#56C08D" fill-opacity="1"/><path d="M5.8759221064375,6.4167073334375Q5.8546762854375,6.4182569934375,5.8333740234375,6.4182569934375Q5.7757680824375,6.4182569934375,5.7192690334375,6.4070186634375Q5.6627699734375,6.3957802634375,5.6095490334375,6.3737354234375Q5.5563280834375,6.3516905934375,5.5084304834375,6.3196864134375Q5.4605329034375,6.2876822634375,5.4197993234375,6.2469487234375Q5.3790657834375,6.2062151434375,5.3470616334375,6.1583175634375Q5.3150574534375,6.1104199634375,5.2930126234375,6.0571990134375Q5.2709677834375,6.0039780734375,5.2597294434375,5.9474790134375Q5.2484910534375,5.8909799644375,5.2484910534375,5.8333740234375Q5.2484910534375,5.7757680824375,5.2597293834375,5.7192690334375Q5.2709677834375,5.6627699734375,5.2930126234375,5.6095490334375Q5.3150574534375,5.5563280834375,5.3470616334375,5.5084304834375Q5.3790657834375,5.4605329034375,5.4197993234375,5.4197993234375Q5.4605329034375,5.3790657834375,5.5084304834375,5.3470616334375Q5.5563280834375,5.3150574534375,5.6095490334375,5.2930126234375Q5.6627699734375,5.2709677834375,5.7192690334375,5.2597294434375Q5.7757680824375,5.2484910534375,5.8333740234375,5.2484910534375Q5.8546762854375,5.2484910534375,5.8759221064375,5.2500407134375L8.1241591234375,5.2500407134375Q8.145405023437501,5.2484910534375,8.1667073234375,5.2484910534375Q8.2243132234375,5.2484910534375,8.2808120234375,5.2597293834375Q8.3373112234375,5.2709677834375,8.3905320234375,5.2930126234375Q8.4437530234375,5.3150574534375,8.4916506234375,5.3470616334375Q8.5395481234375,5.3790657834375,8.5802817234375,5.4197993234375Q8.6210150234375,5.4605329034375,8.6530194234375,5.5084304834375Q8.6850235234375,5.5563280834375,8.7070684234375,5.6095490334375Q8.7291136234375,5.6627699734375,8.7403519234375,5.7192690334375Q8.7515902234375,5.7757680824375,8.7515902234375,5.8333740234375Q8.7515902234375,5.8909799644375,8.7403517234375,5.9474790134375Q8.7291136234375,6.0039780734375,8.7070684234375,6.0571990134375Q8.6850235234375,6.1104199634375,8.6530194234375,6.1583175634375Q8.6210150234375,6.2062151434375,8.5802817234375,6.2469487234375Q8.5395481234375,6.2876822634375,8.4916506234375,6.3196864134375Q8.4437530234375,6.3516905934375,8.3905320234375,6.3737354234375Q8.3373112234375,6.3957802634375,8.2808120234375,6.4070186034375Q8.2243132234375,6.4182569934375,8.1667073234375,6.4182569934375Q8.145405023437501,6.4182569934375,8.1241591234375,6.4167073334375L5.8759221064375,6.4167073334375Z" fill-rule="evenodd" fill="#56C08D" fill-opacity="1"/><path d="M5.8759221064375,8.7499592865625Q5.8546762854375,8.7515089465625,5.8333740234375,8.7515089465625Q5.7757680824375,8.7515089465625,5.7192690334375,8.7402706165625Q5.6627699734375,8.7290322165625,5.6095490334375,8.7069873765625Q5.5563280834375,8.6849425465625,5.5084304834375,8.6529383665625Q5.4605329034375,8.6209342165625,5.4197993234375,8.5802006765625Q5.3790657834375,8.5394670965625,5.3470616334375,8.4915695165625Q5.3150574534375,8.4436719165625,5.2930126234375,8.3904509665625Q5.2709677834375,8.3372300265625,5.2597294434375,8.2807309665625Q5.2484910534375,8.2242319175625,5.2484910534375,8.1666259765625Q5.2484910534375,8.1090200355625,5.2597293834375,8.0525209865625Q5.2709677834375,7.9960219265625,5.2930126234375,7.9428009865625Q5.3150574534375,7.8895800365625,5.3470616334375,7.8416824365625Q5.3790657834375,7.7937848565625,5.4197993234375,7.7530512765625Q5.4605329034375,7.7123177365625,5.5084304834375,7.6803135865625Q5.5563280834375,7.6483094065625,5.6095490334375,7.6262645765625Q5.6627699734375,7.6042197365625,5.7192690334375,7.5929813965625Q5.7757680824375,7.5817430065625,5.8333740234375,7.5817430065625Q5.8546762854375,7.5817430065625,5.8759221064375,7.5832926665625L8.1241591234375,7.5832926665625Q8.145405023437501,7.5817430065625,8.1667073234375,7.5817430065625Q8.2243132234375,7.5817430065625,8.2808120234375,7.5929813365625Q8.3373112234375,7.6042197365625,8.3905320234375,7.6262645765625Q8.4437530234375,7.6483094065625,8.4916506234375,7.6803135865625Q8.5395481234375,7.7123177365625,8.5802817234375,7.7530512765625Q8.6210150234375,7.7937848565625,8.6530194234375,7.8416824365625Q8.6850235234375,7.8895800365625,8.7070684234375,7.9428009865625Q8.7291136234375,7.9960219265625,8.7403519234375,8.0525209865625Q8.7515902234375,8.1090200355625,8.7515902234375,8.1666259765625Q8.7515902234375,8.2242319175625,8.7403517234375,8.2807309665625Q8.7291136234375,8.3372300265625,8.7070684234375,8.3904509665625Q8.6850235234375,8.4436719165625,8.6530194234375,8.4915695165625Q8.6210150234375,8.5394670965625,8.5802817234375,8.5802006765625Q8.5395481234375,8.6209342165625,8.4916506234375,8.6529383665625Q8.4437530234375,8.6849425465625,8.3905320234375,8.7069873765625Q8.3373112234375,8.7290322165625,8.2808120234375,8.7402705565625Q8.2243132234375,8.7515089465625,8.1667073234375,8.7515089465625Q8.145405023437501,8.7515089465625,8.1241591234375,8.7499592865625L5.8759221064375,8.7499592865625Z" fill-rule="evenodd" fill="#56C08D" fill-opacity="1"/><path d="M5.8759221064375,11.08333331Q5.8546762854375,11.08488297,5.8333740234375,11.08488297Q5.7757680824375,11.08488297,5.7192690334375,11.07364464Q5.6627699734375,11.06240624,5.6095490334375,11.0403614Q5.5563280834375,11.01831657,5.5084304834375,10.98631239Q5.4605329034375,10.95430824,5.4197993234375,10.9135747Q5.3790657834375,10.87284112,5.3470616334375,10.82494354Q5.3150574534375,10.77704594,5.2930126234375,10.72382499Q5.2709677834375,10.67060405,5.2597294434375,10.61410499Q5.2484910534375,10.557605941,5.2484910534375,10.5Q5.2484910534375,10.442394059,5.2597293834375,10.38589501Q5.2709677834375,10.32939595,5.2930126234375,10.27617501Q5.3150574534375,10.22295406,5.3470616334375,10.17505646Q5.3790657834375,10.12715888,5.4197993234375,10.0864253Q5.4605329034375,10.04569176,5.5084304834375,10.01368761Q5.5563280834375,9.98168343,5.6095490334375,9.9596386Q5.6627699734375,9.93759376,5.7192690334375,9.92635542Q5.7757680824375,9.91511703,5.8333740234375,9.91511703Q5.8546762854375,9.91511703,5.8759221064375,9.91666669L8.1241591234375,9.91666669Q8.145405023437501,9.91511703,8.1667073234375,9.91511703Q8.2243132234375,9.91511703,8.2808120234375,9.92635536Q8.3373112234375,9.93759376,8.3905320234375,9.9596386Q8.4437530234375,9.98168343,8.4916506234375,10.01368761Q8.5395481234375,10.04569176,8.5802817234375,10.0864253Q8.6210150234375,10.12715888,8.6530194234375,10.17505646Q8.6850235234375,10.22295406,8.7070684234375,10.27617501Q8.7291136234375,10.32939595,8.7403519234375,10.38589501Q8.7515902234375,10.442394059,8.7515902234375,10.5Q8.7515902234375,10.557605941,8.7403517234375,10.61410499Q8.7291136234375,10.67060405,8.7070684234375,10.72382499Q8.6850235234375,10.77704594,8.6530194234375,10.82494354Q8.6210150234375,10.87284112,8.5802817234375,10.9135747Q8.5395481234375,10.95430824,8.4916506234375,10.98631239Q8.4437530234375,11.01831657,8.3905320234375,11.0403614Q8.3373112234375,11.06240624,8.2808120234375,11.07364458Q8.2243132234375,11.08488297,8.1667073234375,11.08488297Q8.145405023437501,11.08488297,8.1241591234375,11.08333331L5.8759221064375,11.08333331Z" fill-rule="evenodd" fill="#56C08D" fill-opacity="1"/></g></svg>