<svg xmlns="http://www.w3.org/2000/svg" xmlns:xlink="http://www.w3.org/1999/xlink" fill="none" version="1.1" width="19" height="19" viewBox="0 0 19 19"><defs><clipPath id="master_svg0_2_3437"><rect x="-0.7916666865348816" y="-0.7916666865348816" width="20.583333373069763" height="20.583333373069763" rx="0"/></clipPath></defs><g clip-path="url(#master_svg0_2_3437)"><path d="M2.047080601581421,2.047080601581421Q1.5833330115814208,2.510828181581421,1.5833330115814208,3.166666511581421L1.5833330115814208,7.1250002615814205Q1.5833330115814208,7.780838261581421,2.047080661581421,8.24458576158142Q2.510828811581421,8.708333761581422,3.166666511581421,8.708333761581422L7.1250002615814205,8.708333761581422Q7.780838261581421,8.708333761581422,8.244586261581421,8.24458576158142Q8.708333761581422,7.780838261581421,8.708333761581422,7.1250002615814205L8.708333761581422,3.166666511581421Q8.708333761581422,2.510828511581421,8.24458576158142,2.0470805715814206Q7.780838261581421,1.5833330115814208,7.1250002615814205,1.5833330115814208L3.166666511581421,1.5833330115814208Q2.510828271581421,1.5833329515814207,2.047080601581421,2.047080601581421ZM3.166666511581421,7.1250002615814205L3.166666511581421,3.166666511581421L7.1250002615814205,3.166666511581421L7.1250002615814205,7.1250002615814205L3.166666511581421,7.1250002615814205Z" fill-rule="evenodd" fill="#AAB8CC" fill-opacity="1"/><path d="M10.755413855441894,2.047080601581421Q10.291666265441895,2.510828181581421,10.291666265441895,3.166666511581421L10.291666265441895,7.1250002615814205Q10.291666265441895,7.780838261581421,10.755413915441894,8.24458576158142Q11.219162065441894,8.708333761581422,11.874999765441894,8.708333761581422L15.833333515441893,8.708333761581422Q16.489171515441896,8.708333761581422,16.952919515441895,8.24458576158142Q17.416667015441895,7.780838261581421,17.416667015441895,7.1250002615814205L17.416667015441895,3.166666511581421Q17.416667015441895,2.510828511581421,16.952919015441893,2.0470805715814206Q16.489171515441896,1.5833330115814208,15.833333515441893,1.5833330115814208L11.874999765441894,1.5833330115814208Q11.219161525441894,1.5833329515814207,10.755413855441894,2.047080601581421ZM11.874999765441894,7.1250002615814205L11.874999765441894,3.166666511581421L15.833333515441893,3.166666511581421L15.833333515441893,7.1250002615814205L11.874999765441894,7.1250002615814205Z" fill-rule="evenodd" fill="#AAB8CC" fill-opacity="1"/><path d="M10.755413855441894,10.755413855441894Q10.291666265441895,11.219161435441894,10.291666265441895,11.874999765441894L10.291666265441895,15.833333515441893Q10.291666265441895,16.489171515441896,10.755413915441894,16.952919015441893Q11.219162065441894,17.416667015441895,11.874999765441894,17.416667015441895L15.833333515441893,17.416667015441895Q16.489171515441896,17.416667015441895,16.952919515441895,16.952919015441893Q17.416667015441895,16.489171515441896,17.416667015441895,15.833333515441893L17.416667015441895,11.874999765441894Q17.416667015441895,11.219161765441894,16.952919015441893,10.755413825441895Q16.489171515441896,10.291666265441895,15.833333515441893,10.291666265441895L11.874999765441894,10.291666265441895Q11.219161525441894,10.291666205441894,10.755413855441894,10.755413855441894ZM11.874999765441894,15.833333515441893L11.874999765441894,11.874999765441894L15.833333515441893,11.874999765441894L15.833333515441893,15.833333515441893L11.874999765441894,15.833333515441893Z" fill-rule="evenodd" fill="#AAB8CC" fill-opacity="1"/><path d="M2.047080601581421,10.755413855441894Q1.5833330115814208,11.219161435441894,1.5833330115814208,11.874999765441894L1.5833330115814208,15.833333515441893Q1.5833330115814208,16.489171515441896,2.047080661581421,16.952919015441893Q2.510828811581421,17.416667015441895,3.166666511581421,17.416667015441895L7.1250002615814205,17.416667015441895Q7.780838261581421,17.416667015441895,8.244586261581421,16.952919015441893Q8.708333761581422,16.489171515441896,8.708333761581422,15.833333515441893L8.708333761581422,11.874999765441894Q8.708333761581422,11.219161765441894,8.24458576158142,10.755413825441895Q7.780838261581421,10.291666265441895,7.1250002615814205,10.291666265441895L3.166666511581421,10.291666265441895Q2.510828271581421,10.291666205441894,2.047080601581421,10.755413855441894ZM3.166666511581421,15.833333515441893L3.166666511581421,11.874999765441894L7.1250002615814205,11.874999765441894L7.1250002615814205,15.833333515441893L3.166666511581421,15.833333515441893Z" fill-rule="evenodd" fill="#AAB8CC" fill-opacity="1"/></g></svg>