<svg xmlns="http://www.w3.org/2000/svg" xmlns:xlink="http://www.w3.org/1999/xlink" fill="none" version="1.1" width="19" height="19" viewBox="0 0 19 19"><defs><clipPath id="master_svg0_2_3479"><rect x="-0.7916666865348816" y="-0.7916666865348816" width="20.583333373069763" height="20.583333373069763" rx="0"/></clipPath></defs><g clip-path="url(#master_svg0_2_3479)"><path d="M3.562499834651184,3.9583331977209473L4.7499998346511845,3.9583331977209473L4.7499998346511845,3.956508577720947Q4.827792334651184,3.9565085177209474,4.904090034651184,3.941331927720947Q4.980387834651184,3.9261553277209473,5.052258834651184,3.8963853677209475Q5.124129934651184,3.866615417720947,5.188811934651184,3.8233961477209473Q5.253494334651184,3.7801768777209475,5.308502334651184,3.7251691777209475Q5.363510034651184,3.6701614877209474,5.406729134651184,3.6054792377209472Q5.4499484346511835,3.540796997720947,5.479718534651184,3.4689259577209475Q5.509488734651184,3.397054907720947,5.524665234651184,3.3207570277209473Q5.5398417346511835,3.2444591527209474,5.539842034651184,3.1666665077209473Q5.5398417346511835,3.088873862720947,5.524665234651184,3.0125759877209473Q5.509488734651184,2.9362781077209474,5.479718534651184,2.864407057720947Q5.4499484346511835,2.7925360177209475,5.4067293346511835,2.7278537777209473Q5.363510234651184,2.663171527720947,5.3085025346511845,2.608163837720947Q5.253494634651184,2.553156137720947,5.188812334651184,2.5099369277209473Q5.124129934651184,2.4667175977209475,5.052259134651184,2.436947707720947Q4.980388034651185,2.407177687720947,4.904090334651184,2.3920010877209474Q4.827792334651184,2.376824497720947,4.7499998346511845,2.3768244377209475L4.7499998346511845,2.3749998177209473L3.562499834651184,2.3749998177209473Q2.414783124651184,2.3749998177209473,1.6032245826511842,3.186558050720947Q0.7916665646511841,3.9981162577209473,0.7916664446511841,5.145833207720948Q0.7916664446511841,6.293550207720948,1.603224865651184,7.1051085077209475Q2.4147830046511842,7.916666507720947,3.562499834651184,7.916666507720947L4.7499998346511845,7.916666507720947L4.7499998346511845,7.914842107720947Q4.827792334651184,7.914842107720947,4.904090034651184,7.899664907720947Q4.980387834651184,7.884488107720947,5.052258834651184,7.854718207720947Q5.124129934651184,7.824948307720947,5.188811934651184,7.7817292077209474Q5.253494334651184,7.7385101077209475,5.308502334651184,7.6835027077209475Q5.363510034651184,7.6284947077209475,5.406729134651184,7.5638122077209475Q5.4499484346511835,7.499129807720947,5.479718534651184,7.427259007720947Q5.509488734651184,7.355388207720948,5.524665234651184,7.279089907720947Q5.5398417346511835,7.202792607720947,5.539842034651184,7.125000007720947Q5.5398417346511835,7.047207307720948,5.524665234651184,6.970909307720947Q5.509488734651184,6.894611407720947,5.479718534651184,6.822740307720947Q5.4499484346511835,6.750869307720947,5.4067293346511835,6.686187007720948Q5.363510234651184,6.621504807720948,5.3085025346511845,6.566497107720947Q5.253494634651184,6.511489407720948,5.188812334651184,6.468269807720947Q5.124129934651184,6.425050707720947,5.052259134651184,6.3952808077209475Q4.980388034651185,6.365510907720948,4.904090334651184,6.350334407720947Q4.827792334651184,6.335157907720948,4.7499998346511845,6.335157907720948L4.7499998346511845,6.333333207720948L3.562499834651184,6.333333207720948Q3.070621034651184,6.333333207720948,2.7228104346511843,5.9855225077209475Q2.374999824651184,5.637712207720947,2.374999764651184,5.145833207720948Q2.374999824651184,4.653954607720947,2.7228101346511844,4.306143907720948Q3.070621034651184,3.9583331977209473,3.562499834651184,3.9583331977209473Z" fill-rule="evenodd" fill="#3D6FE8" fill-opacity="1"/><path d="M15.4375,2.3749998177209473L14.25,2.3749998177209473L14.25,2.3768244377209475Q14.172207355,2.376824497720947,14.09590948,2.3920010877209474Q14.0196116,2.407177687720947,13.94774055,2.436947647720947Q13.87586951,2.4667175977209475,13.81118727,2.5099368677209473Q13.74650502,2.553156137720947,13.69149733,2.608163837720947Q13.63648963,2.663171527720947,13.59327042,2.7278537777209473Q13.55005109,2.7925360177209475,13.5202812,2.864407057720947Q13.49051118,2.9362781077209474,13.47533458,3.0125759877209473Q13.46015799,3.088873862720947,13.46015793,3.1666665077209473Q13.46015799,3.2444591527209474,13.47533458,3.3207570277209473Q13.49051118,3.397054907720947,13.52028114,3.4689259577209475Q13.55005109,3.540796997720947,13.59327036,3.6054792377209472Q13.63648963,3.6701614877209474,13.69149733,3.7251691777209475Q13.74650502,3.7801768777209475,13.81118727,3.823396087720947Q13.87586951,3.866615417720947,13.94774055,3.8963853077209474Q14.0196116,3.9261553277209473,14.09590948,3.941331927720947Q14.172207355,3.9565085177209474,14.25,3.956508577720947L14.25,3.9583331977209473L15.4375,3.9583331977209473Q15.929378700000001,3.9583331977209473,16.2771895,4.306143907720948Q16.625,4.653954607720947,16.625,5.145833207720948Q16.625,5.637711807720947,16.277189,5.985522007720947Q15.9293786,6.333333207720948,15.4375,6.333333207720948L14.25,6.333333207720948L14.25,6.335157907720948Q14.172207355,6.335157907720948,14.09590948,6.350334407720947Q14.0196116,6.365510907720948,13.94774055,6.3952808077209475Q13.87586951,6.425050707720947,13.81118727,6.468270107720947Q13.74650502,6.511489407720948,13.69149733,6.566497107720947Q13.63648963,6.621504807720948,13.59327042,6.686186807720947Q13.55005109,6.750869307720947,13.5202812,6.822740307720947Q13.49051118,6.894611407720947,13.47533458,6.970909307720947Q13.46015799,7.047207307720948,13.46015793,7.125000007720947Q13.46015799,7.202792607720947,13.47533458,7.279090407720947Q13.49051118,7.355388207720948,13.52028114,7.427259407720947Q13.55005109,7.499130207720947,13.59327036,7.563812707720947Q13.63648963,7.6284947077209475,13.69149733,7.6835027077209475Q13.74650502,7.7385101077209475,13.81118727,7.7817292077209474Q13.87586951,7.824948807720947,13.94774055,7.854718707720947Q14.0196116,7.8844886077209475,14.09590948,7.899664907720947Q14.172207355,7.914842107720947,14.25,7.914842107720947L14.25,7.916666507720947L15.4375,7.916666507720947Q16.5852168,7.916666507720947,17.3967738,7.105109007720947Q18.208333500000002,6.293550507720948,18.208333500000002,5.145833207720948Q18.208333500000002,3.9981166677209474,17.396774999999998,3.186558097720947Q16.5852165,2.3749998177209473,15.4375,2.3749998177209473Z" fill-rule="evenodd" fill="#3D6FE8" fill-opacity="1"/><path d="M3.1666665077209473,18.20833272088379L15.833333507720948,18.20833272088379L15.833333507720948,18.206508100883788Q15.911125507720948,18.20650804088379,15.987423507720948,18.19133145088379Q16.06372150772095,18.17615485088379,16.135591507720946,18.146384890883787Q16.207462507720948,18.11661494088379,16.272144507720945,18.07339567088379Q16.336826507720946,18.03017640088379,16.391834507720947,17.97516870088379Q16.446842507720948,17.92016101088379,16.49006250772095,17.855478760883788Q16.533281507720947,17.790796520883788,16.56305150772095,17.71892548088379Q16.59282150772095,17.647054430883788,16.607998507720946,17.57075655088379Q16.623175507720948,17.494458675883788,16.623175507720948,17.41666603088379Q16.623175507720948,17.33887338588379,16.607998507720946,17.26257551088379Q16.59282150772095,17.18627763088379,16.56305150772095,17.114406580883788Q16.533281507720947,17.04253554088379,16.490063507720947,16.97785330088379Q16.446842507720948,16.91317105088379,16.39183550772095,16.85816336088379Q16.336826507720946,16.80315566088379,16.272144507720945,16.75993645088379Q16.207462507720948,16.71671712088379,16.135591507720946,16.68694723088379Q16.06372150772095,16.657177210883788,15.987423507720948,16.642000610883787Q15.911125507720948,16.626824020883788,15.833333507720948,16.62682396088379L15.833333507720948,16.62499934088379L3.1666665077209473,16.62499934088379L3.1666665077209473,16.62682396088379Q3.088873862720947,16.626824020883788,3.0125759877209473,16.642000610883787Q2.9362781077209474,16.657177210883788,2.864407057720947,16.68694717088379Q2.7925360177209475,16.71671712088379,2.7278537777209473,16.759936390883787Q2.663171527720947,16.80315566088379,2.608163837720947,16.85816336088379Q2.553156137720947,16.91317105088379,2.5099369277209473,16.97785330088379Q2.4667175977209475,17.04253554088379,2.436947707720947,17.114406580883788Q2.407177687720947,17.18627763088379,2.3920010877209474,17.26257551088379Q2.376824497720947,17.33887338588379,2.3768244377209475,17.41666603088379Q2.376824497720947,17.494458675883788,2.3920010877209474,17.57075655088379Q2.407177687720947,17.647054430883788,2.436947647720947,17.71892548088379Q2.4667175977209475,17.790796520883788,2.5099368677209473,17.855478760883788Q2.553156137720947,17.92016101088379,2.608163837720947,17.97516870088379Q2.663171527720947,18.03017640088379,2.7278537777209473,18.07339561088379Q2.7925360177209475,18.11661494088379,2.864407057720947,18.14638483088379Q2.9362781077209474,18.17615485088379,3.0125759877209473,18.19133145088379Q3.088873862720947,18.20650804088379,3.1666665077209473,18.206508100883788L3.1666665077209473,18.20833272088379Z" fill-rule="evenodd" fill="#3D6FE8" fill-opacity="1"/><path d="M7.126824407720948,11.605833053588867Q7.126824407720948,11.528040408588867,7.142000907720947,11.451742533588867Q7.157177407720948,11.375444653588866,7.186947307720947,11.303573603588868Q7.216717207720947,11.231702563588867,7.259936707720947,11.167020323588867Q7.303155907720948,11.102338073588868,7.358163707720947,11.047330383588868Q7.413171307720948,10.992322683588867,7.477853507720948,10.949103473588867Q7.542535807720947,10.905884143588867,7.614406807720947,10.876114253588867Q7.686277907720948,10.846344233588868,7.762575907720947,10.831167633588867Q7.838873907720947,10.815991043588868,7.916666507720947,10.815990983588867Q7.994459107720948,10.815991043588868,8.070756907720947,10.831167633588867Q8.147054707720947,10.846344233588868,8.218925707720947,10.876114193588867Q8.290796707720947,10.905884143588867,8.355479007720948,10.949103413588867Q8.420161207720948,10.992322683588867,8.475168907720947,11.047330383588868Q8.530176607720946,11.102338073588868,8.573396207720947,11.167020323588867Q8.616615307720947,11.231702563588867,8.646385207720947,11.303573603588868Q8.676155307720947,11.375444653588866,8.691331907720947,11.451742533588867Q8.706508607720947,11.528040408588867,8.706508607720947,11.605833053588867L8.708333207720948,11.605833053588867L8.708333207720948,13.458332653588867Q8.708333207720948,14.062295453588867,8.276035507720948,14.554634053588867Q7.960118007720947,14.914428753588867,7.478181507720947,15.136117253588868Q7.007190007720947,15.351655953588867,6.6898963077209475,15.933361053588868Q6.333333197720947,16.58706045358887,6.333333197720947,17.41666655358887L6.331508577720947,17.41666655358887Q6.331508517720947,17.494459153588867,6.316331927720947,17.570756953588866Q6.301155327720947,17.647054653588867,6.2713853677209475,17.718925453588867Q6.241615417720947,17.790796253588866,6.198396147720947,17.85547875358887Q6.1551768777209475,17.920161253588866,6.1001691777209475,17.975168753588868Q6.045161487720947,18.03017615358887,5.980479237720948,18.07339575358887Q5.915796997720947,18.11661525358887,5.8439259577209475,18.146385153588867Q5.772054907720947,18.176155053588868,5.695757027720948,18.19133135358887Q5.619459152720947,18.206508653588866,5.541666507720947,18.206508653588866Q5.4638738627209475,18.206508653588866,5.387575987720947,18.191331853588867Q5.311278107720947,18.176155053588868,5.239407057720947,18.146385153588867Q5.1675360177209475,18.11661525358887,5.102853777720947,18.07339575358887Q5.038171527720947,18.030176653588867,4.983163837720947,17.975169153588865Q4.928156137720947,17.920161253588866,4.884936927720947,17.855479253588868Q4.8417175977209475,17.790796253588866,4.811947707720948,17.718925453588867Q4.782177687720948,17.647054653588867,4.767001087720947,17.570756953588866Q4.751824497720947,17.494459153588867,4.7518244377209475,17.41666655358887L4.749999817720948,17.41666655358887Q4.749999817720948,16.183320053588865,5.299894837720947,15.175179053588867Q5.869397847720947,14.131089253588867,6.819317907720947,13.696379653588867Q6.992514807720948,13.616708553588868,7.086255707720947,13.509948253588867Q7.114725107720947,13.477524753588867,7.124493207720947,13.454693153588867L7.124999807720947,13.458332653588867L7.124999807720947,11.605833053588867L7.126824407720948,11.605833053588867Z" fill-rule="evenodd" fill="#3D6FE8" fill-opacity="1"/><path d="M10.293490945441894,11.605833053588867Q10.293491005441895,11.528040408588867,10.308667595441895,11.451742533588867Q10.323844195441895,11.375444653588866,10.353614155441894,11.303573603588868Q10.383384105441895,11.231702563588867,10.426603375441895,11.167020323588867Q10.469822645441894,11.102338073588868,10.524830345441895,11.047330383588868Q10.579838035441895,10.992322683588867,10.644520285441894,10.949103473588867Q10.709202525441894,10.905884143588867,10.781073565441895,10.876114253588867Q10.852944615441894,10.846344233588868,10.929242495441894,10.831167633588867Q11.005540370441894,10.815991043588868,11.083333015441895,10.815990983588867Q11.161125660441895,10.815991043588868,11.237423535441895,10.831167633588867Q11.313721415441895,10.846344233588868,11.385592465441894,10.876114193588867Q11.457463505441895,10.905884143588867,11.522145745441895,10.949103413588867Q11.586827995441894,10.992322683588867,11.641835685441894,11.047330383588868Q11.696843385441895,11.102338073588868,11.740062595441895,11.167020323588867Q11.783281925441894,11.231702563588867,11.813051815441895,11.303573603588868Q11.842821835441894,11.375444653588866,11.857998435441894,11.451742533588867Q11.873175025441894,11.528040408588867,11.873175085441895,11.605833053588867L11.874999705441894,11.605833053588867L11.874999765441894,13.458332653588867L11.875506405441895,13.454693153588867Q11.885274525441895,13.477524853588868,11.913743915441895,13.509948153588867Q12.007484675441894,13.616708253588868,12.180681215441895,13.696379653588867Q13.130601415441895,14.131089253588867,13.700104515441895,15.175179053588867Q14.249999715441895,16.183320553588867,14.249999715441895,17.41666655358887L14.248175115441894,17.41666655358887Q14.248175115441894,17.494459153588867,14.232998415441894,17.570756953588866Q14.217822115441894,17.647054653588867,14.188051915441894,17.718925453588867Q14.158282015441895,17.790796253588866,14.115062715441894,17.85547875358887Q14.071843415441894,17.920161253588866,14.016835715441895,17.975168753588868Q13.961827715441895,18.03017615358887,13.897145515441895,18.07339575358887Q13.832463215441894,18.11661525358887,13.760592215441894,18.146385153588867Q13.688721215441895,18.176155053588868,13.612423415441894,18.19133135358887Q13.536125615441895,18.206508653588866,13.458333015441895,18.206508653588866Q13.380540415441894,18.206508653588866,13.304242415441895,18.191331853588867Q13.227944415441895,18.176155053588868,13.156073315441894,18.146385153588867Q13.084202315441894,18.11661525358887,13.019520115441894,18.07339575358887Q12.954838015441894,18.030176653588867,12.899830315441895,17.975169153588865Q12.844822515441894,17.920161253588866,12.801603215441894,17.855479253588868Q12.758383915441895,17.790796253588866,12.728614015441895,17.718925453588867Q12.698843915441895,17.647054653588867,12.683667415441894,17.570756953588866Q12.668490915441895,17.494459153588867,12.668490915441895,17.41666655358887L12.666666315441894,17.41666655358887Q12.666666315441894,16.58706045358887,12.310103215441895,15.933361053588868Q11.992809535441895,15.351655953588867,11.521817805441895,15.136117253588868Q11.039881601441895,14.914428753588867,10.723964065441894,14.554634053588867Q10.291666385441895,14.062295453588867,10.291666385441895,13.458332653588867L10.291666325441895,11.605833053588867L10.293490945441894,11.605833053588867Z" fill-rule="evenodd" fill="#3D6FE8" fill-opacity="1"/><path d="M13.4185505,11.043549634651184Q15.041667,9.420433634651184,15.041667,7.125000134651184L15.041667,1.583333134651184Q15.041666,1.5053607746511841,15.026455,1.428886624651184Q15.011242,1.3524124946511842,14.981403,1.280375424651184Q14.951565,1.208338354651184,14.908245,1.143506704651184Q14.864926,1.0786750346511842,14.809792,1.023540254651184Q14.754658,0.968405484651184,14.6898251,0.925086374651184Q14.6249943,0.8817672746511841,14.5529566,0.8519285946511841Q14.4809198,0.822089794651184,14.4044456,0.8068781446511841Q14.3279724,0.791666504651184,14.25,0.7916664446511841L4.75,0.7916664446511841Q4.67202764,0.791666504651184,4.59555349,0.8068781446511841Q4.51907936,0.822089794651184,4.44704229,0.8519285946511841Q4.37500522,0.8817672746511841,4.31017357,0.925086374651184Q4.2453419,0.968405484651184,4.19020712,1.023540254651184Q4.13507235,1.0786750346511842,4.09175324,1.143506704651184Q4.04843414,1.208338354651184,4.01859546,1.280375424651184Q3.98875666,1.3524124946511842,3.97354501,1.428886624651184Q3.95833337,1.5053607746511841,3.95833331,1.583333134651184L3.95833331,7.125000134651184Q3.95833331,9.420433634651184,5.5814501,11.043549634651184Q7.2045677,12.666667134651185,9.5,12.666667134651185Q11.795434,12.666667134651185,13.4185505,11.043549634651184ZM13.458334,2.374999824651184L13.458334,7.125000134651184Q13.458334,8.764595634651183,12.298964999999999,9.923963634651184Q11.139596000000001,11.083333134651184,9.5,11.083333134651184Q7.860405,11.083333134651184,6.7010359,9.923964634651185Q5.54166669,8.764595134651184,5.54166669,7.125000134651184L5.54166669,2.374999824651184L13.458334,2.374999824651184Z" fill-rule="evenodd" fill="#3D6FE8" fill-opacity="1"/></g></svg>