<svg xmlns="http://www.w3.org/2000/svg" xmlns:xlink="http://www.w3.org/1999/xlink" fill="none" version="1.1" width="218" height="217.44" viewBox="0 0 218 219.22433471679688"><path d="M108.49999774,0.39432490369628903L108.5,0.8943271636962891L108.5,218.3302071636963L108.49999774,218.8302071636963L109.50000226,218.8302071636963L109.5,218.3302071636963L109.5,0.8943271636962891L109.50000226,0.39432490369628903L108.49999774,0.39432490369628903Z" fill-rule="evenodd" fill="#202020" fill-opacity="0.07999999821186066"/><g transform="matrix(-0.5007984042167664,-0.8655639886856079,0.8666852712631226,-0.498855322599411,-25.635643622857742,421.51657749308305)"><path d="M297.52296873046873,217.6091582824463L297.0900887304688,217.85940373244628L108.72845638046876,326.7506763824463L108.29558063046875,327.00090638244626L108.79606758046874,327.8666663824463L109.22894111046875,327.61640638244626L297.5905787304688,218.7251490924463L298.0234487304688,218.47490753244628L297.52296873046873,217.6091582824463Z" fill-rule="evenodd" fill="#202020" fill-opacity="0.07999999821186066"/></g><g transform="matrix(0.8666852712631226,0.4988553524017334,-0.5007983446121216,0.8655639886856079,14.995233199092809,-54.23930649318595)"><path d="M217.68729873046874,0.248943330258789L217.43705873046875,0.681819110258789L108.54582611046875,189.0432568902588L108.29558051046875,189.4761268902588L109.16132972046876,189.97661689025878L109.41157138046874,189.5437368902588L218.30279873046874,1.182304050258789L218.55304873046873,0.7494305802587891L217.68729873046874,0.248943330258789Z" fill-rule="evenodd" fill="#202020" fill-opacity="0.07999999821186066"/></g><path d="M109,0.3173500336962891L14.353717,54.82000116369629L14.103231,54.96425016369629L14.103231,164.2602971636963L109,218.90718716369628L203.89677,164.2602971636963L203.89677,54.96425016369629L109,0.3173500336962891ZM15.103231,55.54234516369629L15.103231,163.68218716369628L109,217.7532471636963L202.89677,163.68218716369628L202.89677,55.54234516369629L109,1.4713028036962892L15.103231,55.54234516369629Z" fill-rule="evenodd" fill="#202020" fill-opacity="0.07999999821186066"/><path d="M109.0008240703125,27.496793333071288L37.9537327003125,68.40971152307128L37.7032470703125,68.55395652307129L37.7032470703125,150.6705305230713L109.0008240703125,191.7276905230713L180.2983970703125,150.6705305230713L180.2983970703125,68.55395652307129L109.0008240703125,27.496793333071288ZM38.7032470703125,69.13205552307129L38.7032470703125,150.09242052307127L109.0008240703125,190.5737205230713L179.2983970703125,150.0924305230713L179.2983970703125,69.13205552307129L109.0008240703125,28.650748373071288L38.7032470703125,69.13205552307129Z" fill-rule="evenodd" fill="#202020" fill-opacity="0.07999999821186066"/><path d="M109,54.67623669244629L61.5521011,81.9994068824463L61.3016157,82.14365188244629L61.3016157,137.0807288824463L109,164.54813388244628L156.69839000000002,137.0807288824463L156.69839000000002,82.14365188244629L109,54.67623669244629ZM62.3016157,82.72175188244628L62.3016157,136.5026268824463L109.00000399999999,163.3941938824463L155.69839000000002,136.50263388244628L155.69839000000002,82.72174988244629L109.00000399999999,55.83019280244629L62.3016157,82.72175188244628Z" fill-rule="evenodd" fill="#202020" fill-opacity="0.07999999821186066"/><path d="M109,81.8558021221338L85.1512935,95.58923131213379L84.9008079,95.73347531213379L84.9008079,123.49106431213379L109,137.3687343121338L133.099194,123.49106431213379L133.099194,95.73347531213379L109,81.8558021221338ZM85.9008079,96.31157231213379L85.9008079,122.91296531213379L109,136.2147803121338L132.099194,122.91296231213379L132.099194,96.31157331213379L109,83.00975656213379L85.9008079,96.31157231213379Z" fill-rule="evenodd" fill="#202020" fill-opacity="0.07999999821186066"/></svg>