<svg xmlns="http://www.w3.org/2000/svg" xmlns:xlink="http://www.w3.org/1999/xlink" fill="none" version="1.1" width="9.86" height="9.74" viewBox="0 0 9.8641357421875 9.73980712890625"><path d="M5.85480764375,4.869922921875L2.98963466375,7.735096021875Q2.9220133437499998,7.802717221875,2.88541698375,7.891068421875Q2.84882062375,7.979419721875,2.84882065375,8.075051321875Q2.84882071375,8.170681921875001,2.88541704375,8.259033221875Q2.92201343375,8.347384421874999,2.98963463375,8.415006121874999Q3.05725592375,8.482627421875,3.14560741375,8.519224121875Q3.23395889975,8.555820421875,3.32958984375,8.555820421875Q3.42522078775,8.555820421875,3.51357226375,8.519224121875Q3.60192373375,8.482627821874999,3.66954502375,8.415006121874999L6.87467314375,5.209878221875Q6.90815564375,5.176395421875,6.93446274375,5.137024121875Q6.96076964375,5.097652421875,6.97889044375,5.053905021875Q6.99701114375,5.010157621875,7.00624894375,4.963716021874999Q7.0154867437499995,4.917274021875,7.01548694375,4.869922621875Q7.0154867437499995,4.822570821875,7.00624894375,4.776129221875Q6.99701114375,4.729687221875,6.97889044375,4.685940221875001Q6.96076964375,4.642192821875,6.93446274375,4.602821321875Q6.90815564375,4.563449821875,6.87467314375,4.529967521875L3.66954502375,1.324839711875Q3.63606232375,1.291357101875,3.59669089375,1.265049931875Q3.55731943375,1.238742801875,3.51357224375,1.220622091875Q3.46982503375,1.202501411875,3.42338324375,1.193263591875Q3.37694146475,1.184025701875,3.329589828848839,1.184025701875Q3.28223819675,1.184025731875,3.23579640675,1.193263591875Q3.18935462375,1.202501441875,3.14560741375,1.220622121875Q3.10186022375,1.238742831875,3.0624887637500002,1.265049961875Q3.02311730375,1.291357101875,2.98963463375,1.324839741875Q2.95615202375,1.358322441875,2.92984485375,1.397693871875Q2.90353772375,1.437065331875,2.88541701375,1.480812521875Q2.86729633375,1.524559731875,2.85805851375,1.571001521875Q2.84882062375,1.617443300875,2.84882062375,1.664794936776161Q2.84882065375,1.712146568875,2.85805851375,1.758588358875Q2.86729636375,1.805030141875,2.88541704375,1.848777351875Q2.9035377537500002,1.892524541875,2.92984488375,1.931896001875Q2.95615202375,1.9712674618750001,2.98963466375,2.004750131875L5.85480764375,4.869922921875Z" fill-rule="evenodd" fill="#A3A3A3" fill-opacity="1"/></svg>