<svg xmlns="http://www.w3.org/2000/svg" xmlns:xlink="http://www.w3.org/1999/xlink" fill="none" version="1.1" width="14" height="14" viewBox="0 0 14 14"><defs><clipPath id="master_svg0_2_01001"><rect x="-0.5833333134651184" y="-0.5833333134651184" width="15.166666626930237" height="15.166666626930237" rx="0"/></clipPath></defs><g clip-path="url(#master_svg0_2_01001)"><path d="M5.8120403,8.004806365348816Q5.834883,8.084124965348817,5.834883,8.166666865348816Q5.8348827,8.224272565348816,5.8236444,8.280771165348817Q5.8124061000000005,8.337270165348816,5.7903611999999995,8.390490865348816Q5.7683163,8.443712065348816,5.7363124,8.491609465348816Q5.704308,8.539507265348817,5.6635747,8.580241065348815Q5.6228411000000005,8.620974465348816,5.5749435,8.652978265348816Q5.527046,8.684982165348817,5.473825,8.707027365348816Q5.420604,8.729071965348815,5.3641049,8.740310565348816Q5.3076059,8.751549165348816,5.25,8.751549565348816Q5.1974263,8.751549165348816,5.1456957,8.742173565348816Q5.0939649,8.732797965348816,5.0447356,8.714347765348815Q4.995506,8.695896965348815,4.950356,8.668962365348815Q4.9052061,8.642028665348816,4.8655832,8.607475165348816Q4.8259602,8.572920665348816,4.7931345,8.531854065348817Q4.7603086999999995,8.490787365348815,4.735333,8.444526065348816Q4.710357,8.398263765348815,4.6940314,8.348289365348815Q4.6777058,8.298314965348816,4.670554,8.246230465348816Q4.5478935,7.706184765348816,3.96252099,7.120812265348816Q2.91666663,6.074957765348816,2.91666681,4.666666665348815Q2.91666669,2.9752948653488156,4.11264741,1.7793141553488159Q5.3086281,0.583333495348816,6.999999799999999,0.5833335553488159Q8.691372900000001,0.5833335553488159,9.8873529,1.779314215348816Q11.083333,2.975294365348816,11.083333,4.666666665348815Q11.083333,6.171950665348816,10.0274372,7.130884965348816Q9.4510512,7.710831965348816,9.3294458,8.246230965348815Q9.3222933,8.298314965348816,9.305967800000001,8.348289365348815Q9.2896423,8.398263765348815,9.2646666,8.444526565348816Q9.2396903,8.490788365348816,9.2068648,8.531854465348815Q9.1740389,8.572920665348816,9.1344166,8.607475165348816Q9.0947933,8.642028665348816,9.049643,8.668962865348817Q9.004492800000001,8.695896965348815,8.9552641,8.714347765348815Q8.9060345,8.732797965348816,8.8543034,8.742173565348816Q8.802573200000001,8.751549165348816,8.75,8.751549565348816Q8.6923938,8.751549165348816,8.635894799999999,8.740310565348816Q8.5793953,8.729071465348817,8.5261745,8.707026865348816Q8.472953799999999,8.684981665348815,8.425056,8.652977865348817Q8.3771586,8.620973465348815,8.3364253,8.580240565348817Q8.2956915,8.539506765348815,8.2636876,8.491609465348816Q8.2316837,8.443712065348816,8.2096386,8.390490865348816Q8.1875939,8.337270165348816,8.1763554,8.280771165348817Q8.1651173,8.224272565348816,8.1651173,8.166666865348816Q8.1651173,8.084126865348816,8.1879587,8.004809765348817Q8.3809395,7.127435565348816,9.2125211,6.295854465348816Q9.2233682,6.285007365348816,9.234770300000001,6.274745365348816Q9.9166665,5.661038265348816,9.9166665,4.666666665348815Q9.9166665,3.458543465348816,9.0623951,2.6042719653488158Q8.2081232,1.750000175348816,6.999999799999999,1.750000175348816Q5.7918772999999995,1.7500001153488158,4.9376051,2.6042719653488158Q4.08333331,3.4585436653488157,4.08333343,4.666666665348815Q4.08333331,5.591708565348816,4.7874789,6.295854465348816Q5.619059099999999,7.127434565348816,5.8120403,8.004806365348816Z" fill-rule="evenodd" fill="#10B981" fill-opacity="1"/><path d="M5.292548083,11.08333331Q5.271302262,11.08488297,5.25,11.08488297Q5.192394059,11.08488297,5.13589501,11.07364464Q5.07939595,11.06240624,5.02617501,11.0403614Q4.97295406,11.01831657,4.92505646,10.98631239Q4.87715888,10.95430824,4.8364253,10.9135747Q4.79569176,10.87284112,4.76368761,10.82494354Q4.73168343,10.77704594,4.7096386,10.72382499Q4.68759376,10.67060405,4.67635542,10.61410499Q4.66511703,10.557605941,4.66511703,10.5Q4.66511703,10.442394059,4.67635536,10.38589501Q4.68759376,10.32939595,4.7096386,10.27617501Q4.73168343,10.22295406,4.76368761,10.17505646Q4.79569176,10.12715888,4.8364253,10.0864253Q4.87715888,10.04569176,4.92505646,10.01368761Q4.97295406,9.98168343,5.02617501,9.9596386Q5.07939595,9.93759376,5.13589501,9.92635542Q5.192394059,9.91511703,5.25,9.91511703Q5.271302262,9.91511703,5.292548083,9.91666669L8.7074518,9.91666669Q8.728697799999999,9.91511703,8.75,9.91511703Q8.8076057,9.91511703,8.8641047,9.92635536Q8.9206038,9.93759376,8.9738245,9.9596386Q9.0270455,9.98168343,9.0749431,10.01368761Q9.1228409,10.04569176,9.1635742,10.0864253Q9.2043076,10.12715888,9.2363117,10.17505646Q9.2683158,10.22295406,9.2903609,10.27617501Q9.3124056,10.32939595,9.3236442,10.38589501Q9.3348827,10.442394059,9.3348827,10.5Q9.3348827,10.557605941,9.3236437,10.61410499Q9.3124056,10.67060405,9.2903609,10.72382499Q9.2683158,10.77704594,9.2363119,10.82494354Q9.2043078,10.87284112,9.1635745,10.9135747Q9.1228409,10.95430824,9.074943300000001,10.98631239Q9.0270455,11.01831657,8.9738245,11.0403614Q8.9206038,11.06240624,8.8641047,11.07364458Q8.8076057,11.08488297,8.75,11.08488297Q8.728697799999999,11.08488297,8.7074518,11.08333331L5.292548083,11.08333331Z" fill-rule="evenodd" fill="#10B981" fill-opacity="1"/><path d="M5.8758815752790525,13.416666325441895Q5.854635754279053,13.418215985441895,5.833333492279053,13.418215985441895Q5.7757275512790525,13.418215985441895,5.719228502279052,13.406977655441894Q5.662729442279053,13.395739255441894,5.609508502279053,13.373694415441895Q5.556287552279053,13.351649585441894,5.508389952279053,13.319645405441895Q5.460492372279052,13.287641255441894,5.419758792279053,13.246907715441894Q5.379025252279053,13.206174135441895,5.347021102279053,13.158276555441894Q5.315016922279053,13.110378955441895,5.292972092279053,13.057158005441895Q5.270927252279053,13.003937065441894,5.259688912279053,12.947438005441894Q5.248450522279053,12.890938956441895,5.248450522279053,12.833333015441895Q5.248450522279053,12.775727074441894,5.259688852279052,12.719228025441895Q5.270927252279053,12.662728965441895,5.292972092279053,12.609508025441894Q5.315016922279053,12.556287075441894,5.347021102279053,12.508389475441895Q5.379025252279053,12.460491895441894,5.419758792279053,12.419758315441895Q5.460492372279052,12.379024775441895,5.508389952279053,12.347020625441894Q5.556287552279053,12.315016445441895,5.609508502279053,12.292971615441894Q5.662729442279053,12.270926775441895,5.719228502279052,12.259688435441895Q5.7757275512790525,12.248450045441894,5.833333492279053,12.248450045441894Q5.854635754279053,12.248450045441894,5.8758815752790525,12.249999705441894L8.124118592279054,12.249999705441894Q8.145364492279054,12.248450045441894,8.166666792279052,12.248450045441894Q8.224272692279053,12.248450045441894,8.280771492279053,12.259688375441895Q8.337270692279052,12.270926775441895,8.390491492279052,12.292971615441894Q8.443712492279053,12.315016445441895,8.491610092279053,12.347020625441894Q8.539507592279053,12.379024775441895,8.580241192279052,12.419758315441895Q8.620974492279053,12.460491895441894,8.652978892279053,12.508389475441895Q8.684982992279053,12.556287075441894,8.707027892279052,12.609508025441894Q8.729073092279053,12.662728965441895,8.740311392279052,12.719228025441895Q8.751549692279053,12.775727074441894,8.751549692279053,12.833333015441895Q8.751549692279053,12.890938956441895,8.740311192279053,12.947438005441894Q8.729073092279053,13.003937065441894,8.707027892279052,13.057158005441895Q8.684982992279053,13.110378955441895,8.652978892279053,13.158276555441894Q8.620974492279053,13.206174135441895,8.580241192279052,13.246907715441894Q8.539507592279053,13.287641255441894,8.491610092279053,13.319645405441895Q8.443712492279053,13.351649585441894,8.390491492279052,13.373694415441895Q8.337270692279052,13.395739255441894,8.280771492279053,13.406977595441894Q8.224272692279053,13.418215985441895,8.166666792279052,13.418215985441895Q8.145364492279054,13.418215985441895,8.124118592279054,13.416666325441895L5.8758815752790525,13.416666325441895Z" fill-rule="evenodd" fill="#10B981" fill-opacity="1"/></g></svg>