<svg xmlns="http://www.w3.org/2000/svg" xmlns:xlink="http://www.w3.org/1999/xlink" fill="none" version="1.1" width="16" height="16" viewBox="0 0 16 16"><defs><clipPath id="master_svg0_2_01359"><rect x="-0.6666666865348816" y="-0.6666666865348816" width="17.333333373069763" height="17.333333373069763" rx="0"/></clipPath></defs><g clip-path="url(#master_svg0_2_01359)"><path d="M2.66650390625,8.66666669L13.33317090625,8.66666669L13.33317090625,8.66486704Q13.39865390625,8.66486704,13.46287890625,8.6520918Q13.52710390625,8.63931656,13.58760390625,8.61425704Q13.64810290625,8.58919752,13.70254990625,8.55281675Q13.75699790625,8.51643598,13.80330290625,8.47013199Q13.84960690625,8.42382801,13.88598690625,8.36938033Q13.92236790625,8.31493264,13.94742790625,8.2544336Q13.97248690625,8.19393456,13.98526190625,8.12970912Q13.99803690625,8.065483689,13.99803790625,8Q13.99803690625,7.934516311,13.98526190625,7.87029088Q13.97248690625,7.80606544,13.94742790625,7.7455664Q13.92236790625,7.68506736,13.88598690625,7.63061965Q13.84960690625,7.57617199,13.80330290625,7.52986801Q13.75699790625,7.48356402,13.70255090625,7.44718325Q13.64810390625,7.41080248,13.58760490625,7.38574296Q13.52710490625,7.36068344,13.46287890625,7.3479082Q13.39865390625,7.33513296,13.33317090625,7.33513296L13.33317090625,7.33333331L2.66650390625,7.33333331L2.66650390625,7.33513296Q2.60102021725,7.33513296,2.5367947862499998,7.3479082Q2.47256934625,7.36068344,2.41207030625,7.38574296Q2.35157126625,7.41080248,2.29712355625,7.44718325Q2.24267589625,7.48356402,2.19637191625,7.52986801Q2.15006792625,7.57617199,2.11368715625,7.63061967Q2.07730638625,7.68506736,2.05224686625,7.7455664Q2.02718734625,7.80606544,2.01441210625,7.87029088Q2.00163686625,7.934516311,2.00163686625,8Q2.00163686625,8.065483689,2.01441210625,8.12970912Q2.02718734625,8.19393456,2.05224686625,8.2544336Q2.07730638625,8.31493264,2.11368715625,8.36938035Q2.15006792625,8.42382801,2.19637191625,8.47013199Q2.24267589625,8.51643598,2.29712357625,8.55281675Q2.35157126625,8.58919752,2.41207030625,8.61425704Q2.47256934625,8.63931656,2.5367947862499998,8.6520918Q2.60102021725,8.66486704,2.66650390625,8.66486704L2.66650390625,8.66666669Z" fill-rule="evenodd" fill="#344054" fill-opacity="1"/><path d="M2.66650390625,4.66666669L13.33317090625,4.66666669L13.33317090625,4.66486704Q13.39865390625,4.66486704,13.46287890625,4.6520918Q13.52710390625,4.63931656,13.58760390625,4.61425704Q13.64810290625,4.58919752,13.70254990625,4.55281675Q13.75699790625,4.51643598,13.80330290625,4.47013199Q13.84960690625,4.42382801,13.88598690625,4.36938033Q13.92236790625,4.31493264,13.94742790625,4.2544336Q13.97248690625,4.19393456,13.98526190625,4.12970912Q13.99803690625,4.065483689,13.99803790625,4Q13.99803690625,3.934516311,13.98526190625,3.8702908799999998Q13.97248690625,3.80606544,13.94742790625,3.7455664Q13.92236790625,3.68506736,13.88598690625,3.63061965Q13.84960690625,3.57617199,13.80330290625,3.52986801Q13.75699790625,3.48356402,13.70255090625,3.44718325Q13.64810390625,3.41080248,13.58760490625,3.38574296Q13.52710490625,3.36068344,13.46287890625,3.3479082Q13.39865390625,3.33513296,13.33317090625,3.33513296L13.33317090625,3.33333331L2.66650390625,3.33333331L2.66650390625,3.33513296Q2.60102021725,3.33513296,2.5367947862499998,3.3479082Q2.47256934625,3.36068344,2.41207030625,3.38574296Q2.35157126625,3.41080248,2.29712355625,3.44718325Q2.24267589625,3.48356402,2.19637191625,3.52986801Q2.15006792625,3.57617199,2.11368715625,3.63061967Q2.07730638625,3.68506736,2.05224686625,3.7455664Q2.02718734625,3.80606544,2.01441210625,3.8702908799999998Q2.00163686625,3.934516311,2.00163686625,4Q2.00163686625,4.065483689,2.01441210625,4.12970912Q2.02718734625,4.19393456,2.05224686625,4.2544336Q2.07730638625,4.31493264,2.11368715625,4.36938035Q2.15006792625,4.42382801,2.19637191625,4.47013199Q2.24267589625,4.51643598,2.29712357625,4.55281675Q2.35157126625,4.58919752,2.41207030625,4.61425704Q2.47256934625,4.63931656,2.5367947862499998,4.6520918Q2.60102021725,4.66486704,2.66650390625,4.66486704L2.66650390625,4.66666669Z" fill-rule="evenodd" fill="#344054" fill-opacity="1"/><path d="M2.66650390625,12.66666669L13.33317090625,12.66666669L13.33317090625,12.66486704Q13.39865390625,12.66486704,13.46287890625,12.6520918Q13.52710390625,12.63931656,13.58760390625,12.61425704Q13.64810290625,12.58919752,13.70254990625,12.55281675Q13.75699790625,12.51643598,13.80330290625,12.47013199Q13.84960690625,12.42382801,13.88598690625,12.36938033Q13.92236790625,12.31493264,13.94742790625,12.2544336Q13.97248690625,12.19393456,13.98526190625,12.12970912Q13.99803690625,12.065483689,13.99803790625,12Q13.99803690625,11.934516311,13.98526190625,11.87029088Q13.97248690625,11.80606544,13.94742790625,11.7455664Q13.92236790625,11.68506736,13.88598690625,11.63061965Q13.84960690625,11.57617199,13.80330290625,11.52986801Q13.75699790625,11.48356402,13.70255090625,11.44718325Q13.64810390625,11.41080248,13.58760490625,11.38574296Q13.52710490625,11.36068344,13.46287890625,11.3479082Q13.39865390625,11.33513296,13.33317090625,11.33513296L13.33317090625,11.33333331L2.66650390625,11.33333331L2.66650390625,11.33513296Q2.60102021725,11.33513296,2.5367947862499998,11.3479082Q2.47256934625,11.36068344,2.41207030625,11.38574296Q2.35157126625,11.41080248,2.29712355625,11.44718325Q2.24267589625,11.48356402,2.19637191625,11.52986801Q2.15006792625,11.57617199,2.11368715625,11.63061967Q2.07730638625,11.68506736,2.05224686625,11.7455664Q2.02718734625,11.80606544,2.01441210625,11.87029088Q2.00163686625,11.934516311,2.00163686625,12Q2.00163686625,12.065483689,2.01441210625,12.12970912Q2.02718734625,12.19393456,2.05224686625,12.2544336Q2.07730638625,12.31493264,2.11368715625,12.36938035Q2.15006792625,12.42382801,2.19637191625,12.47013199Q2.24267589625,12.51643598,2.29712357625,12.55281675Q2.35157126625,12.58919752,2.41207030625,12.61425704Q2.47256934625,12.63931656,2.5367947862499998,12.6520918Q2.60102021725,12.66486704,2.66650390625,12.66486704L2.66650390625,12.66666669Z" fill-rule="evenodd" fill="#344054" fill-opacity="1"/></g></svg>