<svg xmlns="http://www.w3.org/2000/svg" xmlns:xlink="http://www.w3.org/1999/xlink" fill="none" version="1.1" width="10.89" height="10.44" viewBox="0 0 10.893400192260742 10.442000389099121"><path d="M10.8934,5.2210002Q10.8934,5.3491688,10.886839,5.4771824Q10.880278,5.605197,10.867172,5.732748Q10.854067,5.8602991,10.834447,5.9870796Q10.814827,6.1138601,10.788742,6.2395658Q10.762657,6.3652716,10.730168,6.4895988Q10.69768,6.6139259,10.658867,6.7365761Q10.620052,6.8592253,10.575006,6.9799013Q10.529961,7.1005774,10.478793,7.2189894Q10.427626,7.3374014,10.370458,7.4532642Q10.31329,7.5691271,10.25026,7.6821618Q10.18723,7.7951961,10.11849,7.9051299Q10.049749,8.0150633,9.9754648,8.1216316Q9.9011803,8.228199,9.8215294,8.3311453Q9.7418795,8.4340916,9.6570559,8.5331669Q9.5722313,8.6322422,9.4824371,8.7272091Q9.3926439,8.822175,9.2980976,8.9128036Q9.2035503,9.0034332,9.1044788,9.0895052Q9.0054073,9.1755781,8.9020491,9.2568874Q8.7986908,9.3381958,8.6912937,9.4145451Q8.5838985,9.4908943,8.472723,9.5621014Q8.3615475,9.6333084,8.2468624,9.6991997Q8.1321754,9.7650909,8.0142555,9.82551Q7.8963346,9.8859272,7.7754631,9.9407263Q7.6545916,9.9955254,7.5310612,10.044574Q7.4075298,10.093622,7.2816372,10.136801Q7.1557446,10.179979,7.0277939,10.217185Q6.8998418,10.254391,6.7701397,10.285533Q6.6404376,10.316675,6.5092978,10.34168Q6.3781581,10.366684,6.2458963,10.38549Q6.1136351,10.404297,5.9805698,10.41686Q5.8475046,10.429422,5.7139568,10.435711Q5.580409,10.441999,5.4467001,10.442Q5.3129911,10.441999,5.1794429,10.435711Q5.0458956,10.429422,4.9128304,10.41686Q4.7797651,10.404297,4.6475034,10.38549Q4.5152411,10.366684,4.3841014,10.34168Q4.2529616,10.316675,4.1232595,10.285533Q3.9935579,10.254391,3.8656063,10.217186Q3.7376547,10.17998,3.6117618,10.136802Q3.4858689,10.093622,3.3623378,10.044575Q3.2388067,9.9955273,3.1179354,9.9407282Q2.9970641,9.8859291,2.8791432,9.825511Q2.7612224,9.7650919,2.6465364,9.6991997Q2.5318503,9.6333084,2.4206753,9.5621023Q2.3095002,9.4908953,2.2021043,9.414546Q2.0947084,9.3381958,1.9913499,9.2568874Q1.8879914,9.1755781,1.7889197,9.0895052Q1.6898478,9.0034332,1.5953014,8.9128046Q1.5007548,8.822176,1.4109614,8.7272091Q1.3211679,8.6322422,1.2363439,8.5331669Q1.1515198,8.4340916,1.0718695,8.3311462Q0.99221915,8.2282,0.91793442,8.1216316Q0.84364969,8.0150633,0.77490956,7.9051294Q0.70616937,7.7951965,0.64313942,7.6821623Q0.58010942,7.5691276,0.52294147,7.4532642Q0.46577349,7.3374014,0.41460529,7.2189894Q0.36343709,7.1005774,0.31839189,6.9799013Q0.27334672,6.8592253,0.23453304,6.7365761Q0.19571938,6.6139264,0.16323075,6.4895992Q0.13074212,6.3652716,0.10465679,6.2395663Q0.078571469,6.1138611,0.058952294,5.9870796Q0.039333113,5.8602991,0.026227346,5.732748Q0.013121575,5.605197,0.0065607876,5.4771824Q0,5.3491688,0,5.2210002Q0,5.0928316,0.0065607876,4.964818Q0.013121575,4.8368034,0.026227346,4.7092528Q0.039333113,4.5817013,0.058952291,4.4549203Q0.078571469,4.3281393,0.10465679,4.2024336Q0.13074212,4.0767279,0.16323075,3.9524007Q0.19571938,3.8280735,0.23453304,3.7054241Q0.27334672,3.5827744,0.31839192,3.4620981Q0.36343709,3.3414218,0.41460529,3.2230096Q0.46577349,3.1045976,0.52294147,2.9887345Q0.58010936,2.8728719,0.64313936,2.7598376Q0.70616937,2.6468029,0.7749095,2.5368693Q0.84364963,2.4269357,0.91793436,2.3203676Q0.99221909,2.2137995,1.0718694,2.1108537Q1.1515198,2.0079079,1.2363439,1.9088326Q1.3211679,1.809757,1.4109614,1.7147906Q1.5007548,1.6198242,1.5953014,1.5291954Q1.6898478,1.4385667,1.7889197,1.3524942Q1.8879914,1.2664216,1.9913499,1.1851125Q2.0947084,1.1038033,2.2021043,1.0274534Q2.3095002,0.95110357,2.4206753,0.87989706Q2.5318503,0.80869055,2.6465364,0.74279886Q2.7612224,0.67690718,2.8791432,0.61648905Q2.9970641,0.55607086,3.1179354,0.50127184Q3.2388067,0.44647279,3.3623376,0.39742491Q3.4858687,0.34837699,3.6117616,0.3051984Q3.7376547,0.26201978,3.8656063,0.22481449Q3.9935579,0.18760917,4.12326,0.1564668Q4.2529616,0.12532444,4.3841014,0.10032003Q4.5152411,0.075315632,4.6475029,0.056509435Q4.7797651,0.037703231,4.9128304,0.025140539Q5.0458956,0.012577844,5.1794429,0.0062889219Q5.3129911,0,5.4467001,0Q5.580409,0,5.7139568,0.0062889219Q5.8475046,0.012577844,5.9805698,0.025140539Q6.1136351,0.037703231,6.2458963,0.056509435Q6.3781581,0.075315632,6.5092978,0.10032003Q6.6404376,0.12532444,6.7701397,0.1564668Q6.8998413,0.18760917,7.0277929,0.22481447Q7.1557446,0.26201978,7.2816372,0.3051984Q7.4075298,0.34837699,7.5310612,0.39742491Q7.6545916,0.44647279,7.7754631,0.50127184Q7.8963346,0.55607086,8.0142555,0.61648905Q8.1321754,0.67690718,8.2468624,0.74279886Q8.3615475,0.80869055,8.472723,0.87989712Q8.5838985,0.95110363,8.6912937,1.0274534Q8.7986908,1.1038033,8.9020491,1.1851125Q9.0054073,1.2664216,9.1044788,1.3524942Q9.2035503,1.4385667,9.2980976,1.5291954Q9.3926439,1.6198242,9.4824371,1.7147906Q9.5722313,1.809757,9.6570549,1.9088326Q9.7418785,2.0079079,9.8215294,2.1108537Q9.9011803,2.2137995,9.9754648,2.3203676Q10.049749,2.4269357,10.11849,2.5368693Q10.18723,2.6468029,10.25026,2.7598376Q10.31329,2.8728719,10.370458,2.9887347Q10.427626,3.1045976,10.478793,3.2230096Q10.529961,3.3414218,10.575006,3.4620981Q10.620052,3.5827742,10.658867,3.7054238Q10.69768,3.8280733,10.730168,3.9524007Q10.762657,4.0767279,10.788742,4.2024336Q10.814827,4.3281393,10.834447,4.4549208Q10.854067,4.5817013,10.867172,4.7092528Q10.880278,4.8368034,10.886839,4.9648175Q10.8934,5.0928316,10.8934,5.2210002Z" fill="#366FFF" fill-opacity="0.20000000298023224"/></svg>