<svg xmlns="http://www.w3.org/2000/svg" xmlns:xlink="http://www.w3.org/1999/xlink" fill="none" version="1.1" width="218" height="217.44" viewBox="0 0 218 219.224365234375"><path d="M108.49999774,0.39440691968749997L108.5,0.8944091796875L108.5,218.3302891796875L108.49999774,218.8302891796875L109.50000226,218.8302891796875L109.5,218.3302891796875L109.5,0.8944091796875L109.50000226,0.39440691968749997L108.49999774,0.39440691968749997Z" fill-rule="evenodd" fill="#202020" fill-opacity="0.07999999821186066"/><g transform="matrix(-0.5007984042167664,-0.8655639886856079,0.8666852712631226,-0.498855322599411,-25.635714704909333,421.516700423188)"><path d="M297.52296873046873,217.6092402984375L297.0900887304688,217.8594857484375L108.72845638046876,326.7507583984375L108.29558063046875,327.00098839843747L108.79606758046874,327.8667483984375L109.22894111046875,327.61648839843747L297.5905787304688,218.7252311084375L298.0234487304688,218.4749895484375L297.52296873046873,217.6092402984375Z" fill-rule="evenodd" fill="#202020" fill-opacity="0.07999999821186066"/></g><g transform="matrix(0.8666852712631226,0.4988553524017334,-0.5007983446121216,0.8655639886856079,14.995274272565439,-54.23929546728323)"><path d="M217.68729873046874,0.24902534624999995L217.43705873046875,0.68190112625L108.54582611046875,189.04333890625L108.29558051046875,189.47620890625L109.16132972046876,189.97669890625L109.41157138046874,189.54381890625L218.30279873046874,1.1823860662499999L218.55304873046873,0.74951259625L217.68729873046874,0.24902534624999995Z" fill-rule="evenodd" fill="#202020" fill-opacity="0.07999999821186066"/></g><path d="M109,0.31743204968750005L14.353717,54.8200831796875L14.103231,54.9643321796875L14.103231,164.2603791796875L109,218.9072691796875L203.89677,164.2603791796875L203.89677,54.9643321796875L109,0.31743204968750005ZM15.103231,55.5424271796875L15.103231,163.6822691796875L109,217.7533291796875L202.89677,163.6822691796875L202.89677,55.5424271796875L109,1.4713848196875001L15.103231,55.5424271796875Z" fill-rule="evenodd" fill="#202020" fill-opacity="0.07999999821186066"/><path d="M109.0008240703125,27.4968753490625L37.9537327003125,68.40979353906249L37.7032470703125,68.5540385390625L37.7032470703125,150.67061253906252L109.0008240703125,191.7277725390625L180.2983970703125,150.67061253906252L180.2983970703125,68.5540385390625L109.0008240703125,27.4968753490625ZM38.7032470703125,69.1321375390625L38.7032470703125,150.09250253906248L109.0008240703125,190.5738025390625L179.2983970703125,150.0925125390625L179.2983970703125,69.1321375390625L109.0008240703125,28.6508303890625L38.7032470703125,69.1321375390625Z" fill-rule="evenodd" fill="#202020" fill-opacity="0.07999999821186066"/><path d="M109,54.6763187084375L61.5521011,81.9994888984375L61.3016157,82.1437338984375L61.3016157,137.0808108984375L109,164.5482158984375L156.69839000000002,137.0808108984375L156.69839000000002,82.1437338984375L109,54.6763187084375ZM62.3016157,82.7218338984375L62.3016157,136.5027088984375L109.00000399999999,163.3942758984375L155.69839000000002,136.5027158984375L155.69839000000002,82.7218318984375L109.00000399999999,55.8302748184375L62.3016157,82.7218338984375Z" fill-rule="evenodd" fill="#202020" fill-opacity="0.07999999821186066"/><path d="M109,81.855884138125L85.1512935,95.589313328125L84.9008079,95.733557328125L84.9008079,123.491146328125L109,137.368816328125L133.099194,123.491146328125L133.099194,95.733557328125L109,81.855884138125ZM85.9008079,96.311654328125L85.9008079,122.913047328125L109,136.214862328125L132.099194,122.913044328125L132.099194,96.311655328125L109,83.009838578125L85.9008079,96.311654328125Z" fill-rule="evenodd" fill="#202020" fill-opacity="0.07999999821186066"/></svg>