<svg xmlns="http://www.w3.org/2000/svg" xmlns:xlink="http://www.w3.org/1999/xlink" fill="none" version="1.1" width="14" height="14" viewBox="0 0 14 14"><defs><clipPath id="master_svg0_2_00783"><rect x="-0.5833333134651184" y="-0.5833333134651184" width="15.166666626930237" height="15.166666626930237" rx="0"/></clipPath></defs><g clip-path="url(#master_svg0_2_00783)"><path d="M0.6635623007757568,7.425405019775391Q1.4573816407757567,9.35019491977539,3.1876616607757566,10.50825121977539Q4.9179425607757565,11.666307419775391,6.9999983607757565,11.666307419775391Q9.082055760775756,11.666307419775391,10.812337660775757,10.50825121977539Q12.542620060775757,9.35019251977539,13.336438060775757,7.425404519775391Q13.340411060775757,7.41577001977539,13.344038060775757,7.40600011977539Q13.494747060775756,7.00000001977539,13.344038060775757,6.59399961977539Q13.340411060775757,6.58422941977539,13.336438060775757,6.574595219775391Q12.542621060775756,4.64980771977539,10.812337660775757,3.491748989775391Q9.082056260775758,2.3336932097753906,7.0000002607757565,2.3336930897753905Q4.917942260775757,2.3336931497753906,3.1876621607757567,3.4917489297753908Q1.4573813707757568,4.649805019775391,0.6635623607757568,6.574595019775391Q0.6595888107757568,6.58422941977539,0.6559622307757569,6.593999819775391Q0.5052533107757569,6.999999019775391,0.6559619907757568,7.405999619775391Q0.6595888107757568,7.41577001977539,0.6635623007757568,7.425405019775391ZM6.9999983607757565,10.499640919775391Q5.2723352607757565,10.499640919775391,3.8365707607757566,9.53870061977539Q2.4095390607757565,8.583605719775392,1.7501468107757567,6.999999519775391Q2.4095386607757567,5.41639521977539,3.8365707607757566,4.461299819775391Q5.2723352607757565,3.5003597097753905,7.0000002607757565,3.5003597097753905Q8.727664260775757,3.5003598297753906,10.163429060775757,4.46129991977539Q11.590461060775757,5.416395619775391,12.249852060775757,6.999999519775391Q11.590460060775756,8.583604819775392,10.163429060775757,9.538701019775392Q8.727664260775757,10.499640919775391,6.9999983607757565,10.499640919775391Z" fill-rule="evenodd" fill="#F59E0B" fill-opacity="1"/><path d="M8.649915700000001,5.35008419Q7.9664981,4.66666669,6.9999999,4.66666669Q6.0335018,4.66666663,5.35008419,5.35008419Q4.66666669,6.03350168,4.66666669,6.999999Q4.66666675,7.9664979,5.35008411,8.6499155Q6.03350127,9.333333,6.999999,9.333333Q7.9664977,9.333333,8.6499152,8.649915700000001Q9.333333,7.9664984,9.333333,6.9999999Q9.333333,6.03350151,8.649915700000001,5.35008419ZM6.17504209,6.17504209Q6.5167509,5.83333325,6.9999999,5.83333331Q7.4832488999999995,5.83333331,7.8249578,6.17504209Q8.1666665,6.5167507,8.1666665,6.9999999Q8.1666665,7.4832494,7.8249578,7.8249578Q7.4832488999999995,8.1666665,6.999999,8.1666665Q6.5167509,8.1666665,6.17504215,7.824957599999999Q5.83333337,7.4832485,5.83333331,6.999999Q5.83333331,6.5167508000000005,6.17504209,6.17504209Z" fill-rule="evenodd" fill="#F59E0B" fill-opacity="1"/></g></svg>