<svg xmlns="http://www.w3.org/2000/svg" xmlns:xlink="http://www.w3.org/1999/xlink" fill="none" version="1.1" width="20" height="20" viewBox="0 0 20 20"><defs><clipPath id="master_svg0_2_01619"><rect x="-0.8333333134651184" y="-0.8333333134651184" width="21.666666626930237" height="21.666666626930237" rx="0"/></clipPath></defs><g clip-path="url(#master_svg0_2_01619)"><path d="M15.553885,5.62462652Q15.687894,5.50579512,15.761364,5.34245092Q15.834834,5.17910665,15.834833,5Q15.834833,4.91777613,15.818791,4.83713219Q15.802751,4.75648823,15.771284,4.68052328Q15.739819,4.60455832,15.694138,4.53619164Q15.648457,4.467825,15.590316,4.40968394Q15.532174,4.35154289,15.463807,4.30586171Q15.39544,4.26018059,15.319475,4.22871488Q15.24351,4.19724917,15.162867,4.18120813Q15.082224,4.16516697,15,4.16516697Q14.8208933,4.16516697,14.6575489,4.23863703Q14.4942045,4.31210709,14.3753729,4.44611573L4.44611573,14.3753729Q4.31210709,14.4942045,4.23863697,14.6575489Q4.16516697,14.8208933,4.16516697,15Q4.16516697,15.082224,4.18120813,15.162867Q4.19724917,15.24351,4.22871494,15.319475Q4.26018065,15.395439,4.30586177,15.463806Q4.35154289,15.532173,4.40968394,15.590315Q4.467825,15.648457,4.53619164,15.694138Q4.60455832,15.739819,4.68052328,15.771284Q4.75648823,15.802751,4.83713219,15.818792Q4.91777613,15.834833,5,15.834833Q5.17910665,15.834833,5.34245092,15.761364Q5.50579512,15.687894,5.62462652,15.553885L15.553885,5.62462652Z" fill-rule="evenodd" fill="#111827" fill-opacity="1"/><path d="M4.44611233,5.6246236Q4.3121053,5.50579226,4.23863614,5.34244889Q4.16516697,5.17910549,4.16516697,5Q4.16516697,4.91777613,4.18120813,4.83713219Q4.19724917,4.75648823,4.22871494,4.68052328Q4.26018065,4.60455832,4.30586177,4.53619164Q4.35154289,4.467825,4.40968394,4.40968394Q4.467825,4.35154289,4.53619164,4.30586171Q4.60455832,4.26018059,4.68052328,4.22871488Q4.75648823,4.19724917,4.83713219,4.18120813Q4.91777613,4.16516697,5,4.16516697Q5.17910549,4.16516697,5.34244889,4.23863614Q5.50579226,4.3121053,5.6246236,4.44611233L15.553881,14.37537Q15.68789,14.4942007,15.761361,14.6575451Q15.834832,14.8208904,15.834833,15Q15.834833,15.082224,15.818791,15.162867Q15.802751,15.24351,15.771284,15.319475Q15.739819,15.395439,15.694138,15.463806Q15.648457,15.532173,15.590316,15.590315Q15.532174,15.648457,15.463807,15.694138Q15.39544,15.739819,15.319475,15.771284Q15.24351,15.802751,15.162867,15.818792Q15.082224,15.834833,15,15.834833Q14.8208904,15.834832,14.657546,15.761361Q14.4942007,15.68789,14.37537,15.553881L4.44611233,5.6246236Z" fill-rule="evenodd" fill="#111827" fill-opacity="1"/></g></svg>