<svg xmlns="http://www.w3.org/2000/svg" xmlns:xlink="http://www.w3.org/1999/xlink" fill="none" version="1.1" width="24" height="24" viewBox="0 0 24 24"><path d="M13.2998523546875,8.10982731875C13.2998523546875,8.10982731875,14.6198520546875,10.74982741875,14.6198520546875,10.74982741875C14.7998520546875,11.10982751875,15.2798520546875,11.46982761875,15.6798520546875,11.52982711875C15.6798520546875,11.52982711875,18.0698520546875,11.929828118749999,18.0698520546875,11.929828118749999C19.5998530546875,12.18982791875,19.9598540546875,13.28982781875,18.8598540546875,14.38982771875C18.8598540546875,14.38982771875,16.9998520546875,16.259826618749997,16.9998520546875,16.259826618749997C16.6898520546875,16.56982711875,16.5098530546875,17.17982721875,16.6098540546875,17.61982721875C16.6098540546875,17.61982721875,17.139852054687502,19.92982721875,17.139852054687502,19.92982721875C17.5598520546875,21.74982621875,16.5898510546875,22.45982721875,14.9798520546875,21.50982621875C14.9798520546875,21.50982621875,12.7398519546875,20.17982721875,12.7398519546875,20.17982721875C12.3298516546875,19.93982721875,11.6698522546875,19.93982721875,11.2598519546875,20.17982721875C11.2598519546875,20.17982721875,9.0098519546875,21.49982621875,9.0098519546875,21.49982621875C7.3998517546875,22.449826218749998,6.4298517546875,21.73982621875,6.8498516546875,19.91982621875C6.8498516546875,19.91982621875,7.3798518546875,17.60982721875,7.3798518546875,17.60982721875C7.479851954687501,17.17982721875,7.2998516546875,16.56982711875,6.9898514546875,16.24982741875C6.9898514546875,16.24982741875,5.1398513346875,14.399827018749999,5.1398513346875,14.399827018749999C4.0398511846875,13.299827118749999,4.3998513246875,12.18982741875,5.9298515546875,11.93982741875C5.9298515546875,11.93982741875,8.3198513546875,11.53982781875,8.3198513546875,11.53982781875C8.7198514546875,11.46982761875,9.1998519546875,11.119827718749999,9.3798518546875,10.75982761875C9.3798518546875,10.75982761875,10.6998519546875,8.11982751875,10.6998519546875,8.11982751875C11.4098520546875,6.67982759875,12.5898523546875,6.67982744875,13.2998523546875,8.10982731875Z" fill="#22C55E" fill-opacity="1"/><path d="M6,9.750244140625C5.58999997,9.750244140625,5.25,9.410243940625,5.25,9.000244140625C5.25,9.000244140625,5.25,2.000244080625,5.25,2.000244080625C5.25,1.590244110625,5.58999997,1.250244140625,6,1.250244140625C6.41,1.250244140625,6.75,1.590244110625,6.75,2.000244080625C6.75,2.000244080625,6.75,9.000244140625,6.75,9.000244140625C6.75,9.410243940625,6.41,9.750244140625,6,9.750244140625Z" fill="#22C55E" fill-opacity="1"/><path d="M18,9.750244140625C17.58999997,9.750244140625,17.25,9.410243940625,17.25,9.000244140625C17.25,9.000244140625,17.25,2.000244080625,17.25,2.000244080625C17.25,1.590244110625,17.58999997,1.250244140625,18,1.250244140625C18.41,1.250244140625,18.75,1.590244110625,18.75,2.000244080625C18.75,2.000244080625,18.75,9.000244140625,18.75,9.000244140625C18.75,9.410243940625,18.41,9.750244140625,18,9.750244140625Z" fill="#22C55E" fill-opacity="1"/><path d="M12,4.750244340625001C11.58999997,4.750244340625001,11.25,4.410244440625,11.25,4.000244140625C11.25,4.000244140625,11.25,2.000244140625,11.25,2.000244140625C11.25,1.590244110625,11.58999997,1.250244140625,12,1.250244140625C12.41,1.250244140625,12.75,1.590244110625,12.75,2.000244140625C12.75,2.000244140625,12.75,4.000244140625,12.75,4.000244140625C12.75,4.410244440625,12.41,4.750244340625001,12,4.750244340625001Z" fill="#22C55E" fill-opacity="1"/></svg>