<svg xmlns="http://www.w3.org/2000/svg" xmlns:xlink="http://www.w3.org/1999/xlink" fill="none" version="1.1" width="261.2" height="66.93" viewBox="0 0 261.20001220703125 66.9300537109375"><path d="M0,4C0,2.9391341,0.42142814,1.9217191,1.1715736,1.1715736C1.9217191,0.42142814,2.9391341,-3.5527137e-15,4,0C4,0,14,0,14,0C15.060866,-3.5527137e-15,16.078285,0.42142814,16.82843,1.1715736C17.578575,1.9217191,18,2.9391341,18,4C18,4,18,66.93,18,66.93C18,66.93,0,66.93,0,66.93C0,66.93,0,4,0,4Z" fill="#22C55E" fill-opacity="1"/><path d="M60.80000305175781,16.764999389648438C60.80000305175781,15.704133489648438,61.22142738175781,14.686718489648438,61.97157285175781,13.936572989648438C62.721718351757815,13.186427529648437,63.73913715175781,12.764999389648445,64.80000305175781,12.764999389648438C64.80000305175781,12.764999389648438,74.80000305175781,12.764999389648438,74.80000305175781,12.764999389648438C75.86086905175782,12.764999389648438,76.8782880517578,13.186427529648437,77.62843305175781,13.936572989648438C78.37857805175781,14.686718489648438,78.80000305175781,15.704133489648438,78.80000305175781,16.764999389648438C78.80000305175781,16.764999389648438,78.80000305175781,66.93000038964843,78.80000305175781,66.93000038964843C78.80000305175781,66.93000038964843,60.80000305175781,66.93000038964843,60.80000305175781,66.93000038964843C60.80000305175781,66.93000038964843,60.80000305175781,16.764999389648438,60.80000305175781,16.764999389648438Z" fill="#22C55E" fill-opacity="1"/><path d="M121.60000610351562,33.67000198364258C121.60000610351562,32.609136083642575,122.02143043351562,31.591717283642577,122.77157590351563,30.84157178364258C123.52172140351563,30.09142631364258,124.53914020351563,29.670001983642578,125.60000610351562,29.670001983642578C125.60000610351562,29.670001983642578,135.60000610351562,29.670001983642578,135.60000610351562,29.670001983642578C136.66087210351563,29.670001983642578,137.67827610351563,30.09142631364258,138.42842110351563,30.84157178364258C139.17856610351564,31.591717283642577,139.60000610351562,32.609136083642575,139.60000610351562,33.67000198364258C139.60000610351562,33.67000198364258,139.60000610351562,66.92999998364257,139.60000610351562,66.92999998364257C139.60000610351562,66.92999998364257,121.60000610351562,66.92999998364257,121.60000610351562,66.92999998364257C121.60000610351562,66.92999998364257,121.60000610351562,33.67000198364258,121.60000610351562,33.67000198364258Z" fill="#F5A623" fill-opacity="1"/><path d="M182.39999389648438,36.66000364741211C182.39999389648438,35.59913774741211,182.82143348648438,34.58171894741211,183.57157899648436,33.83157344741211C184.32172439648437,33.08142798741211,185.33912799648436,32.65999984741211,186.39999389648438,32.65999984741211C186.39999389648438,32.65999984741211,196.39999389648438,32.65999984741211,196.39999389648438,32.65999984741211C197.46085989648438,32.6599998474121,198.47827889648437,33.08142798741211,199.22842389648437,33.83157344741211C199.97856889648438,34.58171894741211,200.39999389648438,35.59913774741211,200.39999389648438,36.66000364741211C200.39999389648438,36.66000364741211,200.39999389648438,66.92999984741212,200.39999389648438,66.92999984741212C200.39999389648438,66.92999984741212,182.39999389648438,66.92999984741212,182.39999389648438,66.92999984741212C182.39999389648438,66.92999984741212,182.39999389648438,36.66000364741211,182.39999389648438,36.66000364741211Z" fill="#F5A623" fill-opacity="1"/><path d="M243.20001220703125,49.654998779296875C243.20001220703125,48.59413287929687,243.62143653703126,47.576721679296874,244.37158200703124,46.82657627929687C245.12172750703124,46.076430739296875,246.13914630703124,45.654998779296875,247.20001220703125,45.654998779296875C247.20001220703125,45.654998779296875,257.20001220703125,45.654998779296875,257.20001220703125,45.654998779296875C258.2608782070312,45.654998779296875,259.27829720703124,46.076430739296875,260.0284422070313,46.82657627929687C260.77858720703125,47.576721679296874,261.20001220703125,48.59413287929687,261.20001220703125,49.654998779296875C261.20001220703125,49.654998779296875,261.20001220703125,66.93000077929688,261.20001220703125,66.93000077929688C261.20001220703125,66.93000077929688,243.20001220703125,66.93000077929688,243.20001220703125,66.93000077929688C243.20001220703125,66.93000077929688,243.20001220703125,49.654998779296875,243.20001220703125,49.654998779296875Z" fill="#F04050" fill-opacity="1"/></svg>