<svg xmlns="http://www.w3.org/2000/svg" xmlns:xlink="http://www.w3.org/1999/xlink" fill="none" version="1.1" width="14" height="14" viewBox="0 0 14 14"><defs><clipPath id="master_svg0_2_00954"><rect x="-0.5833333134651184" y="-0.5833333134651184" width="15.166666626930237" height="15.166666626930237" rx="0"/></clipPath></defs><g clip-path="url(#master_svg0_2_00954)"><path d="M12.249999492279052,7.583332404911804L12.249999492279052,3.500000104911804Q12.249999492279052,3.0167506049118042,11.908292292279052,2.675042604911804Q11.566583192279053,2.3333335049118045,11.083333492279053,2.3333335049118045Q9.477192892279053,2.3333335049118045,7.822250892279053,0.8864920449118042Q7.467108292279053,0.5830712949118042,6.999999992279053,0.5830712949118042Q6.532890292279053,0.5830712949118042,6.172896192279053,0.8906841549118042Q5.450225592279052,1.5219829349118041,4.5548204922790525,1.9235833849118043Q3.641245292279053,2.3333335049118045,2.9166668022790527,2.3333335049118045Q2.4334176222790527,2.3333335049118045,2.0917094622790526,2.6750419049118044Q1.7500001822790527,3.016750404911804,1.7500001822790527,3.500000104911804L1.7499996422790527,7.583332404911804Q1.7499996422790527,11.666586604911805,6.611362892279053,13.347736604911804Q6.996468992279053,13.488488604911804,7.390332192279053,13.354998604911804Q12.249999492279052,11.661121604911804,12.249999492279052,7.583332404911804ZM8.970205292279053,2.9903965049118044Q10.108015492279053,3.500000104911804,11.083333492279053,3.500000104911804L11.083333492279053,7.583332404911804Q11.083333492279053,10.830374604911805,7.011084992279053,12.251680604911805Q7.004524192279053,12.249236604911804,6.997905692279053,12.246949604911805Q2.9166665122790527,10.837601504911804,2.916666272279053,7.583332404911804L2.9166665122790527,3.500000604911804Q3.890897792279053,3.500000104911804,5.032262592279053,2.988083404911804Q6.086591292279053,2.5152035049118044,6.940436392279053,1.7693154249118042Q6.963405592279052,1.7497379149118042,6.999999992279053,1.7497379149118042Q7.036593892279052,1.7497379149118042,7.064416392279052,1.7735081949118041Q7.916356092279052,2.5183976049118044,8.970205292279053,2.9903965049118044Z" fill-rule="evenodd" fill="#22C55E" fill-opacity="1"/><path d="M9.1323919,6.275899202279053Q9.2288301,6.192573432279053,9.2818565,6.076678392279053Q9.3348827,5.960783352279052,9.3348827,5.833333492279053Q9.3348827,5.7757275512790525,9.3236437,5.719228502279052Q9.3124056,5.662729442279053,9.2903609,5.609508502279053Q9.2683158,5.556287552279053,9.2363119,5.508389952279053Q9.2043078,5.460492372279052,9.1635745,5.419758792279053Q9.1228409,5.379025252279053,9.074943300000001,5.347021102279053Q9.0270455,5.315016922279053,8.9738245,5.292972092279053Q8.9206038,5.270927252279053,8.8641047,5.259688912279053Q8.8076057,5.248450522279053,8.75,5.248450522279053Q8.6225502,5.248450522279053,8.5066552,5.301476832279053Q8.3907604,5.354503092279053,8.3074348,5.450940822279053L6.4166666,7.341708892279053L5.69256482,6.617607052279053Q5.60923904,6.521169422279053,5.49334428,6.468143282279053Q5.3774495,6.415117142279053,5.25,6.415117142279053Q5.192394059,6.415117142279053,5.13589501,6.426355482279053Q5.07939595,6.4375938222790525,5.02617501,6.459638652279053Q4.97295406,6.4816834922790525,4.92505646,6.513687612279052Q4.87715888,6.545691732279053,4.8364253,6.586425362279053Q4.79569176,6.627158882279053,4.76368761,6.675056462279053Q4.73168343,6.722954032279053,4.7096386,6.776174962279053Q4.68759376,6.8293960122790525,4.67635542,6.885894992279052Q4.66511703,6.942394092279053,4.66511703,7.000000092279053Q4.66511703,7.1274497922790525,4.71814328,7.243344692279052Q4.7711696,7.359239592279053,4.86760733,7.442565292279053L6.00418764,8.579145692279052Q6.04481328,8.619771192279053,6.09258389,8.651690492279052Q6.14035451,8.683609992279052,6.19343448,8.705596192279053Q6.24651444,8.727582892279052,6.3028638,8.738791492279052Q6.3592131,8.749999992279053,6.4166665,8.749999992279053Q6.4741198,8.749999992279053,6.5304692,8.738791492279052Q6.5868186,8.727582892279052,6.6398985,8.705596192279053Q6.6929784,8.683609992279052,6.7407491,8.651690492279052Q6.7885199,8.619771192279053,6.8291456,8.579145692279052L9.1323919,6.275899202279053Z" fill-rule="evenodd" fill="#22C55E" fill-opacity="1"/></g></svg>