<svg xmlns="http://www.w3.org/2000/svg" xmlns:xlink="http://www.w3.org/1999/xlink" fill="none" version="1.1" width="14" height="14" viewBox="0 0 14 14"><defs><clipPath id="master_svg0_2_6832"><rect x="-0.5833333134651184" y="-0.5833333134651184" width="15.166666626930237" height="15.166666626930237" rx="0"/></clipPath></defs><g clip-path="url(#master_svg0_2_6832)"><path d="M3.500000165348816,2.9182164622790525Q3.557606065348816,2.9182164622790525,3.614104865348816,2.9069781322790527Q3.670604065348816,2.895739732279053,3.7238248653488157,2.873694892279053Q3.777045865348816,2.851650062279053,3.824943465348816,2.819645882279053Q3.872840965348816,2.7876417322790528,3.913574565348816,2.7469081922790526Q3.9543078653488157,2.7061746122790526,3.986312265348816,2.6582770322790528Q4.0183163653488165,2.6103794322790526,4.040361265348816,2.5571584822790525Q4.0624064653488166,2.503937542279053,4.073644765348815,2.4474384822790527Q4.084883065348816,2.3909394332790526,4.084883065348816,2.3333334922790527Q4.084883065348816,2.275727551279053,4.0736445653488165,2.2192285022790528Q4.0624064653488166,2.1627294422790526,4.040361265348816,2.109508502279053Q4.0183163653488165,2.056287552279053,3.986312265348816,2.0083899522790527Q3.9543078653488157,1.9604923722790528,3.913574565348816,1.9197587922790527Q3.872840965348816,1.8790252522790527,3.824943465348816,1.8470211022790528Q3.777045865348816,1.8150169222790526,3.7238248653488157,1.7929720922790526Q3.670604065348816,1.7709272522790527,3.614104865348816,1.7596889122790529Q3.557606065348816,1.7484505222790527,3.500000165348816,1.7484505222790527Q3.478697865348816,1.7484505222790527,3.457451965348816,1.7500001822790527L2.625000165348816,1.7500001822790527Q1.779314215348816,1.7500001822790527,1.181323965348816,2.3479905222790527Q0.5833335553488159,2.9459808422790528,0.5833336153488159,3.791666792279053Q0.5833335553488159,4.637352192279053,1.181323686348816,5.235342992279053Q1.779314105348816,5.833333492279053,2.625000165348816,5.833333492279053L3.457454565348816,5.833333492279053Q3.478699065348816,5.834882992279052,3.500000165348816,5.834882992279052Q3.557606065348816,5.834882692279052,3.614104865348816,5.823644392279053Q3.670604065348816,5.812405792279053,3.7238248653488157,5.790360892279052Q3.777045865348816,5.768316292279053,3.824943465348816,5.736312392279053Q3.872840965348816,5.704307992279053,3.913574565348816,5.663574692279052Q3.9543078653488157,5.622841092279053,3.986312265348816,5.574943592279053Q4.0183163653488165,5.527045692279053,4.040361265348816,5.473824692279052Q4.0624064653488166,5.420603792279053,4.073644765348815,5.364104792279052Q4.084883065348816,5.307605792279053,4.084883065348816,5.249999992279053Q4.084883065348816,5.192393792279052,4.0736445653488165,5.1358947922790525Q4.0624064653488166,5.079395792279053,4.040361265348816,5.026174792279052Q4.0183163653488165,4.9729537922790525,3.986312265348816,4.925056492279053Q3.9543078653488157,4.877158592279052,3.913574565348816,4.836425092279052Q3.872840965348816,4.795691492279053,3.824943465348816,4.763687392279053Q3.777045865348816,4.731683292279053,3.7238248653488157,4.709638392279053Q3.670604065348816,4.687593692279053,3.614104865348816,4.676355392279053Q3.557606065348816,4.665116992279053,3.500000165348816,4.665116992279053Q3.478697465348816,4.665116992279053,3.457451265348816,4.666666792279052L2.625000165348816,4.666666792279052Q2.2625630653488162,4.666666792279052,2.006281915348816,4.410385392279053Q1.750000175348816,4.154103292279053,1.750000175348816,3.791666792279053Q1.750000175348816,3.429229992279053,2.006281915348816,3.172948302279053Q2.262563365348816,2.9166668022790527,2.625000165348816,2.9166668022790527L3.457451965348816,2.9166668022790527Q3.478697865348816,2.9182164622790525,3.500000165348816,2.9182164622790525Z" fill-rule="evenodd" fill="#F5A623" fill-opacity="1"/><path d="M10.542548083,2.9166668022790527Q10.521302262,2.9182164622790525,10.5,2.9182164622790525Q10.442394059,2.9182164622790525,10.38589501,2.9069781322790527Q10.32939595,2.895739732279053,10.27617501,2.873694892279053Q10.22295406,2.851650062279053,10.17505646,2.819645882279053Q10.12715888,2.7876417322790528,10.0864253,2.7469081922790526Q10.04569176,2.7061746122790526,10.01368761,2.6582770322790528Q9.98168343,2.6103794322790526,9.9596386,2.5571584822790525Q9.93759376,2.503937542279053,9.92635542,2.4474384822790527Q9.91511703,2.3909394332790526,9.91511703,2.3333334922790527Q9.91511703,2.275727551279053,9.92635536,2.2192285022790528Q9.93759376,2.1627294422790526,9.9596386,2.109508502279053Q9.98168343,2.056287552279053,10.01368761,2.0083899522790527Q10.04569176,1.9604923722790528,10.0864253,1.9197587922790527Q10.12715888,1.8790252522790527,10.17505646,1.8470211022790528Q10.22295406,1.8150169222790526,10.27617501,1.7929720922790526Q10.32939595,1.7709272522790527,10.38589501,1.7596889122790529Q10.442394059,1.7484505222790527,10.5,1.7484505222790527Q10.521302262,1.7484505222790527,10.542548083,1.7500001822790527L11.375,1.7500001822790527Q12.2206857,1.7500001822790527,12.8186762,2.3479904182790525Q13.4166665,2.945980732279053,13.4166665,3.791666792279053Q13.4166665,4.637352492279053,12.8186765,5.235342992279053Q12.2206858,5.833333492279053,11.375,5.833333492279053L10.542545632,5.833333492279053Q10.521301031,5.834882992279052,10.5,5.834882992279052Q10.442394059,5.834882692279052,10.38589501,5.823644392279053Q10.32939595,5.812405792279053,10.27617501,5.790360892279052Q10.22295406,5.768316292279053,10.17505646,5.736312392279053Q10.12715888,5.704307992279053,10.0864253,5.663574692279052Q10.04569176,5.622841092279053,10.01368761,5.574943592279053Q9.98168343,5.527045692279053,9.9596386,5.473824692279052Q9.93759376,5.420603792279053,9.92635542,5.364104792279052Q9.91511703,5.307605792279053,9.91511703,5.249999992279053Q9.91511703,5.192393792279052,9.92635536,5.1358947922790525Q9.93759376,5.079395792279053,9.9596386,5.026174792279052Q9.98168343,4.9729537922790525,10.01368761,4.925056492279053Q10.04569176,4.877158592279052,10.0864253,4.836425092279052Q10.12715888,4.795691492279053,10.17505646,4.763687392279053Q10.22295406,4.731683292279053,10.27617501,4.709638392279053Q10.32939595,4.687593692279053,10.38589501,4.676355392279053Q10.442394059,4.665116992279053,10.5,4.665116992279053Q10.521302672,4.665116992279053,10.542548899,4.666666792279052L11.375,4.666666792279052Q11.7374368,4.666666792279052,11.9937183,4.410385392279053Q12.25,4.154103392279053,12.25,3.791666792279053Q12.25,3.429229692279053,11.9937185,3.1729484222790525Q11.7374368,2.9166668022790527,11.375,2.9166668022790527L10.542548083,2.9166668022790527Z" fill-rule="evenodd" fill="#F5A623" fill-opacity="1"/><path d="M2.3758815752790525,13.416666325441895Q2.3546357542790526,13.418215985441895,2.3333334922790527,13.418215985441895Q2.275727551279053,13.418215985441895,2.2192285022790528,13.406977655441894Q2.1627294422790526,13.395739255441894,2.109508502279053,13.373694415441895Q2.056287552279053,13.351649585441894,2.0083899522790527,13.319645405441895Q1.9604923722790528,13.287641255441894,1.9197587922790527,13.246907715441894Q1.8790252522790527,13.206174135441895,1.8470211022790528,13.158276555441894Q1.8150169222790526,13.110378955441895,1.7929720922790526,13.057158005441895Q1.7709272522790527,13.003937065441894,1.7596889122790529,12.947438005441894Q1.7484505222790527,12.890938956441895,1.7484505222790527,12.833333015441895Q1.7484505222790527,12.775727074441894,1.7596888522790528,12.719228025441895Q1.7709272522790527,12.662728965441895,1.7929720922790526,12.609508025441894Q1.8150169222790526,12.556287075441894,1.8470211022790528,12.508389475441895Q1.8790252522790527,12.460491895441894,1.9197587922790527,12.419758315441895Q1.9604923722790528,12.379024775441895,2.0083899522790527,12.347020625441894Q2.056287552279053,12.315016445441895,2.109508502279053,12.292971615441894Q2.1627294422790526,12.270926775441895,2.2192285022790528,12.259688435441895Q2.275727551279053,12.248450045441894,2.3333334922790527,12.248450045441894Q2.3546357542790526,12.248450045441894,2.3758815752790525,12.249999705441894L11.624118292279054,12.249999705441894Q11.645364292279053,12.248450045441894,11.666666492279052,12.248450045441894Q11.724271292279052,12.248450045441894,11.780770792279053,12.259688375441895Q11.837269292279053,12.270926775441895,11.890490092279054,12.292971615441894Q11.943711792279053,12.315016445441895,11.991609092279052,12.347020625441894Q12.039506392279053,12.379024775441895,12.080240692279054,12.419758315441895Q12.120974092279052,12.460491895441894,12.152978392279053,12.508389475441895Q12.184981792279054,12.556287075441894,12.207026992279053,12.609508025441894Q12.229072092279052,12.662728965441895,12.240310192279052,12.719228025441895Q12.251548292279052,12.775727074441894,12.251549292279053,12.833333015441895Q12.251548292279052,12.890938956441895,12.240310192279052,12.947438005441894Q12.229072092279052,13.003937065441894,12.207026992279053,13.057158005441895Q12.184981792279054,13.110378955441895,12.152977492279053,13.158276555441894Q12.120973092279053,13.206174135441895,12.080239792279052,13.246907715441894Q12.039506392279053,13.287641255441894,11.991609092279052,13.319645405441895Q11.943710792279052,13.351649585441894,11.890490092279054,13.373694415441895Q11.837269292279053,13.395739255441894,11.780770792279053,13.406977595441894Q11.724271292279052,13.418215985441895,11.666666492279052,13.418215985441895Q11.645364292279053,13.418215985441895,11.624118292279054,13.416666325441895L2.3758815752790525,13.416666325441895Z" fill-rule="evenodd" fill="#F5A623" fill-opacity="1"/><path d="M6.416666792279052,8.594215158765625Q6.418216492279052,8.572968931765624,6.418216492279052,8.551666259765625Q6.418216192279052,8.494060318765625,6.406977892279053,8.437561269765625Q6.395739592279053,8.381062209765625,6.373694692279052,8.327841269765624Q6.351649792279053,8.274620319765624,6.319645892279053,8.226722719765625Q6.287641492279053,8.178825139765625,6.246908192279053,8.138091559765625Q6.206174592279053,8.097358019765625,6.158276992279053,8.065353869765625Q6.110379492279053,8.033349689765625,6.0571584922790525,8.011304859765625Q6.003937492279053,7.989260019765625,5.947438392279053,7.978021679765625Q5.890939392279053,7.966783289765625,5.833333492279053,7.966783289765625Q5.775727492279053,7.966783289765625,5.719228292279053,7.978021619765625Q5.662729292279053,7.989260019765625,5.6095082922790525,8.011304859765625Q5.556287292279053,8.033349689765625,5.508389692279053,8.065353869765625Q5.460492092279052,8.097358019765625,5.419758692279053,8.138091559765625Q5.379025092279052,8.178825139765625,5.347020992279052,8.226722719765625Q5.315016792279053,8.274620319765624,5.292971992279053,8.327841269765624Q5.270927192279053,8.381062209765625,5.259688892279053,8.437561269765625Q5.248450492279053,8.494060318765625,5.248450492279053,8.551666259765625Q5.248450492279053,8.572967290765625,5.249999992279053,8.594211891765625L5.249999992279053,9.916666159765626L5.249626792279052,9.913984059765625Q5.242429392279053,9.930807159765624,5.221451792279053,9.954698159765625Q5.152379592279052,10.033363559765625,5.024761142279052,10.092069859765624Q4.324819882279053,10.412381659765625,3.905185942279053,11.181710759765625Q3.5102734522790526,11.905717159765626,3.500260652279053,12.787355859765626Q3.498450522279053,12.810307059765625,3.498450522279053,12.833333059765625Q3.498450522279053,12.890938759765625,3.509688852279053,12.947437759765625Q3.5209272522790527,13.003936759765626,3.5429720922790526,13.057157559765624Q3.5650169222790526,13.110378259765625,3.5970211022790526,13.158276059765626Q3.6290252522790527,13.206173859765624,3.669758792279053,13.246907259765624Q3.710492372279053,13.287640559765624,3.7583899522790527,13.319644959765625Q3.806287552279053,13.351649259765626,3.859508502279053,13.373693959765625Q3.9127294422790526,13.395738559765626,3.9692285022790528,13.406977159765624Q4.0257275512790525,13.418215759765625,4.083333492279053,13.418215759765625Q4.140939433279053,13.418215759765625,4.197438482279053,13.406977159765624Q4.253937542279052,13.395738559765626,4.3071584822790525,13.373693459765626Q4.360379432279053,13.351648759765624,4.408277032279052,13.319644959765625Q4.456174612279053,13.287640559765624,4.496908192279053,13.246907259765624Q4.537641732279052,13.206173859765624,4.569645882279053,13.158276059765626Q4.601650062279052,13.110378259765625,4.623694892279053,13.057157559765624Q4.645739732279052,13.003936759765626,4.656978072279053,12.947437259765625Q4.6682164622790525,12.890938759765625,4.6682164622790525,12.833333059765625Q4.6682164622790525,12.813943859765626,4.666932342279052,12.794597159765626Q4.675019202279053,12.206731759765624,4.929397522279053,11.740371459765624Q5.163192792279053,11.311746859765625,5.510238692279053,11.152929259765624Q5.865350392279053,10.989578259765626,6.098131392279052,10.724467059765626Q6.416666792279052,10.361691259765625,6.416666792279052,9.916666159765626L6.416666792279052,8.594215158765625Z" fill-rule="evenodd" fill="#F5A623" fill-opacity="1"/><path d="M8.750000294558106,8.594214342765625Q8.751549954558106,8.572968521765626,8.751549954558106,8.551666259765625Q8.751549954558106,8.494060318765625,8.740311624558105,8.437561269765625Q8.729073224558105,8.381062209765625,8.707028384558106,8.327841269765624Q8.684983554558105,8.274620319765624,8.652979374558106,8.226722719765625Q8.620975224558105,8.178825139765625,8.580241684558105,8.138091559765625Q8.539508104558106,8.097358019765625,8.491610524558105,8.065353869765625Q8.443712924558106,8.033349689765625,8.390491974558106,8.011304859765625Q8.337271034558105,7.989260019765625,8.280771974558105,7.978021679765625Q8.224272925558106,7.966783289765625,8.166666984558105,7.966783289765625Q8.109061043558105,7.966783289765625,8.052561994558106,7.978021619765625Q7.996062934558106,7.989260019765625,7.942841994558106,8.011304859765625Q7.889621044558106,8.033349689765625,7.841723444558106,8.065353869765625Q7.793825864558105,8.097358019765625,7.753092284558106,8.138091559765625Q7.712358744558106,8.178825139765625,7.680354594558105,8.226722719765625Q7.648350414558106,8.274620319765624,7.626305584558105,8.327841269765624Q7.604260744558106,8.381062209765625,7.593022404558106,8.437561269765625Q7.581784014558106,8.494060318765625,7.581784014558106,8.551666259765625Q7.581784014558106,8.572968521765626,7.583333674558105,8.594214342765625L7.583333674558105,9.916666159765626Q7.5833337345581056,10.361691259765625,7.901868914558105,10.724467059765626Q8.134649947558106,10.989578459765625,8.489761444558106,11.152929259765624Q8.836807664558105,11.311746859765625,9.070602834558105,11.740371459765624Q9.324981584558106,12.206732759765625,9.333067984558106,12.794599059765625Q9.331783984558106,12.813944859765625,9.331783984558106,12.833333059765625Q9.331783984558106,12.890938759765625,9.343022384558106,12.947437759765625Q9.354260684558106,13.003936759765626,9.376305484558106,13.057157559765624Q9.398350284558106,13.110378259765625,9.430354484558105,13.158276059765626Q9.462358584558105,13.206173859765624,9.503092184558106,13.246907259765624Q9.543825584558105,13.287640559765624,9.591723184558106,13.319644959765625Q9.639620784558105,13.351649259765626,9.692841784558105,13.373693959765625Q9.746062784558106,13.395738559765626,9.802561884558106,13.406977159765624Q9.859060984558106,13.418215759765625,9.916666984558105,13.418215759765625Q9.974272884558106,13.418215759765625,10.030771984558106,13.406977159765624Q10.087270984558106,13.395738559765626,10.140491984558105,13.373693459765626Q10.193712684558106,13.351648759765624,10.241610484558105,13.319644959765625Q10.289507884558105,13.287640559765624,10.330241484558105,13.246907259765624Q10.370974984558107,13.206173859765624,10.402979184558106,13.158276059765626Q10.434983284558106,13.110378259765625,10.457028184558105,13.057157559765624Q10.479073084558106,13.003936759765626,10.490311384558105,12.947437259765625Q10.501549684558105,12.890938759765625,10.501549984558105,12.833333059765625Q10.501549984558105,12.810306559765625,10.499739684558106,12.787351559765625Q10.489726084558106,11.905715459765625,10.094814284558105,11.181710759765625Q9.675180184558105,10.412381559765626,8.975238864558106,10.092069859765624Q8.847620664558105,10.033363559765625,8.778548534558105,9.954698159765625Q8.757571164558106,9.930807359765625,8.750373604558105,9.913984159765626L8.750000294558106,9.916666159765626L8.750000294558106,8.594214342765625Z" fill-rule="evenodd" fill="#F5A623" fill-opacity="1"/><path d="M9.8873529,8.137351865348815Q11.083333,6.941371765348816,11.083333,5.249999865348816L11.083333,1.166666865348816Q11.083333,1.1092135533488159,11.072123999999999,1.0528641953488158Q11.060915,0.9965148253488159,11.038929,0.9434348953488159Q11.016942,0.8903549353488159,10.9850225,0.8425842553488159Q10.953104,0.7948135753488159,10.912478400000001,0.7541879453488158Q10.8718529,0.7135623053488159,10.8240819,0.6816429753488159Q10.7763109,0.6497235853488159,10.7232313,0.627737165348816Q10.6701512,0.605750735348816,10.613802,0.5945421453488159Q10.5574522,0.5833336153488159,10.499999500000001,0.5833335553488159L3.5,0.5833335553488159Q3.442546688,0.5833336153488159,3.38619733,0.594542205348816Q3.32984796,0.6057507953488159,3.27676803,0.6277372253488159Q3.22368807,0.6497236453488159,3.17591739,0.6816429753488159Q3.12814671,0.7135623053488159,3.08752108,0.7541879453488158Q3.04689544,0.7948135753488159,3.01497611,0.8425842553488159Q2.98305672,0.8903549353488159,2.9610703000000003,0.9434348953488159Q2.93908387,0.9965148253488159,2.92787528,1.0528641953488158Q2.91666675,1.1092135533488159,2.91666669,1.166666865348816L2.91666669,5.249999865348816Q2.91666669,6.941371365348816,4.11264741,8.137351865348815Q5.3086281,9.333333865348816,6.999999799999999,9.333333865348816Q8.691372399999999,9.333333865348816,9.8873529,8.137351865348815ZM9.9166665,1.750000175348816L9.9166665,5.249999865348816Q9.9166665,6.458122565348816,9.0623951,7.3123940653488155Q8.2081232,8.166666365348817,6.999999799999999,8.166666365348817Q5.7918772999999995,8.166666365348817,4.9376051,7.3123940653488155Q4.08333331,6.458122565348816,4.08333331,5.249999865348816L4.08333331,1.750000175348816L9.9166665,1.750000175348816Z" fill-rule="evenodd" fill="#F5A623" fill-opacity="1"/></g></svg>