<svg xmlns="http://www.w3.org/2000/svg" xmlns:xlink="http://www.w3.org/1999/xlink" fill="none" version="1.1" width="12" height="12" viewBox="0 0 12 12"><defs><clipPath id="master_svg0_2_03074"><rect x="-0.75" y="-0.75" width="13.5" height="13.5" rx="0"/></clipPath></defs><g clip-path="url(#master_svg0_2_03074)"><path d="M2.46977597,5.03022403Q2.36430788,4.92475593,2.30722892,4.78695518Q2.25014997,4.64915444,2.25014997,4.5Q2.25014997,4.426146217,2.2645581999999997,4.35371152Q2.27896631,4.28127682,2.30722892,4.21304482Q2.33549154,4.14481282,2.37652254,4.08340567Q2.41755348,4.02199849,2.46977597,3.96977597Q2.52199849,3.91755348,2.58340567,3.87652254Q2.64481282,3.83549154,2.71304482,3.80722892Q2.78127682,3.77896631,2.85371152,3.7645581999999997Q2.926146217,3.75014997,3,3.75014997Q3.14915444,3.75014997,3.28695518,3.80722886Q3.42475593,3.86430788,3.53022403,3.96977597L3.53033006,3.96966994L6,6.4393398L8.4696703,3.96966994L8.4697762,3.96977568Q8.5752439,3.8643077,8.7130446,3.80722886Q8.8508453,3.75014997,9,3.75014997Q9.0738535,3.75014997,9.1462879,3.7645581999999997Q9.2187223,3.77896631,9.286954399999999,3.80722892Q9.3551865,3.83549154,9.416593599999999,3.87652254Q9.4780011,3.91755348,9.5302238,3.96977597Q9.5824461,4.02199849,9.623477000000001,4.08340567Q9.6645079,4.14481282,9.692771,4.21304482Q9.7210331,4.28127682,9.7354412,4.35371152Q9.7498503,4.426146217,9.7498503,4.5Q9.7498503,4.64915453,9.692771,4.78695536Q9.635691600000001,4.92475617,9.5302238,5.03022432L9.5303297,5.03033006L6.5303299,8.0303299Q6.4248407,8.135819,6.287012600000001,8.192909499999999Q6.1491842000000005,8.25,6.000000200000001,8.2500002Q5.850816,8.25,5.712987399999999,8.1929097Q5.5751591000000005,8.1358192,5.4696698,8.0303299L2.46966994,5.03033006L2.46977597,5.03022403Z" fill-rule="evenodd" fill="#0A0A0A" fill-opacity="1"/></g></svg>