<svg xmlns="http://www.w3.org/2000/svg" xmlns:xlink="http://www.w3.org/1999/xlink" fill="none" version="1.1" width="3.78" height="3.63" viewBox="0 0 3.784912109375 3.6280517578125"><path d="M0.17719187,0.16984843C0.41351902,-0.056616142,0.79660541,-0.056616142,1.0329325,0.16984843L3.6001546,2.630676C3.7574782,2.7763269,3.8205729,2.9920139,3.7651885,3.1948376C3.7098041,3.397661,3.5445597,3.5560572,3.332967,3.6091461C3.1213744,3.6622353,2.8963621,3.6017554,2.7444141,3.4509521L0.17719187,0.99012429C-0.059063952,0.76359135,-0.059063952,0.39638138,0.17719187,0.16984843Z" fill-rule="evenodd" fill="#366FFF" fill-opacity="1"/><path d="M1.0329021690671922,0.990117653828392C1.269157919067192,0.763584603828392,1.269157919067192,0.39637446382839203,1.0329021690671922,0.16984139382839203L3.6001238190671923,2.630670193828392C3.448175619067192,2.479866893828392,3.223163519067192,2.419386693828392,3.011570819067192,2.472475893828392C2.7999782190671922,2.525564993828392,2.634733819067192,2.683961293828392,2.579349419067192,2.886784893828392C2.5239650190671923,3.089608493828392,2.587059919067192,3.305295593828392,2.744383219067192,3.450946393828392L0.17716161906719208,0.990117653828392C0.4134887490671921,1.2165822938283921,0.7965750590671921,1.2165822938283921,1.0329021690671922,0.990117653828392Z" fill-rule="evenodd" fill="#366FFF" fill-opacity="1"/></svg>