<svg xmlns="http://www.w3.org/2000/svg" xmlns:xlink="http://www.w3.org/1999/xlink" fill="none" version="1.1" width="289.91" height="1" viewBox="0 0 289.9058837890625 1"><path d="M0,1L1.9938558,1L1.9938558,0L0,0L0,1ZM3.9815872,1L8.0139771,1L8.0139771,0L3.9815872,0L3.9815872,1ZM10.045386,1L14.053752,1L14.053752,0L10.045386,0L10.045386,1ZM16.086622,1L20.102417,1L20.102417,0L16.086622,0L16.086622,1ZM22.126347,1L26.155254,1L26.155254,0L22.126347,0L22.126347,1ZM28.156408,1L32.187908,1L32.187908,0L28.156408,0L28.156408,1ZM34.199699,1L38.160278,1L38.160278,0L34.199699,0L34.199699,1ZM40.151947,1L44.250042,1L44.250042,0L40.151947,0L40.151947,1ZM46.269569,1L50.231506,1L50.231506,0L46.269569,0L46.269569,1ZM52.256035,1L56.356445,1L56.356445,0L52.256035,0L52.256035,1ZM58.323891,1L62.326275,1L62.326275,0L58.323891,0L58.323891,1ZM64.359955,1L68.422836,1L68.422836,0L64.359955,0L64.359955,1ZM70.404976,1L74.420395,1L74.420395,0L70.404976,0L70.404976,1ZM76.452606,1L80.506348,1L80.506348,0L76.452606,0L76.452606,1ZM82.495232,1L86.51162,1L86.51162,0L82.495232,0L82.495232,1ZM88.538208,1L92.596542,1L92.596542,0L88.538208,0L88.538208,1ZM94.588928,1L98.60244,1L98.60244,0L94.588928,0L94.588928,1ZM100.62276,1L104.68797,1L104.68797,0L100.62276,0L100.62276,1ZM106.68338,1L110.69481,1L110.69481,0L106.68338,0L106.68338,1ZM112.71004,1L116.75774,1L116.75774,0L112.71004,0L112.71004,1ZM118.77227,1L122.7692,1L122.7692,0L118.77227,0L118.77227,1ZM124.77361,1L128.79266,1L128.79266,0L124.77361,0L124.77361,1ZM130.80656,1L134.84137,1L134.84137,0L130.80656,0L130.80656,1ZM136.8616,1L140.90585,1L140.90585,0L136.8616,0L136.8616,1ZM144.99808,1L146.97665,1L146.97665,0L142.92923,0L142.92923,1L144.99808,1ZM149.00002,1L153.04431,1L153.04431,0L149.00002,0L149.00002,1ZM155.06451,1L159.09933,1L159.09933,0L155.06451,0L155.06451,1ZM161.11322,1L165.13226,1L165.13226,0L161.11322,0L161.11322,1ZM167.13669,1L171.13364,1L171.13364,0L167.13669,0L167.13669,1ZM173.14818,1L177.19585,1L177.19585,0L173.14818,0L173.14818,1ZM179.21109,1L183.2225,1L183.2225,0L179.21109,0L179.21109,1ZM185.21794,1L189.28311,1L189.28311,0L185.21794,0L185.21794,1ZM191.30341,1L195.31699,1L195.31699,0L191.30341,0L191.30341,1ZM197.30937,1L201.36768,1L201.36768,0L197.30937,0L197.30937,1ZM203.39427,1L207.41064,1L207.41064,0L203.39427,0L203.39427,1ZM209.39954,1L213.45329,1L213.45329,0L209.39954,0L209.39954,1ZM215.4855,1L219.5009,1L219.5009,0L215.4855,0L215.4855,1ZM221.48309,1L225.54593,1L225.54593,0L221.48309,0L221.48309,1ZM227.57965,1L231.582,1L231.582,0L227.57965,0L227.57965,1ZM233.54944,1L237.64987,1L237.64987,0L233.54944,0L233.54944,1ZM239.67441,1L243.63634,1L243.63634,0L239.67441,0L239.67441,1ZM245.65585,1L249.75395,1L249.75395,0L245.65585,0L245.65585,1ZM251.74565,1L255.70621,1L255.70621,0L251.74565,0L251.74565,1ZM257.71799,1L261.74951,1L261.74951,0L257.71799,0L257.71799,1ZM263.75061,1L267.77954,1L267.77954,0L263.75061,0L263.75061,1ZM269.80347,1L273.81927,1L273.81927,0L269.80347,0L269.80347,1ZM275.85214,1L279.86053,1L279.86053,0L275.85214,0L275.85214,1ZM281.89191,1L285.92429,1L285.92429,0L281.89191,0L281.89191,1ZM287.91205,1L289.90588,1L289.90588,0L287.91205,0L287.91205,1Z" fill-rule="evenodd" fill="#F5A623" fill-opacity="1"/></svg>