<svg width="1244" height="1244" viewBox="0 0 1244 1244" fill="none" xmlns="http://www.w3.org/2000/svg">
<circle cx="356" cy="357" r="8" fill="#333333"/>
<circle cx="397" cy="357" r="8" fill="#333333"/>
<circle cx="438" cy="357" r="8" fill="#333333"/>
<circle cx="479" cy="357" r="8" fill="#333333"/>
<circle cx="520" cy="357" r="8" fill="#333333"/>
<circle cx="561" cy="357" r="8" fill="#333333"/>
<circle cx="602" cy="357" r="8" fill="#333333"/>
<circle cx="643" cy="357" r="8" fill="#333333"/>
<circle cx="684" cy="357" r="8" fill="#333333"/>
<circle cx="725" cy="357" r="8" fill="#333333"/>
<circle cx="766" cy="357" r="8" fill="#333333"/>
<circle cx="807" cy="357" r="8" fill="#333333"/>
<circle cx="848" cy="357" r="8" fill="#333333"/>
<circle cx="889" cy="357" r="8" fill="#333333"/>
<circle cx="356" cy="398" r="8" fill="#333333"/>
<circle cx="397" cy="398" r="12" fill="#333333"/>
<circle cx="438" cy="398" r="12" fill="#333333"/>
<circle cx="479" cy="398" r="12" fill="#333333"/>
<circle cx="520" cy="398" r="12" fill="#333333"/>
<circle cx="561" cy="398" r="12" fill="#333333"/>
<circle cx="602" cy="398" r="12" fill="#333333"/>
<circle cx="643" cy="398" r="12" fill="#333333"/>
<circle cx="684" cy="398" r="12" fill="#333333"/>
<circle cx="725" cy="398" r="12" fill="#333333"/>
<circle cx="766" cy="398" r="12" fill="#333333"/>
<circle cx="807" cy="398" r="12" fill="#333333"/>
<circle cx="848" cy="398" r="12" fill="#333333"/>
<circle cx="889" cy="398" r="8" fill="#333333"/>
<circle cx="356" cy="439" r="8" fill="#333333"/>
<circle cx="397" cy="439" r="12" fill="#333333"/>
<circle cx="438" cy="439" r="12" fill="#333333"/>
<circle cx="479" cy="439" r="12" fill="#333333"/>
<circle cx="520" cy="439" r="12" fill="#333333"/>
<circle cx="561" cy="439" r="12" fill="#333333"/>
<circle cx="602" cy="439" r="12" fill="#333333"/>
<circle cx="643" cy="439" r="12" fill="#333333"/>
<circle cx="684" cy="439" r="12" fill="#333333"/>
<circle cx="725" cy="439" r="12" fill="#333333"/>
<circle cx="766" cy="439" r="12" fill="#333333"/>
<circle cx="807" cy="439" r="12" fill="#333333"/>
<circle cx="848" cy="439" r="12" fill="#333333"/>
<circle cx="889" cy="439" r="8" fill="#333333"/>
<circle cx="356" cy="480" r="8" fill="#333333"/>
<circle cx="397" cy="480" r="12" fill="#333333"/>
<circle cx="438" cy="480" r="12" fill="#333333"/>
<circle cx="479" cy="480" r="12" fill="#333333"/>
<circle cx="520" cy="480" r="12" fill="#333333"/>
<circle cx="561" cy="480" r="12" fill="#333333"/>
<circle cx="602" cy="480" r="12" fill="#333333"/>
<circle cx="643" cy="480" r="12" fill="#333333"/>
<circle cx="684" cy="480" r="12" fill="#333333"/>
<circle cx="725" cy="480" r="12" fill="#333333"/>
<circle cx="766" cy="480" r="12" fill="#333333"/>
<circle cx="807" cy="480" r="12" fill="#333333"/>
<circle cx="848" cy="480" r="12" fill="#333333"/>
<circle cx="889" cy="480" r="8" fill="#333333"/>
<circle cx="356" cy="521" r="8" fill="#333333"/>
<circle cx="397" cy="521" r="12" fill="#333333"/>
<circle cx="438" cy="521" r="12" fill="#333333"/>
<circle cx="479" cy="521" r="12" fill="#333333"/>
<circle cx="520" cy="521" r="12" fill="#333333"/>
<circle cx="561" cy="521" r="12" fill="#333333"/>
<circle cx="602" cy="521" r="12" fill="#333333"/>
<circle cx="643" cy="521" r="12" fill="#333333"/>
<circle cx="684" cy="521" r="12" fill="#333333"/>
<circle cx="725" cy="521" r="12" fill="#333333"/>
<circle cx="766" cy="521" r="12" fill="#333333"/>
<circle cx="807" cy="521" r="12" fill="#333333"/>
<circle cx="848" cy="521" r="12" fill="#333333"/>
<circle cx="889" cy="521" r="8" fill="#333333"/>
<circle cx="356" cy="562" r="8" fill="#333333"/>
<circle cx="397" cy="562" r="12" fill="#333333"/>
<circle cx="438" cy="562" r="12" fill="#333333"/>
<circle cx="479" cy="562" r="12" fill="#333333"/>
<circle cx="520" cy="562" r="12" fill="#333333"/>
<circle cx="561" cy="562" r="12" fill="#333333"/>
<circle cx="602" cy="562" r="12" fill="#333333"/>
<circle cx="643" cy="562" r="12" fill="#333333"/>
<circle cx="684" cy="562" r="12" fill="#333333"/>
<circle cx="725" cy="562" r="12" fill="#333333"/>
<circle cx="766" cy="562" r="12" fill="#333333"/>
<circle cx="807" cy="562" r="12" fill="#333333"/>
<circle cx="848" cy="562" r="12" fill="#333333"/>
<circle cx="889" cy="562" r="8" fill="#333333"/>
<circle cx="356" cy="603" r="8" fill="#333333"/>
<circle cx="397" cy="603" r="12" fill="#333333"/>
<circle cx="438" cy="603" r="12" fill="#333333"/>
<circle cx="479" cy="603" r="12" fill="#333333"/>
<circle cx="520" cy="603" r="12" fill="#333333"/>
<circle cx="561" cy="603" r="12" fill="#333333"/>
<circle cx="602" cy="603" r="12" fill="#333333"/>
<circle cx="643" cy="603" r="12" fill="#333333"/>
<circle cx="684" cy="603" r="12" fill="#333333"/>
<circle cx="725" cy="603" r="12" fill="#333333"/>
<circle cx="766" cy="603" r="12" fill="#333333"/>
<circle cx="807" cy="603" r="12" fill="#333333"/>
<circle cx="848" cy="603" r="12" fill="#333333"/>
<circle cx="889" cy="603" r="8" fill="#333333"/>
<circle cx="356" cy="644" r="8" fill="#333333"/>
<circle cx="397" cy="644" r="12" fill="#333333"/>
<circle cx="438" cy="644" r="12" fill="#333333"/>
<circle cx="479" cy="644" r="12" fill="#333333"/>
<circle cx="520" cy="644" r="12" fill="#333333"/>
<circle cx="561" cy="644" r="12" fill="#333333"/>
<circle cx="602" cy="644" r="12" fill="#333333"/>
<circle cx="643" cy="644" r="12" fill="#333333"/>
<circle cx="684" cy="644" r="12" fill="#333333"/>
<circle cx="725" cy="644" r="12" fill="#333333"/>
<circle cx="766" cy="644" r="12" fill="#333333"/>
<circle cx="807" cy="644" r="12" fill="#333333"/>
<circle cx="848" cy="644" r="12" fill="#333333"/>
<circle cx="889" cy="644" r="8" fill="#333333"/>
<circle cx="356" cy="685" r="8" fill="#333333"/>
<circle cx="397" cy="685" r="12" fill="#333333"/>
<circle cx="438" cy="685" r="12" fill="#333333"/>
<circle cx="479" cy="685" r="12" fill="#333333"/>
<circle cx="520" cy="685" r="12" fill="#333333"/>
<circle cx="561" cy="685" r="12" fill="#333333"/>
<circle cx="602" cy="685" r="12" fill="#333333"/>
<circle cx="643" cy="685" r="12" fill="#333333"/>
<circle cx="684" cy="685" r="12" fill="#333333"/>
<circle cx="725" cy="685" r="12" fill="#333333"/>
<circle cx="766" cy="685" r="12" fill="#333333"/>
<circle cx="807" cy="685" r="12" fill="#333333"/>
<circle cx="848" cy="685" r="12" fill="#333333"/>
<circle cx="889" cy="685" r="8" fill="#333333"/>
<circle cx="356" cy="726" r="8" fill="#333333"/>
<circle cx="397" cy="726" r="12" fill="#333333"/>
<circle cx="438" cy="726" r="10" fill="#333333"/>
<circle cx="479" cy="726" r="10" fill="#333333"/>
<circle cx="520" cy="726" r="10" fill="#333333"/>
<circle cx="561" cy="726" r="12" fill="#333333"/>
<circle cx="602" cy="726" r="12" fill="#333333"/>
<circle cx="643" cy="726" r="12" fill="#333333"/>
<circle cx="684" cy="726" r="12" fill="#333333"/>
<circle cx="725" cy="726" r="10" fill="#333333"/>
<circle cx="766" cy="726" r="10" fill="#333333"/>
<circle cx="807" cy="726" r="10" fill="#333333"/>
<circle cx="848" cy="726" r="12" fill="#333333"/>
<circle cx="889" cy="726" r="8" fill="#333333"/>
<circle cx="356" cy="767" r="8" fill="#333333"/>
<circle cx="397" cy="767" r="12" fill="#333333"/>
<circle cx="438" cy="767" r="12" fill="#333333"/>
<circle cx="479" cy="767" r="12" fill="#333333"/>
<circle cx="520" cy="767" r="12" fill="#333333"/>
<circle cx="561" cy="767" r="12" fill="#333333"/>
<circle cx="602" cy="767" r="10" fill="#333333"/>
<circle cx="643" cy="767" r="12" fill="#333333"/>
<circle cx="684" cy="767" r="12" fill="#333333"/>
<circle cx="725" cy="767" r="12" fill="#333333"/>
<circle cx="766" cy="767" r="12" fill="#333333"/>
<circle cx="807" cy="767" r="12" fill="#333333"/>
<circle cx="848" cy="767" r="12" fill="#333333"/>
<circle cx="889" cy="767" r="8" fill="#333333"/>
<circle cx="602" cy="808" r="10" fill="#333333"/>
<circle cx="643" cy="808" r="10" fill="#333333"/>
<circle cx="684" cy="808" r="12" fill="#333333"/>
<circle cx="643" cy="849" r="8" fill="#333333"/>
<circle cx="684" cy="849" r="10" fill="#333333"/>
<circle cx="684" cy="890" r="8" fill="#333333"/>
</svg>
